<?xml version="1.0" encoding="utf-8"?>
<!-- Generator: Adobe Illustrator 16.0.4, SVG Export Plug-In . SVG Version: 6.00 Build 0)  -->
<!DOCTYPE svg PUBLIC "-//W3C//DTD SVG 1.1//EN" "http://www.w3.org/Graphics/SVG/1.1/DTD/svg11.dtd">
<svg version="1.1" id="Layer_1" xmlns="http://www.w3.org/2000/svg" xmlns:xlink="http://www.w3.org/1999/xlink" x="0px" y="0px"
	 width="612px" height="792px" viewBox="0 0 612 792" enable-background="new 0 0 612 792" xml:space="preserve">
<path fill-rule="evenodd" clip-rule="evenodd" d="M149.324,475.124c-5.184-1.224-38.376-16.344-43.632-20.017
	c-5.184-3.672-16.992-13.319-20.088-16.271c-3.168-3.024-12.528-15.912-12.888-17.855c-0.36-1.944-4.176-7.272-4.752-11.017
	c-1.368,0.072-3.168,1.224-4.752,1.801c-6.408,2.375-10.44,3.815-10.44-4.753c1.44-1.8,1.44-1.8,1.656-2.592
	c2.88-1.296,7.704-2.735,8.208-3.312c-0.864-3.96-4.249-6.479-6.408-10.583c-7.776-14.328-13.392-24.552-15.624-42.984
	c-1.8-15.192-1.872-38.448,4.464-52.488c1.8-4.032,2.304-6.48,5.688-6.624c1.584,5.4,2.16,10.296,7.272,13.392
	c5.76,0,6.624-8.136,12.527-4.392c0.36,2.736,0.792,5.472,1.224,8.28c5.833,12.744,11.952,16.632,25.848,12.672
	c3.672-2.952,6.408-6.048,9.576-8.496c3.744,0,5.616,2.448,5.616,6.48c-3.744,9.864-0.432,23.544,3.312,33.048
	c3.384,5.904,6.552,10.008,9.936,15.048c5.4,0.72,23.976-11.088,29.16-14.112c7.92-5.76,15.048-12.96,23.04-18.432
	c0.144-0.288,0.288-0.576,0.432-0.864c13.896-8.712,22.392-15.84,37.368-4.608c3.24,6.336,3.816,8.856,3.816,15.984
	c-2.88,8.424-11.016,18.936-21.024,16.2c0-0.432,0-0.792,0-1.152c-8.784-3.096,6.912-14.544,8.928-17.208
	c0.432-5.4,0.792-6.48-4.896-6.48c-1.224,0.504-2.52,1.008-3.672,1.44c-18.792,13.608-38.376,25.92-58.896,36.576
	c-0.072,0.36-0.144,0.72-0.144,1.152c3.672,0.936,7.128,1.8,10.44,4.032c-0.864,9.864-7.848,18.864,0,27.792
	c2.952,2.159,5.976,4.247,9,6.407c0,0.721,0.072,1.369,0.144,2.089c-7.632,4.392-12.312,11.735-13.176,20.231
	c0.936,1.44,1.944,5.04,2.952,6.553c3.24,2.808,7.992,3.527,9.504,7.344c1.08,2.808-2.088,5.327-4.032,5.976
	c-6.768,2.305-13.248,4.896-3.456,17.568c1.728,0,1.728,2.663,1.08,3.816C151.556,474.836,150.404,474.98,149.324,475.124
	L149.324,475.124L149.324,475.124L149.324,475.124z"/>
<path fill-rule="evenodd" clip-rule="evenodd" fill="#FFFF00" d="M127.364,463.172c-8.928-3.312-20.52-9.792-26.784-15.407
	c-6.408-5.761-22.752-20.809-26.928-33.769c0.215-0.216,0.504-0.504,0.72-0.72c8.856,12.167,15.48,19.871,24.048,23.616
	c3.168,1.439,29.52,10.872,33.336,11.664c3.672,0.647,10.656,2.375,15.192,1.439c0.072-0.432,0.144-0.792,0.216-1.152
	c-3.6-1.079,0.36,0-9.936-1.8s-38.448-12.96-42.48-15.408c-4.032-2.448-13.104-12.96-13.248-13.247
	c-1.584-3.097-4.248-6.337-4.968-8.785c0.288-0.287,0.504-0.504,0.792-0.72c4.032,4.032,18.936,7.921,23.616,8.568
	c16.848,2.448,33.552,1.296,48.6-3.096c-0.072-0.433-0.144-0.864-0.216-1.296c-4.392,0-4.392,0-6.912,0.359
	c-3.24,1.296-23.4,2.664-30.456,2.016c-13.32-1.151-25.992-5.039-36.288-10.655c6.12,0.072,10.008-0.72,27.864-4.392
	c13.968-2.881,28.224-7.921,39.96-16.272c0-0.72,0.072-1.368,0.144-2.016c-1.656,0-1.44-0.72-2.376-0.72
	c-0.936,2.808-8.28,5.472-12.096,7.128c-17.208,7.56-36.144,10.368-56.448,12.168c-1.729-1.152-2.808-3.023-4.752-3.24
	c0.288,1.225,0.72,5.4,2.592,5.904c0,1.08,0.072,2.232,0.145,3.312c-1.008,1.008-3.6,0.144-4.896,0.144
	c-4.104,1.656-5.833,2.593-10.152,2.376c0.144-0.575,0.215-1.224,0.36-1.8c2.808-1.296,2.808-1.296,6.408-2.376
	c2.952,0,3.384,0.36,4.608,0.216c0-1.151-0.72-2.592-1.656-8.136c-2.088-0.864-3.168-2.232-5.112-5.4
	c-14.616-23.688-17.784-61.2-16.488-75.312c1.296-14.112,4.248-20.664,5.04-22.824c0.792,2.232,4.032,10.224,7.056,10.656
	c4.824,0.864,8.568-1.296,10.8-5.76c0.792,0,1.152,0.576,1.944,0.576c-0.504,4.752-0.288,3.888,0.288,7.056
	c0.504,3.168,1.584,6.336,2.736,7.704c1.152,1.44,5.76,7.416,13.896,9.72c11.52,0,16.272-2.592,22.032-11.952
	c4.896,0.216,4.68,3.816,2.016,7.776c-2.304,11.808-0.432,19.08,2.88,30.456c2.448,3.6,7.056,15.264,10.512,16.488
	c1.8,3.96,8.568,7.2,12.816,8.496c0,0.216,0,0.504,0,0.72c4.752,1.296,4.752,1.296,10.944,3.528
	c-7.2,17.136-0.504,28.512,7.272,31.607c2.16,0.937-0.072,4.536-1.008,5.761c-2.88,3.672-14.256,11.952-6.264,25.92
	c2.664,3.097,7.416,3.097,6.84,7.344c-0.36,2.592-11.376,5.976-11.376,11.736c1.152,2.521,3.528,6.696,4.032,9.216
	C142.412,471.02,131.684,464.828,127.364,463.172L127.364,463.172L127.364,463.172L127.364,463.172z"/>
<path fill-rule="evenodd" clip-rule="evenodd" fill="#B2B2B2" d="M193.316,427.244c2.88-11.736,4.896-20.448,4.248-32.256
	c-3.528-2.232-13.176,1.008-18,0.72c-0.072-0.432-0.144-0.72-0.144-1.08c5.4-0.792,12.672-0.648,17.352-2.592
	c0-4.752-1.008-10.152-3.456-14.184c-8.496,1.872-17.28,3.168-24.912,7.344c-0.432-0.072-0.864-0.144-1.296-0.144
	c1.512-7.2,21.312-5.544,25.272-9.576c-0.576-4.248-3.672-8.424-5.616-12.096c2.52,0.216,2.376-2.16,3.312,0.216
	c0.144,0,4.536,10.368,4.896,11.52c1.656,0.144,3.456-0.504,5.904-0.36c-0.072,0.288-0.144,0.576-0.216,0.936
	c-3.672,0.72-3.672,0.72-4.608,1.296c0.432,4.032,1.872,9.504,2.808,15.408c1.08-0.144,2.16-0.288,3.24-0.36c0,0.216,0,0.432,0,0.72
	c-2.16,0.576-2.16,0.576-2.736,1.08c0,6.408,0,10.8-0.72,17.208c-2.952,10.656-4.392,14.688-4.608,16.2
	C193.82,427.244,193.532,427.244,193.316,427.244L193.316,427.244L193.316,427.244L193.316,427.244z"/>
<path fill-rule="evenodd" clip-rule="evenodd" d="M69.044,396.212c-1.944-10.08-0.288-20.808,2.592-30.24
	c0.936-3.24,4.032-8.928,6.192-13.104c2.592-4.824,4.68-7.776,6.624-11.88c0.216-0.36,13.176-14.184,13.176-15.048
	c1.368-0.144,2.664-0.288,4.104-0.432c-1.368,3.528-12.744,15.84-14.904,18.72c-6.408,10.656-11.952,19.944-13.968,32.04
	c0,1.8-1.08,6.408-1.872,12.096c-0.288,1.8-0.36,5.184-0.288,6.912C69.98,396.068,69.98,396.068,69.044,396.212L69.044,396.212
	L69.044,396.212L69.044,396.212z"/>
<path fill-rule="evenodd" clip-rule="evenodd" d="M65.012,395.276c-9.648-14.688-13.464-27.648-13.392-45.864
	c0.072-10.512,1.656-27.072,7.2-36.72c0.576,0,1.151,0,1.8,0c-0.504,3.312-3.744,15.768-4.176,18
	c-0.36,2.376-0.864,8.496-1.152,13.176c-0.576,9.216,0,9.216-0.36,9.576c-0.36,3.24,4.032,25.344,9.72,36.72
	c0.792,1.512,1.08,3.24,1.656,4.824C65.876,395.06,65.444,395.204,65.012,395.276L65.012,395.276L65.012,395.276L65.012,395.276z"/>
<path fill-rule="evenodd" clip-rule="evenodd" fill="#E5EDFF" d="M141.62,367.916c-9.504,4.32-2.088-4.536,0-5.472
	c2.16-0.936,23.616-15.192,27.504-18.216c6.984-5.472,13.896-10.872,21.096-15.768c5.184-3.528,11.88-4.824,14.76-3.96
	c2.88,0.792,9.576,5.616,10.368,8.424c0.72,2.736,2.016,9.144,0.72,10.8c-1.296,1.656-12.456,14.904-15.624,11.592
	c-3.168-3.384,4.968-6.984,7.344-8.856c2.448-1.872,3.024-1.512,3.888-4.752c0.792-3.24,0-6.12-1.944-9.144
	c-3.024-4.824-9.216-3.384-13.464-0.432c-3.456,2.52-5.472,4.536-12.312,9.576S151.052,363.596,141.62,367.916L141.62,367.916
	L141.62,367.916L141.62,367.916z"/>
<path fill-rule="evenodd" clip-rule="evenodd" fill="#B2B2B2" d="M243.572,694.724c5.184-0.647,170.064-11.231,186.12-7.415
	c2.736,0.647,4.248,1.224,4.393,2.88c0.216,1.655-0.864,1.8-2.16,2.231c-9.216,2.808-29.664,6.265-32.184,6.553
	c-11.593,1.079-81.36,5.255-105.048,5.903c-23.76,0.721-54.36,0.504-59.688,0.433c-7.92-0.145-15.84-1.009-23.328-1.513
	c-0.648-0.072-2.952,0-3.312-1.439c-0.216-0.864-0.144-1.944,0.36-2.592c0.576-0.792,1.584-1.153,2.592-1.297
	C221.9,697.027,232.556,696.092,243.572,694.724L243.572,694.724L243.572,694.724L243.572,694.724z"/>
<path fill-rule="evenodd" clip-rule="evenodd" d="M102.236,524.948c-5.616,1.512-12.024,5.399-13.392,9.144
	c-1.656,4.752-1.728,9.072,0,14.688c0.144,0.359,5.976,8.712,9.576,12.528c3.384,3.743,30.528,18,36.72,20.447
	c9.792,3.96,20.088,4.392,28.872,8.929c-0.936,7.775-0.216,10.655,5.832,11.376c0.504,9.144,4.32,10.151,12.888,12.671
	c0.504,0.577,0.864,2.017,2.376,3.889c5.544,2.16,8.784,1.296,14.832,0.504c2.448-1.656,6.408-3.527,8.784-1.08
	c2.952,0.36,2.952,0.36,8.064,0c1.872,0.792,13.968,8.712,13.968,10.08c15.552,8.353,21.744,3.023,38.808-3.097
	c2.232,0,2.232,0,2.736,0.576c-0.072,0.937-0.216,1.873-0.36,2.881c-8.64,17.496-17.424,38.592-17.928,53.28
	c-0.288,6.911,1.8,21.888,11.088,21.888c14.112,0,35.28-30.457,66.96-30.601c31.823-0.144,38.375,24.408,54.432,24.408
	c11.736,0,11.736-27.359,11.16-33.336c-1.873-17.929-8.28-32.544-15.049-49.176c-0.791-4.824,2.017-7.2,5.473-9.937
	c5.256-7.056,12.312-13.464,18-20.231c6.408-9.145,13.104-18.792,18.288-28.656c3.168-7.632,5.256-16.271,8.855-23.472
	c2.88-10.296,3.673-11.448,5.832-19.513c1.152-0.432,2.305-0.863,3.456-1.296c5.761-5.76,0.721-5.976,10.656-6.912
	c9.576-2.447,17.712-7.416,26.064-12.527c5.832-0.504,11.447-0.937,17.207,0.72c8.641,0,13.824-2.808,9.145-11.16
	c-0.216,0-0.504,0-0.72,0c-0.648-1.512-1.513-1.512-2.952-2.232c0.216-1.079,0.216-1.079,1.656-4.031
	c0-9.072-8.208-10.296-15.553-11.016c-0.216-1.152-0.432-2.232-0.576-3.312c-4.968-7.2-15.768-1.8-22.896-1.08
	c-0.144,0.288-0.288,0.576-0.36,0.864c-4.032,1.8-15.191,6.768-16.488,10.296c-2.447,0.864-2.664,3.096-5.472,3.528
	c-0.504-1.944-1.008-3.816-1.512-5.76c-5.832-5.832-20.52-3.385-23.688,4.247c0,7.272,8.496,3.744,13.393,5.544
	c0,0.216,0,0.504,0,0.72c0.288,0,0.504,0,0.792,0c-1.224,3.816-7.344,16.776-1.08,19.872c-0.072,0.36-0.144,0.648-0.216,1.081
	c-0.792,0.359-1.512,0.72-2.232,1.08c-5.615,5.615-2.664,6.479,1.08,11.375c-0.72,8.064-0.72,8.064-2.16,18
	c-3.743,13.176-7.848,23.977-13.535,36.36c-8.496,14.04-16.488,25.776-27.721,38.016c-2.951,1.512-4.248,2.16-7.128,0.576
	c0-2.231,0-2.231,1.44-8.064c0-20.88-13.896-28.871-33.912-28.871c-6.049-3.961-23.256-15.264-26.352-17.064
	c-3.169-1.8-28.873-14.327-32.977-15.407c-5.832-1.513-14.328-4.608-20.52-3.312c3.528,5.04,12.816,29.521,13.752,37.8
	c1.872,15.984,1.296,30.889-3.456,46.439c-0.72,0.793-0.72,0.793-3.888,2.089c-3.816,5.04-8.28,5.399-14.472,7.128
	c-2.448,2.448-12.816,2.232-15.336,2.232c-7.2-3.097-11.88-8.929-18.36-12.672c0-0.289,0-0.505,0-0.792
	c-0.864-0.217-1.728-0.433-2.592-0.648c-0.144-1.152-0.144-1.152-0.936-2.232c0-5.76,1.152-7.488-3.816-9.936
	c-0.288-5.976-4.536-13.248-9-17.641c-4.392-4.32-12.528-8.279-15.552-11.592c-3.096-3.312-2.448-3.528-6.624-4.032
	c-2.304,1.944-2.448,2.809-3.456,5.761c-4.464,1.8-17.928-13.249-20.016-17.641c-1.224-2.735-5.688-7.704-7.632-9.792
	c-2.592-2.808-10.152-9-14.688-12.096c-4.536-3.096-5.472-3.672-11.736-6.624C123.692,527.685,112.1,522.356,102.236,524.948
	L102.236,524.948L102.236,524.948L102.236,524.948z"/>
<path fill-rule="evenodd" clip-rule="evenodd" fill="#FFFFFF" d="M265.892,697.389c-1.224-0.361-2.448-0.648-3.672-0.937
	c0-0.217,0-0.504,0-0.721c-0.36-0.216-0.72-0.432-1.08-0.575c-3.96-20.017,2.52-38.017,11.952-55.656
	c0.72-0.72,5.112-10.296,6.552-14.328c1.512-2.808,2.52-4.248,2.808-7.344c1.44-0.576,3.528-0.936,3.96-2.52
	c4.536-0.289,10.584-2.881,15.048-4.104c2.952,12.384,20.735,23.977,35.855,23.256c26.425-1.296,35.425-19.729,37.801-22.464
	c0.936,1.872,1.944,3.888,2.88,5.832c0.288,0,0.504,0,0.792,0c0.216,1.152,4.248,11.52,5.256,12.528
	c4.392,17.928,11.592,38.231,6.264,56.952c-2.88,4.248-4.535,4.176-8.999,2.88c0-0.216,0-0.504,0-0.721
	c-4.248-0.432-7.272-7.92-11.017-8.783c0-0.288,0-0.504,0-0.792c-1.584-0.792-5.688-3.312-6.408-4.393
	c-16.56-8.496-36-11.088-53.712-4.607c-5.76,2.951-5.76,2.951-9.792,4.464c-4.536,3.312-14.832,7.128-17.424,11.952
	c-3.6,2.52-10.44,8.783-14.112,9.144c-0.144,0.288-0.216,0.575-0.36,0.937C267.62,697.389,266.756,697.389,265.892,697.389
	L265.892,697.389L265.892,697.389L265.892,697.389z"/>
<path fill-rule="evenodd" clip-rule="evenodd" fill="#FF0000" d="M304.772,598.748v-0.072v-7.128
	c2.952-16.991,28.8-19.8,46.44-17.279c12.601,3.312,19.656,5.328,22.032,11.663c8.352,22.249-18.648,39.096-35.496,41.473
	C320.828,629.708,307.508,616.676,304.772,598.748L304.772,598.748L304.772,598.748L304.772,598.748L304.772,598.748z
	 M329.252,590.107h45.145H329.252z"/>
<path fill-rule="evenodd" clip-rule="evenodd" fill="#FF0000" d="M329.252,590.107h45.145c3.743,20.161-20.881,35.064-36.648,37.297
	c-16.92,2.304-30.24-10.729-32.976-28.656l0,0l0,0l0,0c-3.672-23.4,26.568-27.288,46.44-24.479
	c12.601,3.312,19.656,5.328,22.032,11.663c0.504,1.368,0.936,2.809,1.152,4.176H329.252z"/>
<path fill-rule="evenodd" clip-rule="evenodd" fill="#FF0101" d="M329.252,590.107h45.145c3.743,20.161-20.881,35.064-36.648,37.297
	c-16.92,2.304-30.24-10.729-32.976-28.656l0,0l0,0l0,0c-3.672-23.4,26.568-27.288,46.44-24.479
	c12.601,3.312,19.656,5.328,22.032,11.663c0.504,1.368,0.936,2.809,1.152,4.176H329.252z"/>
<path fill-rule="evenodd" clip-rule="evenodd" fill="#FF0202" d="M329.252,590.107h45.145c3.743,20.161-20.881,35.064-36.648,37.297
	c-16.92,2.304-30.24-10.729-32.976-28.656l0,0l0,0l0,0c-3.672-23.4,26.568-27.288,46.44-24.479
	c12.601,3.312,19.656,5.328,22.032,11.663c0.504,1.368,0.936,2.809,1.152,4.176H329.252z"/>
<path fill-rule="evenodd" clip-rule="evenodd" fill="#FF0304" d="M329.252,590.107h45.145c3.743,20.161-20.881,35.064-36.648,37.297
	c-16.92,2.304-30.24-10.729-32.976-28.656l0,0l0,0l0,0c-3.672-23.4,26.568-27.288,46.44-24.479
	c12.601,3.312,19.656,5.328,22.032,11.663c0.504,1.368,0.936,2.809,1.152,4.176H329.252z"/>
<path fill-rule="evenodd" clip-rule="evenodd" fill="#FF0505" d="M329.252,590.107h45.145c3.743,20.161-20.881,35.064-36.648,37.297
	c-16.92,2.304-30.24-10.729-32.976-28.656l0,0l0,0l0,0c-3.672-23.4,26.568-27.288,46.44-24.479
	c12.601,3.312,19.656,5.328,22.032,11.663c0.504,1.368,0.936,2.809,1.152,4.176H329.252z"/>
<path fill-rule="evenodd" clip-rule="evenodd" fill="#FF0607" d="M329.252,590.107h45.145c3.743,20.161-20.881,35.064-36.648,37.297
	c-16.92,2.304-30.24-10.729-32.976-28.656l0,0l0,0l0,0c-3.672-23.4,26.568-27.288,46.44-24.479
	c12.601,3.312,19.656,5.328,22.032,11.663c0.504,1.368,0.936,2.809,1.152,4.176H329.252z"/>
<path fill-rule="evenodd" clip-rule="evenodd" fill="#FF0708" d="M329.252,590.107h45.145c3.743,20.161-20.881,35.064-36.648,37.297
	c-16.92,2.304-30.24-10.729-32.976-28.656l0,0l0,0l0,0c-3.672-23.4,26.568-27.288,46.44-24.479
	c12.601,3.312,19.656,5.328,22.032,11.663c0.504,1.368,0.936,2.809,1.152,4.176H329.252z"/>
<path fill-rule="evenodd" clip-rule="evenodd" fill="#FF080A" d="M329.252,590.107h45.145c3.743,20.161-20.881,35.064-36.648,37.297
	c-16.92,2.304-30.24-10.729-32.976-28.656l0,0l0,0l0,0c-3.672-23.4,26.568-27.288,46.44-24.479
	c12.601,3.312,19.656,5.328,22.032,11.663c0.504,1.368,0.936,2.809,1.152,4.176H329.252z"/>
<path fill-rule="evenodd" clip-rule="evenodd" fill="#FF0A0B" d="M329.252,590.107h45.145c3.743,20.161-20.881,35.064-36.648,37.297
	c-16.92,2.304-30.24-10.729-32.976-28.656l0,0l0,0l0,0c-3.672-23.4,26.568-27.288,46.44-24.479
	c12.601,3.312,19.656,5.328,22.032,11.663c0.504,1.368,0.936,2.809,1.152,4.176H329.252z"/>
<path fill-rule="evenodd" clip-rule="evenodd" fill="#FF0B0C" d="M329.252,590.107h45.145c3.743,20.161-20.881,35.064-36.648,37.297
	c-16.92,2.304-30.24-10.729-32.976-28.656l0,0l0,0l0,0c-3.672-23.4,26.568-27.288,46.44-24.479
	c12.601,3.312,19.656,5.328,22.032,11.663c0.504,1.368,0.936,2.809,1.152,4.176H329.252z"/>
<path fill-rule="evenodd" clip-rule="evenodd" fill="#FF0C0E" d="M329.252,590.107h45.145c3.743,20.161-20.881,35.064-36.648,37.297
	c-16.92,2.304-30.24-10.729-32.976-28.656l0,0l0,0l0,0c-3.672-23.4,26.568-27.288,46.44-24.479
	c12.601,3.312,19.656,5.328,22.032,11.663c0.504,1.368,0.936,2.809,1.152,4.176H329.252z"/>
<path fill-rule="evenodd" clip-rule="evenodd" fill="#FF0E0F" d="M329.252,590.107h45.145c3.743,20.161-20.881,35.064-36.648,37.297
	c-16.92,2.304-30.24-10.729-32.976-28.656l0,0l0,0l0,0c-3.672-23.4,26.568-27.288,46.44-24.479
	c12.601,3.312,19.656,5.328,22.032,11.663c0.504,1.368,0.936,2.809,1.152,4.176H329.252z"/>
<path fill-rule="evenodd" clip-rule="evenodd" fill="#FF0F11" d="M329.252,590.107h45.145c3.743,20.161-20.881,35.064-36.648,37.297
	c-16.92,2.304-30.24-10.729-32.976-28.656l0,0l0,0l0,0c-3.672-23.4,26.568-27.288,46.44-24.479
	c12.601,3.312,19.656,5.328,22.032,11.663c0.504,1.368,0.936,2.809,1.152,4.176H329.252z"/>
<path fill-rule="evenodd" clip-rule="evenodd" fill="#FF1012" d="M329.252,590.107h45.145c3.743,20.161-20.881,35.064-36.648,37.297
	c-16.92,2.304-30.24-10.729-32.976-28.656l0,0l0,0l0,0c-3.672-23.4,26.568-27.288,46.44-24.479
	c12.601,3.312,19.656,5.328,22.032,11.663c0.504,1.368,0.936,2.809,1.152,4.176H329.252z"/>
<path fill-rule="evenodd" clip-rule="evenodd" fill="#FF1114" d="M329.252,590.107h45.145c3.743,20.161-20.881,35.064-36.648,37.297
	c-16.92,2.304-30.24-10.729-32.976-28.656l0,0l0,0l0,0c-3.672-23.4,26.568-27.288,46.44-24.479
	c12.601,3.312,19.656,5.328,22.032,11.663c0.504,1.368,0.936,2.809,1.152,4.176H329.252z"/>
<path fill-rule="evenodd" clip-rule="evenodd" fill="#FF1315" d="M329.252,590.107h45.145c3.743,20.161-20.881,35.064-36.648,37.297
	c-16.92,2.304-30.24-10.729-32.976-28.656l0,0l0,0l0,0c-3.672-23.4,26.568-27.288,46.44-24.479
	c12.601,3.312,19.656,5.328,22.032,11.663c0.504,1.368,0.936,2.809,1.152,4.176H329.252z"/>
<path fill-rule="evenodd" clip-rule="evenodd" fill="#FF1416" d="M329.252,590.107h45.145c3.743,20.161-20.881,35.064-36.648,37.297
	c-16.92,2.304-30.24-10.729-32.976-28.656l0,0l0,0l0,0c-3.672-23.4,26.568-27.288,46.44-24.479
	c12.601,3.312,19.656,5.328,22.032,11.663c0.504,1.368,0.936,2.809,1.152,4.176H329.252z"/>
<path fill-rule="evenodd" clip-rule="evenodd" fill="#FF1518" d="M329.252,590.107h45.145c3.743,20.161-20.881,35.064-36.648,37.297
	c-16.92,2.304-30.24-10.729-32.976-28.656l0,0l0,0l0,0c-3.672-23.4,26.568-27.288,46.44-24.479
	c12.601,3.312,19.656,5.328,22.032,11.663c0.504,1.368,0.936,2.809,1.152,4.176H329.252z"/>
<path fill-rule="evenodd" clip-rule="evenodd" fill="#FF1619" d="M329.252,590.107h45.145c3.743,20.161-20.881,35.064-36.648,37.297
	c-16.92,2.304-30.24-10.729-32.976-28.656l0,0l0,0l0,0c-3.672-23.4,26.568-27.288,46.44-24.479
	c12.601,3.312,19.656,5.328,22.032,11.663c0.504,1.368,0.936,2.809,1.152,4.176H329.252z"/>
<path fill-rule="evenodd" clip-rule="evenodd" fill="#FF181B" d="M329.252,590.107h45.145c3.743,20.161-20.881,35.064-36.648,37.297
	c-16.92,2.304-30.24-10.729-32.976-28.656l0,0l0,0l0,0c-3.672-23.4,26.568-27.288,46.44-24.479
	c12.601,3.312,19.656,5.328,22.032,11.663c0.504,1.368,0.936,2.809,1.152,4.176H329.252z"/>
<path fill-rule="evenodd" clip-rule="evenodd" fill="#FF191C" d="M329.252,590.107h45.145c3.743,20.161-20.881,35.064-36.648,37.297
	c-16.92,2.304-30.24-10.729-32.976-28.656l0,0l0,0l0,0c-3.672-23.4,26.568-27.288,46.44-24.479
	c12.601,3.312,19.656,5.328,22.032,11.663c0.504,1.368,0.936,2.809,1.152,4.176H329.252z"/>
<path fill-rule="evenodd" clip-rule="evenodd" fill="#FF1A1E" d="M329.252,590.107h45.145c3.743,20.161-20.881,35.064-36.648,37.297
	c-16.92,2.304-30.24-10.729-32.976-28.656l0,0l0,0l0,0c-3.672-23.4,26.568-27.288,46.44-24.479
	c12.601,3.312,19.656,5.328,22.032,11.663c0.504,1.368,0.936,2.809,1.152,4.176H329.252z"/>
<path fill-rule="evenodd" clip-rule="evenodd" fill="#FF1C1F" d="M329.252,590.107h45.145c3.743,20.161-20.881,35.064-36.648,37.297
	c-16.92,2.304-30.24-10.729-32.976-28.656l0,0l0,0l0,0c-3.672-23.4,26.568-27.288,46.44-24.479
	c12.601,3.312,19.656,5.328,22.032,11.663c0.504,1.368,0.936,2.809,1.152,4.176H329.252z"/>
<path fill-rule="evenodd" clip-rule="evenodd" fill="#FF1D21" d="M329.252,590.107h45.145c3.743,20.161-20.881,35.064-36.648,37.297
	c-16.92,2.304-30.24-10.729-32.976-28.656l0,0l0,0l0,0c-3.672-23.4,26.568-27.288,46.44-24.479
	c12.601,3.312,19.656,5.328,22.032,11.663c0.504,1.368,0.936,2.809,1.152,4.176H329.252z"/>
<path fill-rule="evenodd" clip-rule="evenodd" fill="#FF1E22" d="M329.252,590.107h45.145c3.743,20.161-20.881,35.064-36.648,37.297
	c-16.92,2.304-30.24-10.729-32.976-28.656l0,0l0,0l0,0c-3.672-23.4,26.568-27.288,46.44-24.479
	c12.601,3.312,19.656,5.328,22.032,11.663c0.504,1.368,0.936,2.809,1.152,4.176H329.252z"/>
<path fill-rule="evenodd" clip-rule="evenodd" fill="#FF1F23" d="M329.252,590.107h45.145c3.743,20.161-20.881,35.064-36.648,37.297
	c-16.92,2.304-30.24-10.729-32.976-28.656l0,0l0,0l0,0c-3.672-23.4,26.568-27.288,46.44-24.479
	c12.601,3.312,19.656,5.328,22.032,11.663c0.504,1.368,0.936,2.809,1.152,4.176H329.252z"/>
<path fill-rule="evenodd" clip-rule="evenodd" fill="#FF2125" d="M329.252,590.107h45.145c3.743,20.161-20.881,35.064-36.648,37.297
	c-16.92,2.304-30.24-10.729-32.976-28.656l0,0l0,0l0,0c-3.672-23.4,26.568-27.288,46.44-24.479
	c12.601,3.312,19.656,5.328,22.032,11.663c0.504,1.368,0.936,2.809,1.152,4.176H329.252z"/>
<path fill-rule="evenodd" clip-rule="evenodd" fill="#FF2226" d="M329.252,590.107h45.145c3.743,20.161-20.881,35.064-36.648,37.297
	c-16.92,2.304-30.24-10.729-32.976-28.656l0,0l0,0l0,0c-3.672-23.4,26.568-27.288,46.44-24.479
	c12.601,3.312,19.656,5.328,22.032,11.663c0.504,1.368,0.936,2.809,1.152,4.176H329.252z"/>
<path fill-rule="evenodd" clip-rule="evenodd" fill="#FF2328" d="M329.252,590.107h45.145c3.743,20.161-20.881,35.064-36.648,37.297
	c-16.92,2.304-30.24-10.729-32.976-28.656l0,0l0,0l0,0c-3.672-23.4,26.568-27.288,46.44-24.479
	c12.601,3.312,19.656,5.328,22.032,11.663c0.504,1.368,0.936,2.809,1.152,4.176H329.252z"/>
<path fill-rule="evenodd" clip-rule="evenodd" fill="#FF2429" d="M329.252,590.107h45.145c3.743,20.161-20.881,35.064-36.648,37.297
	c-16.92,2.304-30.24-10.729-32.976-28.656l0,0l0,0l0,0c-3.672-23.4,26.568-27.288,46.44-24.479
	c12.601,3.312,19.656,5.328,22.032,11.663c0.504,1.368,0.936,2.809,1.152,4.176H329.252z"/>
<path fill-rule="evenodd" clip-rule="evenodd" fill="#FF262B" d="M329.252,590.107h45.145c3.743,20.161-20.881,35.064-36.648,37.297
	c-16.92,2.304-30.24-10.729-32.976-28.656l0,0l0,0l0,0c-3.672-23.4,26.568-27.288,46.44-24.479
	c12.601,3.312,19.656,5.328,22.032,11.663c0.504,1.368,0.936,2.809,1.152,4.176H329.252z"/>
<path fill-rule="evenodd" clip-rule="evenodd" fill="#FF272C" d="M329.252,590.107h45.145c3.743,20.161-20.881,35.064-36.648,37.297
	c-16.92,2.304-30.24-10.729-32.976-28.656l0,0l0,0l0,0c-3.672-23.4,26.568-27.288,46.44-24.479
	c12.601,3.312,19.656,5.328,22.032,11.663c0.504,1.368,0.936,2.809,1.152,4.176H329.252z"/>
<path fill-rule="evenodd" clip-rule="evenodd" fill="#FF282D" d="M329.252,590.107h45.145c3.743,20.161-20.881,35.064-36.648,37.297
	c-16.92,2.304-30.24-10.729-32.976-28.656l0,0l0,0l0,0c-3.672-23.4,26.568-27.288,46.44-24.479
	c12.601,3.312,19.656,5.328,22.032,11.663c0.504,1.368,0.936,2.809,1.152,4.176H329.252z"/>
<path fill-rule="evenodd" clip-rule="evenodd" fill="#FF2A2F" d="M329.252,590.107h45.145c3.743,20.161-20.881,35.064-36.648,37.297
	c-16.92,2.304-30.24-10.729-32.976-28.656l0,0l0,0l0,0c-3.672-23.4,26.568-27.288,46.44-24.479
	c12.601,3.312,19.656,5.328,22.032,11.663c0.504,1.368,0.936,2.809,1.152,4.176H329.252z"/>
<path fill-rule="evenodd" clip-rule="evenodd" fill="#FF2B30" d="M329.252,590.107h45.145c3.743,20.161-20.881,35.064-36.648,37.297
	c-16.92,2.304-30.24-10.729-32.976-28.656l0,0l0,0l0,0c-3.672-23.4,26.568-27.288,46.44-24.479
	c12.601,3.312,19.656,5.328,22.032,11.663c0.504,1.368,0.936,2.809,1.152,4.176H329.252z"/>
<path fill-rule="evenodd" clip-rule="evenodd" fill="#FF2C32" d="M329.252,590.107h45.145c3.743,20.161-20.881,35.064-36.648,37.297
	c-16.92,2.304-30.24-10.729-32.976-28.656l0,0l0,0l0,0c-3.672-23.4,26.568-27.288,46.44-24.479
	c12.601,3.312,19.656,5.328,22.032,11.663c0.504,1.368,0.936,2.809,1.152,4.176H329.252z"/>
<path fill-rule="evenodd" clip-rule="evenodd" fill="#FF2D33" d="M329.252,590.107h45.145c3.743,20.161-20.881,35.064-36.648,37.297
	c-16.92,2.304-30.24-10.729-32.976-28.656l0,0l0,0l0,0c-3.672-23.4,26.568-27.288,46.44-24.479
	c12.601,3.312,19.656,5.328,22.032,11.663c0.504,1.368,0.936,2.809,1.152,4.176H329.252z"/>
<path fill-rule="evenodd" clip-rule="evenodd" fill="#FF2F35" d="M329.252,590.107h45.145c3.743,20.161-20.881,35.064-36.648,37.297
	c-16.92,2.304-30.24-10.729-32.976-28.656l0,0l0,0l0,0c-3.672-23.4,26.568-27.288,46.44-24.479
	c12.601,3.312,19.656,5.328,22.032,11.663c0.504,1.368,0.936,2.809,1.152,4.176H329.252z"/>
<path fill-rule="evenodd" clip-rule="evenodd" fill="#FF3036" d="M329.252,590.107h45.145c3.743,20.161-20.881,35.064-36.648,37.297
	c-16.92,2.304-30.24-10.729-32.976-28.656l0,0l0,0l0,0c-3.672-23.4,26.568-27.288,46.44-24.479
	c12.601,3.312,19.656,5.328,22.032,11.663c0.504,1.368,0.936,2.809,1.152,4.176H329.252z"/>
<path fill-rule="evenodd" clip-rule="evenodd" fill="#FF3138" d="M329.252,590.107h45.145c0.215,1.08,0.359,2.161,0.359,3.24
	c-0.216,3.168-0.72,6.264-1.584,9.217c-5.399,13.607-23.111,23.111-35.424,24.84c-16.92,2.304-30.24-10.729-32.976-28.656l0,0l0,0
	l0,0c-3.672-23.4,26.568-27.288,46.44-24.479c12.601,3.312,19.656,5.328,22.032,11.663c0.504,1.368,0.936,2.809,1.152,4.176H329.252
	z"/>
<path fill-rule="evenodd" clip-rule="evenodd" fill="#FF3239" d="M329.252,590.107h45.145l0,0c0-0.071,0-0.144,0-0.215
	c-0.289-1.296-0.648-2.665-1.152-3.961c-2.376-6.335-9.432-8.352-22.032-11.663c-19.872-2.809-50.112,1.079-46.44,24.479l0,0l0,0
	l0,0c2.736,17.928,16.056,30.96,32.976,28.656c11.232-1.585,27-9.576,33.768-21.385c1.873-4.968,2.881-10.296,2.881-15.912H329.252z
	"/>
<path fill-rule="evenodd" clip-rule="evenodd" fill="#FF343A" d="M329.252,590.107h44.641l0,0c0-0.863-0.073-1.728-0.073-2.52
	c-0.216-0.576-0.359-1.152-0.575-1.656c-2.376-6.335-9.432-8.352-22.032-11.663c-19.872-2.809-50.112,1.079-46.44,24.479l0,0l0,0
	l0,0c2.736,17.928,16.056,30.96,32.976,28.656c10.44-1.512,24.768-8.496,32.184-18.937c2.521-5.615,3.961-11.808,3.961-18.36
	H329.252z"/>
<path fill-rule="evenodd" clip-rule="evenodd" fill="#FF353C" d="M329.252,590.107h44.137l0,0c0-1.511-0.073-3.023-0.217-4.464
	c-2.52-6.12-9.576-8.063-21.96-11.375c-19.872-2.809-50.112,1.079-46.44,24.479l0,0l0,0l0,0
	c2.736,17.928,16.056,30.96,32.976,28.656c9.72-1.368,22.896-7.561,30.6-16.92c3.24-6.12,5.041-13.032,5.041-20.377H329.252z"/>
<path fill-rule="evenodd" clip-rule="evenodd" fill="#FF363D" d="M329.252,590.107h43.632l0,0c0-2.016-0.144-3.96-0.432-5.903
	c-2.952-5.04-9.864-6.912-21.24-9.936c-19.872-2.809-50.112,1.079-46.44,24.479l0,0l0,0l0,0
	c2.736,17.928,16.056,30.96,32.976,28.656c9.145-1.297,21.168-6.84,29.017-15.12c3.888-6.479,6.119-14.112,6.119-22.177H329.252z"/>
<path fill-rule="evenodd" clip-rule="evenodd" fill="#FF383F" d="M329.252,590.107h43.057l0,0c0-2.376-0.145-4.607-0.504-6.912
	c-3.24-4.247-10.009-6.119-20.593-8.927c-19.872-2.809-50.112,1.079-46.44,24.479l0,0l0,0l0,0
	c2.736,17.928,16.056,30.96,32.976,28.656c8.496-1.224,19.584-6.12,27.432-13.536c4.536-6.769,7.129-14.976,7.129-23.761H329.252z"
	/>
<path fill-rule="evenodd" clip-rule="evenodd" fill="#FF3940" d="M329.252,590.107h42.553l0,0c0-2.592-0.217-5.184-0.648-7.631
	c-3.456-3.816-10.009-5.545-19.944-8.208c-19.872-2.809-50.112,1.079-46.44,24.479l0,0l0,0l0,0
	c2.736,17.928,16.056,30.96,32.976,28.656c7.92-1.152,18.071-5.4,25.704-11.952c5.256-7.128,8.353-15.841,8.353-25.345H329.252z"/>
<path fill-rule="evenodd" clip-rule="evenodd" fill="#FF3A42" d="M329.252,590.107H371.3l0,0c0-2.88-0.288-5.615-0.792-8.279
	c-3.6-3.312-9.936-5.04-19.296-7.56c-19.872-2.809-50.112,1.079-46.44,24.479l0,0l0,0l0,0c2.736,17.928,16.056,30.96,32.976,28.656
	c7.271-1.08,16.561-4.824,23.976-10.512c5.977-7.272,9.576-16.633,9.576-26.785H329.252z"/>
<path fill-rule="evenodd" clip-rule="evenodd" fill="#FF3B43" d="M329.252,590.107h41.544l0,0c0-3.023-0.36-5.976-0.936-8.855
	c-3.672-2.952-9.792-4.608-18.648-6.983c-19.872-2.809-50.112,1.079-46.44,24.479l0,0l0,0l0,0
	c2.736,17.928,16.056,30.96,32.976,28.656c6.695-0.937,14.976-4.177,22.031-9.145c6.841-7.416,11.017-17.279,11.017-28.152H329.252z
	"/>
<path fill-rule="evenodd" clip-rule="evenodd" fill="#FF3D44" d="M329.252,590.107h41.04l0,0c0-3.239-0.36-6.335-1.08-9.359
	c-3.744-2.664-9.647-4.248-18-6.479c-19.872-2.809-50.112,1.079-46.44,24.479l0,0l0,0l0,0c2.736,17.928,16.056,30.96,32.976,28.656
	c6.048-0.864,13.392-3.6,19.943-7.776c7.776-7.416,12.601-17.928,12.601-29.521H329.252z"/>
<path fill-rule="evenodd" clip-rule="evenodd" fill="#FF3E46" d="M329.252,590.107h40.536l0,0c0-3.384-0.432-6.623-1.224-9.792
	c-3.745-2.376-9.433-3.959-17.353-6.047c-19.872-2.809-50.112,1.079-46.44,24.479l0,0l0,0l0,0
	c2.736,17.928,16.056,30.96,32.976,28.656c5.328-0.793,11.736-3.024,17.712-6.408c8.784-7.416,14.328-18.504,14.328-30.889H329.252z
	"/>
<path fill-rule="evenodd" clip-rule="evenodd" fill="#FF3F47" d="M329.252,590.107h40.032l0,0c0-3.527-0.505-6.912-1.296-10.151
	c-3.816-2.232-9.288-3.672-16.776-5.688c-19.872-2.809-50.112,1.079-46.44,24.479l0,0l0,0l0,0
	c2.736,17.928,16.056,30.96,32.976,28.656c4.608-0.648,9.936-2.377,15.12-5.04c9.937-7.272,16.416-19.008,16.416-32.257H329.252z"/>
<path fill-rule="evenodd" clip-rule="evenodd" fill="#FF4149" d="M329.252,590.107h39.527l0,0c0-3.672-0.504-7.127-1.439-10.511
	c-3.744-2.017-9.071-3.457-16.128-5.328c-19.872-2.809-50.112,1.079-46.44,24.479l0,0l0,0l0,0
	c2.736,17.928,16.056,30.96,32.976,28.656c3.672-0.576,7.92-1.801,12.096-3.6c11.304-6.912,18.936-19.44,18.936-33.697H329.252z"/>
<path fill-rule="evenodd" clip-rule="evenodd" fill="#FF424A" d="M329.252,590.107h38.952l0,0c0-3.743-0.504-7.415-1.513-10.799
	c-3.672-1.873-8.783-3.24-15.479-5.04c-19.872-2.809-50.112,1.079-46.44,24.479l0,0l0,0l0,0
	c2.736,17.928,16.056,30.96,32.976,28.656c2.592-0.36,5.399-1.08,8.352-2.089c13.104-6.335,22.104-19.728,22.104-35.208H329.252z"/>
<path fill-rule="evenodd" clip-rule="evenodd" fill="#FF434C" d="M329.252,590.107H367.7l0,0c0-3.888-0.576-7.631-1.584-11.159
	c-3.673-1.656-8.568-3.024-14.904-4.68c-19.872-2.809-50.112,1.079-46.44,24.479l0,0l0,0l0,0
	c2.736,17.928,16.056,30.96,32.976,28.656c1.008-0.145,2.088-0.36,3.24-0.648c15.479-4.968,26.712-19.512,26.712-36.648H329.252z"/>
<path fill-rule="evenodd" clip-rule="evenodd" fill="#FF444D" d="M329.252,590.107h37.943l0,0c0-3.96-0.575-7.775-1.728-11.447
	c-3.6-1.513-8.279-2.808-14.256-4.392c-19.872-2.809-50.112,1.079-46.44,24.479l0,0l0,0l0,0
	c2.592,17.063,14.76,29.664,30.528,28.872c18.072-2.88,31.896-18.576,31.896-37.513H329.252z"/>
<path fill-rule="evenodd" clip-rule="evenodd" fill="#FF464E" d="M329.252,590.107h37.439l0,0c0-4.104-0.647-7.991-1.872-11.664
	c-3.455-1.439-7.991-2.663-13.607-4.175c-19.872-2.809-50.112,1.079-46.44,24.479l0,0l0,0l0,0
	c2.375,15.552,12.744,27.433,26.497,28.8c19.728-1.08,35.423-17.424,35.423-37.44H329.252z"/>
<path fill-rule="evenodd" clip-rule="evenodd" fill="#FF4750" d="M329.252,590.107h36.937l0,0c0-4.176-0.721-8.207-2.017-11.951
	c-3.384-1.296-7.632-2.448-12.96-3.888c-19.872-2.809-50.112,1.079-46.44,24.479l0,0l0,0l0,0
	c2.232,14.399,11.232,25.632,23.472,28.296c0.288,0,0.648,0,1.008,0c20.376,0,36.937-16.56,36.937-36.937H329.252z"/>
<path fill-rule="evenodd" clip-rule="evenodd" fill="#FF4851" d="M329.252,590.107h36.432l0,0c0-4.247-0.791-8.352-2.088-12.168
	c-3.312-1.224-7.416-2.304-12.384-3.671c-19.872-2.809-50.112,1.079-46.44,24.479l0,0l0,0l0,0
	c2.016,13.392,10.007,24.12,21.024,27.648c1.08,0.071,2.231,0.144,3.456,0.144c20.088,0,36.432-16.345,36.432-36.433H329.252z"/>
<path fill-rule="evenodd" clip-rule="evenodd" fill="#FF4953" d="M329.252,590.107h35.928l0,0c0-4.392-0.791-8.567-2.231-12.384
	c-3.169-1.151-7.056-2.231-11.736-3.455c-19.872-2.809-50.112,1.079-46.44,24.479l0,0l0,0l0,0c1.944,12.528,9,22.68,18.936,26.855
	c1.8,0.289,3.601,0.433,5.544,0.433c19.8,0,35.928-16.128,35.928-35.929H329.252z"/>
<path fill-rule="evenodd" clip-rule="evenodd" fill="#FF4B54" d="M329.252,590.107h35.352l0,0c0-4.464-0.791-8.711-2.304-12.6
	c-3.024-1.08-6.696-2.088-11.088-3.239c-19.872-2.809-50.112,1.079-46.44,24.479l0,0l0,0l0,0c1.8,11.736,8.136,21.384,17.064,25.992
	c2.376,0.504,4.824,0.792,7.416,0.792c19.513,0,35.352-15.84,35.352-35.425H329.252z"/>
<path fill-rule="evenodd" clip-rule="evenodd" fill="#FF4C56" d="M329.252,590.107H364.1l0,0c0-4.535-0.864-8.855-2.447-12.815
	c-2.88-1.008-6.337-1.944-10.44-3.023c-19.872-2.809-50.112,1.079-46.44,24.479l0,0l0,0l0,0c1.728,11.017,7.344,20.16,15.409,25.057
	c2.88,0.792,5.903,1.223,9.071,1.223c19.225,0,34.848-15.623,34.848-34.92H329.252z"/>
<path fill-rule="evenodd" clip-rule="evenodd" fill="#FF4D57" d="M329.252,590.107h34.344l0,0c0-4.607-0.864-9-2.52-13.031
	c-2.808-0.937-6.12-1.8-9.864-2.808c-19.872-2.809-50.112,1.079-46.44,24.479l0,0l0,0l0,0c1.656,10.296,6.696,19.008,13.896,24.12
	c3.312,1.08,6.912,1.655,10.584,1.655c18.937,0,34.344-15.407,34.344-34.416H329.252z"/>
<path fill-rule="evenodd" clip-rule="evenodd" fill="#FF4F59" d="M329.252,590.107h33.84l0,0c0-4.68-0.936-9.215-2.664-13.247
	c-2.663-0.864-5.688-1.656-9.216-2.592c-19.872-2.809-50.112,1.079-46.44,24.479l0,0l0,0l0,0c1.512,9.648,6.047,17.928,12.6,23.112
	c3.672,1.367,7.632,2.159,11.88,2.159c18.648,0,33.84-15.191,33.84-33.912H329.252z"/>
<path fill-rule="evenodd" clip-rule="evenodd" fill="#FF505A" d="M329.252,590.107h33.336l0,0c0-4.823-1.008-9.359-2.809-13.464
	c-2.52-0.72-5.327-1.512-8.567-2.375c-19.872-2.809-50.112,1.079-46.44,24.479l0,0l0,0l0,0c1.44,9,5.472,16.849,11.304,22.032
	c4.031,1.728,8.496,2.663,13.176,2.663c18.359,0,33.336-14.903,33.336-33.336H329.252z"/>
<path fill-rule="evenodd" clip-rule="evenodd" fill="#FF515B" d="M329.252,590.107h32.832l0,0c0-4.896-1.08-9.504-2.952-13.68
	c-2.376-0.647-4.968-1.367-7.92-2.159c-19.872-2.809-50.112,1.079-46.44,24.479l0,0l0,0l0,0c1.296,8.424,4.896,15.768,10.152,20.952
	c4.32,2.088,9.145,3.239,14.328,3.239c18.072,0,32.832-14.688,32.832-32.832H329.252z"/>
<path fill-rule="evenodd" clip-rule="evenodd" fill="#FF525D" d="M329.252,590.107h32.328l0,0c0-4.968-1.152-9.647-3.096-13.823
	c-2.232-0.648-4.608-1.296-7.272-2.016c-19.872-2.809-50.112,1.079-46.44,24.479l0,0l0,0l0,0c1.224,7.775,4.392,14.688,9,19.8
	c4.607,2.448,9.863,3.888,15.479,3.888c17.784,0,32.328-14.472,32.328-32.328H329.252z"/>
<path fill-rule="evenodd" clip-rule="evenodd" fill="#FF545E" d="M329.252,590.107h31.824l0,0c0-5.039-1.224-9.792-3.312-14.039
	c-1.945-0.576-4.177-1.152-6.553-1.8c-19.872-2.809-50.112,1.079-46.44,24.479l0,0l0,0l0,0c1.152,7.2,3.888,13.68,7.993,18.648
	c4.823,2.88,10.439,4.535,16.487,4.535c17.567,0,31.824-14.256,31.824-31.824H329.252z"/>
<path fill-rule="evenodd" clip-rule="evenodd" fill="#FF5560" d="M329.252,590.107H360.5l0,0c0-5.111-1.225-9.936-3.384-14.255
	c-1.801-0.505-3.744-1.009-5.904-1.584c-19.872-2.809-50.112,1.079-46.44,24.479l0,0l0,0l0,0c1.08,6.624,3.457,12.6,7.056,17.424
	c4.968,3.312,10.944,5.256,17.424,5.256c17.28,0,31.248-14.039,31.248-31.32H329.252z"/>
<path fill-rule="evenodd" clip-rule="evenodd" fill="#FF5661" d="M329.252,590.107h30.744l0,0c0-5.184-1.296-10.08-3.528-14.399
	c-1.655-0.432-3.384-0.936-5.256-1.439c-19.872-2.809-50.112,1.079-46.44,24.479l0,0l0,0l0,0c0.936,6.048,3.024,11.592,6.121,16.128
	c5.111,3.816,11.447,6.048,18.359,6.048c16.992,0,30.744-13.824,30.744-30.816H329.252z"/>
<path fill-rule="evenodd" clip-rule="evenodd" fill="#FF5763" d="M329.252,590.107h30.24l0,0c0-5.327-1.368-10.296-3.744-14.615
	c-1.439-0.36-2.88-0.792-4.536-1.224c-19.872-2.809-50.112,1.079-46.44,24.479l0,0l0,0l0,0c0.864,5.472,2.664,10.512,5.328,14.832
	c5.185,4.248,11.881,6.84,19.152,6.84c16.704,0,30.24-13.608,30.24-30.312H329.252z"/>
<path fill-rule="evenodd" clip-rule="evenodd" fill="#FF5964" d="M329.252,590.107h29.736l0,0c0-5.399-1.44-10.439-3.961-14.76
	c-1.151-0.359-2.447-0.72-3.815-1.079c-19.872-2.809-50.112,1.079-46.44,24.479l0,0l0,0l0,0c0.792,4.896,2.304,9.504,4.463,13.464
	c5.329,4.752,12.312,7.632,20.017,7.632c16.416,0,29.736-13.32,29.736-29.736H329.252z"/>
<path fill-rule="evenodd" clip-rule="evenodd" fill="#FF5A65" d="M329.252,590.107h29.232l0,0c0-5.472-1.512-10.584-4.104-14.976
	c-1.008-0.288-2.088-0.575-3.168-0.863c-19.872-2.809-50.112,1.079-46.44,24.479l0,0l0,0l0,0c0.72,4.32,1.944,8.424,3.744,12.024
	c5.328,5.327,12.601,8.567,20.736,8.567c16.128,0,29.232-13.104,29.232-29.232H329.252z"/>
<path fill-rule="evenodd" clip-rule="evenodd" fill="#FF5B67" d="M329.252,590.107h28.729l0,0c0-5.543-1.584-10.799-4.32-15.191
	c-0.792-0.216-1.584-0.432-2.448-0.647c-19.872-2.809-50.112,1.079-46.44,24.479l0,0l0,0l0,0c0.576,3.744,1.656,7.271,3.024,10.512
	c5.256,5.904,12.888,9.576,21.456,9.576c15.84,0,28.729-12.888,28.729-28.729H329.252z"/>
<path fill-rule="evenodd" clip-rule="evenodd" fill="#FF5D68" d="M329.252,590.107h28.225l0,0c0-5.688-1.729-10.943-4.608-15.335
	c-0.504-0.145-1.08-0.288-1.656-0.504c-19.872-2.809-50.112,1.079-46.44,24.479l0,0l0,0l0,0c0.504,3.168,1.296,6.12,2.375,8.928
	c5.185,6.48,13.104,10.656,22.104,10.656c15.553,0,28.225-12.672,28.225-28.225H329.252z"/>
<path fill-rule="evenodd" clip-rule="evenodd" fill="#FF5E6A" d="M329.252,590.107h27.721l0,0c0-5.76-1.801-11.159-4.825-15.551
	c-0.287-0.072-0.575-0.145-0.936-0.288c-19.872-2.809-50.112,1.079-46.44,24.479l0,0l0,0l0,0c0.432,2.521,1.008,4.968,1.728,7.2
	c5.04,7.199,13.319,11.88,22.752,11.88c15.264,0,27.721-12.456,27.721-27.721H329.252z"/>
<path fill-rule="evenodd" clip-rule="evenodd" fill="#FF5F6B" d="M329.252,590.107h27.145l0,0c0-5.903-1.873-11.303-5.04-15.768
	c0,0-0.072,0-0.145-0.071c-19.872-2.809-50.112,1.079-46.44,24.479l0,0l0,0l0,0c0.288,1.872,0.72,3.672,1.224,5.399
	c4.68,7.921,13.319,13.177,23.256,13.177c14.977,0,27.145-12.168,27.145-27.217H329.252z"/>
<path fill-rule="evenodd" clip-rule="evenodd" fill="#FF606D" d="M329.252,590.107h26.641l0,0c0-5.976-1.944-11.447-5.257-15.912
	c-19.871-2.663-49.536,1.44-45.864,24.553l0,0l0,0l0,0c0.216,1.152,0.432,2.232,0.648,3.384c4.32,8.712,13.393,14.688,23.832,14.688
	c14.688,0,26.641-11.951,26.641-26.712H329.252z"/>
<path fill-rule="evenodd" clip-rule="evenodd" fill="#FF626E" d="M329.252,590.107h26.137l0,0c0-6.047-2.017-11.592-5.4-15.983
	c-19.944-2.521-48.816,1.729-45.216,24.624l0,0l0,0l0,0c0.072,0.359,0.144,0.648,0.144,1.008c3.815,9.648,13.248,16.56,24.336,16.56
	c14.4,0,26.137-11.735,26.137-26.208H329.252z"/>
<path fill-rule="evenodd" clip-rule="evenodd" fill="#FF6370" d="M329.252,590.107h25.632l0,0c0-6.047-2.088-11.664-5.688-16.056
	c-19.367-2.232-46.511,1.872-44.639,22.968c2.952,10.8,12.887,18.721,24.696,18.721c14.112,0,25.632-11.448,25.632-25.633H329.252z"
	/>
<path fill-rule="evenodd" clip-rule="evenodd" fill="#FF6572" d="M329.252,590.107h25.128l0,0c0-6.119-2.232-11.808-5.903-16.127
	c-18.433-1.944-43.417,1.872-43.993,20.304c2.016,11.88,12.24,20.951,24.768,20.951c13.824,0,25.128-11.231,25.128-25.128H329.252z"
	/>
<path fill-rule="evenodd" clip-rule="evenodd" fill="#FF6774" d="M329.252,590.107h24.624l0,0c0-6.191-2.304-11.88-6.12-16.199
	c-17.496-1.728-40.536,1.8-43.056,17.928c0.936,12.816,11.52,22.896,24.552,22.896c13.536,0,24.624-11.016,24.624-24.624H329.252z"
	/>
<path fill-rule="evenodd" clip-rule="evenodd" fill="#FF6976" d="M329.252,590.107h24.12l0,0c0-6.264-2.448-12.023-6.336-16.271
	c-16.704-1.512-37.872,1.8-41.904,15.983c0,0.073,0,0.217,0,0.288c0,13.32,10.8,24.12,24.12,24.12c13.248,0,24.12-10.8,24.12-24.12
	H329.252z"/>
<path fill-rule="evenodd" clip-rule="evenodd" fill="#FF6B79" d="M329.252,590.107h23.544l0,0c0-6.335-2.448-12.096-6.552-16.343
	c-15.841-1.225-35.425,1.8-40.464,14.327c-0.072,0.72-0.072,1.368-0.072,2.016c0,13.032,10.439,23.616,23.544,23.616
	c13.032,0,23.544-10.584,23.544-23.616H329.252z"/>
<path fill-rule="evenodd" clip-rule="evenodd" fill="#FF6D7B" d="M329.252,590.107h23.04l0,0c0-6.407-2.592-12.239-6.84-16.415
	c-15.049-1.008-33.192,1.8-39.024,12.96c-0.144,1.152-0.216,2.304-0.216,3.455c0,12.745,10.224,23.112,23.04,23.112
	c12.744,0,23.04-10.367,23.04-23.112H329.252z"/>
<path fill-rule="evenodd" clip-rule="evenodd" fill="#FF6F7D" d="M329.252,590.107h22.536l0,0c0-6.479-2.736-12.312-7.128-16.487
	c-14.257-0.792-31.032,1.872-37.513,11.736c-0.359,1.512-0.503,3.096-0.503,4.751c0,12.457,10.08,22.608,22.608,22.608
	c12.456,0,22.536-10.151,22.536-22.608H329.252z"/>
<path fill-rule="evenodd" clip-rule="evenodd" fill="#FF7180" d="M329.252,590.107h22.032l0,0c0-6.551-2.881-12.455-7.416-16.487
	c-13.536-0.72-29.089,1.872-35.929,10.656c-0.504,1.871-0.792,3.815-0.792,5.831c0,12.169,9.864,22.104,22.104,22.104
	c12.168,0,22.032-9.936,22.032-22.104H329.252z"/>
<path fill-rule="evenodd" clip-rule="evenodd" fill="#FF7382" d="M329.252,590.107h21.527l0,0c0-6.623-3.023-12.6-7.703-16.56
	c-12.888-0.504-27.288,1.872-34.345,9.721c-0.72,2.159-1.079,4.463-1.079,6.839c0,11.881,9.647,21.528,21.6,21.528
	c11.88,0,21.527-9.647,21.527-21.528H329.252z"/>
<path fill-rule="evenodd" clip-rule="evenodd" fill="#FF7584" d="M329.252,590.107h21.023l0,0c0-6.695-3.168-12.743-8.063-16.56
	c-12.096-0.36-25.416,1.872-32.544,8.784c-1.008,2.448-1.512,5.04-1.512,7.775c0,11.593,9.432,21.024,21.096,21.024
	c11.592,0,21.023-9.432,21.023-21.024H329.252z"/>
<path fill-rule="evenodd" clip-rule="evenodd" fill="#FF7887" d="M329.252,590.107h20.521l0,0c0-6.839-3.312-12.888-8.497-16.631
	c-11.303-0.145-23.544,1.943-30.743,8.063c-1.152,2.592-1.872,5.472-1.872,8.567c0,11.305,9.216,20.521,20.592,20.521
	c11.305,0,20.521-9.216,20.521-20.521H329.252z"/>
<path fill-rule="evenodd" clip-rule="evenodd" fill="#FF7A89" d="M329.252,590.107h20.017l0,0c0-6.912-3.528-13.031-8.856-16.631
	c-10.584-0.072-21.816,1.871-28.872,7.271c-1.513,2.809-2.376,5.976-2.376,9.359c0,11.017,9,20.017,20.088,20.017
	c11.017,0,20.017-9,20.017-20.017H329.252z"/>
<path fill-rule="evenodd" clip-rule="evenodd" fill="#FF7C8B" d="M329.252,590.107h19.439l0,0c0-6.983-3.672-13.176-9.215-16.631
	c-9.865,0.071-20.088,1.871-26.929,6.551c-1.8,2.953-2.808,6.408-2.808,10.08c0,10.729,8.712,19.513,19.512,19.513
	c10.729,0,19.439-8.784,19.439-19.513H329.252z"/>
<path fill-rule="evenodd" clip-rule="evenodd" fill="#FF7E8E" d="M329.252,590.107h18.937l0,0c0-7.127-3.889-13.319-9.721-16.631
	c-9.071,0.144-18.287,1.871-24.911,5.903c-2.089,3.024-3.312,6.696-3.312,10.728c0,10.513,8.496,19.009,19.008,19.009
	c10.439,0,18.937-8.496,18.937-19.009H329.252z"/>
<path fill-rule="evenodd" clip-rule="evenodd" fill="#FF8090" d="M329.252,590.107h18.432l0,0c0-7.271-4.176-13.535-10.295-16.56
	c-8.208,0.217-16.488,1.729-22.753,5.184c-2.447,3.097-3.888,7.057-3.888,11.376c0,10.225,8.279,18.504,18.504,18.504
	c10.151,0,18.432-8.279,18.432-18.504H329.252z"/>
<path fill-rule="evenodd" clip-rule="evenodd" fill="#FF8292" d="M329.252,590.107h17.929l0,0c0-7.415-4.465-13.823-10.945-16.56
	c-7.271,0.36-14.615,1.729-20.375,4.536c-2.88,3.168-4.608,7.416-4.608,12.023c0,9.937,8.063,17.929,18,17.929
	c9.864,0,17.929-7.992,17.929-17.929H329.252z"/>
<path fill-rule="evenodd" clip-rule="evenodd" fill="#FF8495" d="M329.252,590.107h17.424l0,0c0-7.631-4.896-14.111-11.664-16.487
	c-6.336,0.432-12.672,1.584-17.855,3.888c-3.312,3.168-5.4,7.632-5.4,12.6c0,9.648,7.848,17.425,17.496,17.425
	c9.576,0,17.424-7.776,17.424-17.425H329.252z"/>
<path fill-rule="evenodd" clip-rule="evenodd" fill="#FF8697" d="M329.252,590.107h16.92l0,0c0-7.848-5.328-14.472-12.6-16.343
	c-5.257,0.359-10.44,1.367-14.977,3.096c-3.816,3.096-6.336,7.92-6.336,13.247c0,9.36,7.633,16.92,16.992,16.92
	c9.288,0,16.92-7.56,16.92-16.92H329.252z"/>
<path fill-rule="evenodd" clip-rule="evenodd" fill="#FF8899" d="M329.252,590.107h16.416l0,0c0-8.135-5.977-14.903-13.752-16.199
	c-4.032,0.432-7.992,1.152-11.52,2.376c-4.608,2.88-7.632,7.992-7.632,13.823c0,9.073,7.416,16.416,16.487,16.416
	c9,0,16.416-7.343,16.416-16.416H329.252z"/>
<path fill-rule="evenodd" clip-rule="evenodd" fill="#FF8A9C" d="M329.252,590.107h15.912l0,0c0-8.711-7.057-15.768-15.696-15.912
	c-2.304,0.289-4.464,0.721-6.624,1.297c-5.615,2.447-9.575,8.064-9.575,14.615c0,8.785,7.128,15.912,15.983,15.912
	c8.784,0,15.912-7.127,15.912-15.912H329.252z"/>
<path fill-rule="evenodd" clip-rule="evenodd" fill="#FF8C9E" d="M329.252,590.107h15.336l0,0c0-8.496-6.84-15.407-15.336-15.407
	c-8.568,0-15.408,6.911-15.408,15.407s6.84,15.408,15.408,15.408c8.496,0,15.336-6.912,15.336-15.408H329.252z"/>
<path fill-rule="evenodd" clip-rule="evenodd" fill="#FF8EA0" d="M329.252,590.107h14.832l0,0c0-8.207-6.624-14.903-14.832-14.903
	c-8.279,0-14.904,6.696-14.904,14.903c0,8.208,6.625,14.904,14.904,14.904c8.208,0,14.832-6.696,14.832-14.904H329.252z"/>
<path fill-rule="evenodd" clip-rule="evenodd" fill="#FF90A2" d="M329.252,590.107h14.328l0,0c0-7.92-6.408-14.399-14.328-14.399
	c-7.992,0-14.399,6.479-14.399,14.399s6.407,14.4,14.399,14.4c7.92,0,14.328-6.48,14.328-14.4H329.252z"/>
<path fill-rule="evenodd" clip-rule="evenodd" fill="#FF92A5" d="M329.252,590.107h13.824l0,0c0-7.631-6.192-13.896-13.824-13.896
	c-7.704,0-13.896,6.265-13.896,13.896c0,7.633,6.191,13.824,13.896,13.824c7.632,0,13.824-6.191,13.824-13.824H329.252z"/>
<path fill-rule="evenodd" clip-rule="evenodd" fill="#FF94A7" d="M329.252,590.107h13.32l0,0c0-7.343-5.977-13.319-13.32-13.319
	c-7.416,0-13.392,5.977-13.392,13.319c0,7.345,5.976,13.32,13.392,13.32c7.344,0,13.32-5.976,13.32-13.32H329.252z"/>
<path fill-rule="evenodd" clip-rule="evenodd" fill="#FF96A9" d="M329.252,590.107h12.816l0,0c0-7.056-5.76-12.815-12.816-12.815
	c-7.128,0-12.888,5.76-12.888,12.815c0,7.057,5.76,12.816,12.888,12.816c7.057,0,12.816-5.76,12.816-12.816H329.252z"/>
<path fill-rule="evenodd" clip-rule="evenodd" fill="#FF98AC" d="M329.252,590.107h12.312l0,0c0-6.839-5.545-12.312-12.312-12.312
	c-6.84,0-12.384,5.473-12.384,12.312c0,6.769,5.544,12.312,12.384,12.312c6.768,0,12.312-5.544,12.312-12.312H329.252z"/>
<path fill-rule="evenodd" clip-rule="evenodd" fill="#FF9AAE" d="M329.252,590.107h11.736l0,0c0-6.551-5.257-11.808-11.736-11.808
	c-6.552,0-11.809,5.257-11.809,11.808c0,6.48,5.257,11.809,11.809,11.809c6.479,0,11.736-5.328,11.736-11.809H329.252z"/>
<path fill-rule="evenodd" clip-rule="evenodd" fill="#FF9DB0" d="M329.252,590.107h11.232l0,0c0-6.264-5.041-11.303-11.232-11.303
	c-6.264,0-11.304,5.039-11.304,11.303c0,6.265,5.04,11.305,11.304,11.305c6.191,0,11.232-5.04,11.232-11.305H329.252z"/>
<path fill-rule="evenodd" clip-rule="evenodd" fill="#FF9FB3" d="M329.252,590.107h10.729l0,0c0-5.976-4.824-10.799-10.729-10.799
	c-5.977,0-10.8,4.823-10.8,10.799c0,5.977,4.823,10.801,10.8,10.801c5.904,0,10.729-4.824,10.729-10.801H329.252z"/>
<path fill-rule="evenodd" clip-rule="evenodd" fill="#FFA1B5" d="M329.252,590.107h10.225l0,0c0-5.688-4.608-10.296-10.225-10.296
	c-5.688,0-10.296,4.608-10.296,10.296c0,5.688,4.608,10.297,10.296,10.297c5.616,0,10.225-4.608,10.225-10.297H329.252z"/>
<path fill-rule="evenodd" clip-rule="evenodd" fill="#FFA3B7" d="M329.252,590.107h9.721l0,0c0-5.399-4.393-9.792-9.721-9.792
	c-5.399,0-9.792,4.393-9.792,9.792c0,5.4,4.393,9.721,9.792,9.721c5.328,0,9.721-4.32,9.721-9.721H329.252z"/>
<path fill-rule="evenodd" clip-rule="evenodd" fill="#FFA5BA" d="M329.252,590.107h9.216l0,0c0-5.111-4.176-9.215-9.216-9.215
	c-5.112,0-9.288,4.104-9.288,9.215c0,5.112,4.176,9.217,9.288,9.217c5.04,0,9.216-4.104,9.216-9.217H329.252z"/>
<path fill-rule="evenodd" clip-rule="evenodd" fill="#FFA7BC" d="M329.252,590.107h8.712l0,0c0-4.823-3.96-8.711-8.712-8.711
	c-4.824,0-8.784,3.888-8.784,8.711c0,4.824,3.96,8.712,8.784,8.712c4.752,0,8.712-3.888,8.712-8.712H329.252z"/>
<path fill-rule="evenodd" clip-rule="evenodd" fill="#FFA9BE" d="M329.252,590.107h8.208l0,0c0-4.535-3.744-8.207-8.208-8.207
	c-4.536,0-8.279,3.672-8.279,8.207c0,4.536,3.743,8.208,8.279,8.208c4.464,0,8.208-3.672,8.208-8.208H329.252z"/>
<path fill-rule="evenodd" clip-rule="evenodd" fill="#FFABC1" d="M329.252,590.107h7.632l0,0c0-4.247-3.384-7.703-7.632-7.703
	c-4.32,0-7.704,3.456-7.704,7.703c0,4.249,3.384,7.704,7.704,7.704c4.248,0,7.632-3.455,7.632-7.704H329.252z"/>
<path fill-rule="evenodd" clip-rule="evenodd" fill="#FFADC3" d="M329.252,590.107h7.128l0,0c0-3.96-3.168-7.199-7.128-7.199
	c-4.032,0-7.2,3.239-7.2,7.199c0,3.961,3.168,7.201,7.2,7.201c3.96,0,7.128-3.24,7.128-7.201H329.252z"/>
<path fill-rule="evenodd" clip-rule="evenodd" fill="#FFAFC5" d="M329.252,590.107h6.624l0,0c0-3.672-2.952-6.695-6.624-6.695
	c-3.744,0-6.695,3.023-6.695,6.695c0,3.673,2.951,6.697,6.695,6.697c3.672,0,6.624-3.024,6.624-6.697H329.252z"/>
<path fill-rule="evenodd" clip-rule="evenodd" fill="#FFB1C8" d="M329.252,590.107h6.12l0,0c0-3.384-2.736-6.191-6.12-6.191
	c-3.456,0-6.191,2.808-6.191,6.191c0,3.385,2.735,6.12,6.191,6.12c3.384,0,6.12-2.735,6.12-6.12H329.252z"/>
<path fill-rule="evenodd" clip-rule="evenodd" fill="#FFB3CA" d="M329.252,590.107h5.616l0,0c0-3.096-2.521-5.615-5.616-5.615
	c-3.168,0-5.688,2.52-5.688,5.615c0,3.097,2.52,5.616,5.688,5.616c3.096,0,5.616-2.52,5.616-5.616H329.252z"/>
<path fill-rule="evenodd" clip-rule="evenodd" fill="#FFB5CC" d="M329.252,590.107h5.112l0,0c0-2.808-2.304-5.111-5.112-5.111
	c-2.88,0-5.184,2.304-5.184,5.111c0,2.809,2.304,5.112,5.184,5.112c2.809,0,5.112-2.304,5.112-5.112H329.252z"/>
<path fill-rule="evenodd" clip-rule="evenodd" fill="#FFB7CE" d="M329.252,590.107h4.608l0,0c0-2.52-2.088-4.607-4.608-4.607
	c-2.592,0-4.68,2.088-4.68,4.607c0,2.521,2.088,4.608,4.68,4.608c2.521,0,4.608-2.088,4.608-4.608H329.252z"/>
<path fill-rule="evenodd" clip-rule="evenodd" fill="#FFB9D1" d="M329.252,590.107h4.104l0,0c0-2.303-1.872-4.104-4.104-4.104
	c-2.304,0-4.176,1.801-4.176,4.104c0,2.232,1.872,4.104,4.176,4.104c2.232,0,4.104-1.872,4.104-4.104H329.252z"/>
<path fill-rule="evenodd" clip-rule="evenodd" fill="#FFBBD3" d="M329.252,590.107h3.527l0,0c0-2.016-1.584-3.6-3.527-3.6
	c-2.017,0-3.6,1.584-3.6,3.6c0,1.944,1.583,3.601,3.6,3.601c1.943,0,3.527-1.656,3.527-3.601H329.252z"/>
<path fill-rule="evenodd" clip-rule="evenodd" fill="#FFBDD5" d="M329.252,590.107h3.023l0,0c0-1.728-1.367-3.096-3.023-3.096
	c-1.729,0-3.096,1.368-3.096,3.096c0,1.729,1.367,3.097,3.096,3.097c1.656,0,3.023-1.368,3.023-3.097H329.252z"/>
<path fill-rule="evenodd" clip-rule="evenodd" fill="#FFBFD8" d="M329.252,590.107h2.521l0,0c0-1.439-1.152-2.592-2.521-2.592
	c-1.439,0-2.592,1.152-2.592,2.592c0,1.44,1.152,2.593,2.592,2.593c1.368,0,2.521-1.152,2.521-2.593H329.252z"/>
<path fill-rule="evenodd" clip-rule="evenodd" fill="#FFC2DA" d="M329.252,590.107h2.017l0,0c0-1.151-0.937-2.088-2.017-2.088
	c-1.152,0-2.088,0.937-2.088,2.088c0,1.152,0.936,2.017,2.088,2.017c1.08,0,2.017-0.864,2.017-2.017H329.252z"/>
<path fill-rule="evenodd" clip-rule="evenodd" fill="#FFC4DC" d="M329.252,590.107h1.513l0,0c0-0.863-0.721-1.511-1.513-1.511
	c-0.863,0-1.584,0.647-1.584,1.511c0,0.865,0.721,1.513,1.584,1.513c0.792,0,1.513-0.647,1.513-1.513H329.252z"/>
<path fill-rule="evenodd" clip-rule="evenodd" fill="#FFC6DF" d="M329.252,590.107h1.008l0,0c0-0.575-0.504-1.008-1.008-1.008
	c-0.576,0-1.08,0.433-1.08,1.008c0,0.577,0.504,1.009,1.08,1.009c0.504,0,1.008-0.432,1.008-1.009H329.252z"/>
<path fill-rule="evenodd" clip-rule="evenodd" fill="#FFC8E1" d="M329.252,590.107h0.504l0,0c0-0.288-0.288-0.504-0.504-0.504
	c-0.288,0-0.576,0.216-0.576,0.504c0,0.289,0.288,0.504,0.576,0.504c0.216,0,0.504-0.215,0.504-0.504H329.252z"/>
<path fill-rule="evenodd" clip-rule="evenodd" fill="#B2B2B2" d="M471.884,609.188c-0.936-0.576-0.936-0.576-1.079-1.655
	c-0.289,0-0.505,0-0.793,0c0,0.287,0,0.504,0,0.792c-0.576-0.217-1.224-0.432-1.8-0.576c0.216-0.433,0.504-0.864,0.72-1.296
	c-0.216,0.145-0.504,0.216-0.72,0.359v4.681c0.648,0.216,1.368,0.432,2.16,0.647l0,0l0,0l0,0c1.44-0.144,2.952-0.216,4.464-0.359
	c1.943-1.08,2.88-2.952,2.952-4.824v-0.864c-0.145-2.808-1.944-5.76-4.464-6.984c0-0.215,0-0.504,0-0.719
	c-1.729-0.648-3.456-1.225-5.112-1.657v2.665c0.145,0.071,0.36,0.071,0.504,0.071c-0.072,0.288-0.144,0.505-0.144,0.72
	c1.367,0.721,2.663,1.369,4.032,2.017c1.799,2.592,1.799,2.592,2.52,2.808c-0.144,1.08-0.359,2.16-0.504,3.312
	C472.964,609.188,472.964,609.188,471.884,609.188L471.884,609.188L471.884,609.188L471.884,609.188z M468.212,606.812
	c-0.359,0.145-0.647,0.288-0.937,0.36c-0.215-0.72-0.359-1.44-0.575-2.16c-0.216,0-0.432,0-0.72,0
	c-1.152-2.088-1.225-3.096-3.24-3.672c0-0.288,0-0.504,0-0.792c-0.288,0-0.505,0-0.792,0c0-0.216,0-0.504,0-0.72
	c-0.217,0-0.505,0-0.72,0c0-0.36,0-0.721,0-1.08c2.304,0.216,4.68,0.433,6.983,0.648v-2.665c-4.536-1.224-8.928-1.584-14.112,0.145
	c0.072,1.151,0.145,2.231,0.216,3.312c4.464,1.008,6.624,1.152,8.425,5.904c0.216,0,0.432,0,0.72,0c0.504,3.24,2.16,4.536,4.752,5.4
	V606.812z"/>
<path fill-rule="evenodd" clip-rule="evenodd" fill="#B2B2B2" d="M248.972,557.78c2.664-0.072,5.472,0.144,8.496,0.359
	c1.584,1.584,1.944,1.584,2.232,3.888c1.296,0.217,2.88,1.225,3.816,2.16c-0.072,0.433-0.144,0.864-0.144,1.297
	c-1.872,0-1.872,0-2.952-0.72c-4.896,0.431-8.064,3.383-11.448,5.759v-3.743c2.808-1.8,6.624-4.248,10.008-5.328
	c-2.016-2.017-6.264-2.017-10.008-1.656V557.78z M241.7,573.188c-3.672-0.503-5.184-2.591-5.328-5.111v-1.08
	c0.144-1.872,0.864-3.889,1.872-5.688c3.456-2.521,6.984-3.385,10.728-3.528v2.016c-1.944,0.144-3.744,0.432-5.04,0.576
	c-3.24,1.943-6.552,5.76-4.032,9.504l0,0l0,0l0,0c2.592,1.008,4.104,0,6.768-1.584c0.648-0.432,1.44-0.936,2.304-1.512v3.743
	C246.812,571.964,244.58,573.188,241.7,573.188L241.7,573.188L241.7,573.188L241.7,573.188z"/>
<path fill-rule="evenodd" clip-rule="evenodd" fill="#B2B2B2" d="M453.523,531.356c-1.08-0.072-2.231-0.145-3.312-0.217
	c0-0.359,0-0.72,0-1.079c6.84-1.08,13.681-2.232,20.593-3.312c0,0.216,0,0.504,0,0.72
	C464.973,529.916,459.716,530.924,453.523,531.356L453.523,531.356L453.523,531.356L453.523,531.356z"/>
<path fill-rule="evenodd" clip-rule="evenodd" fill="#B2B2B2" d="M453.164,521.42c-0.216-0.072-0.433-0.144-0.721-0.216
	c0.145-0.36,0.217-0.792,0.361-1.224c1.079-0.433,5.111-0.793,5.471-1.152c10.081-2.088,18-6.912,27.145-10.801
	c0-0.287,0-0.504,0-0.792c0.359,0,0.72,0,1.152,0c-2.808,5.545-20.377,11.665-26.064,13.104
	C458.061,520.7,455.611,520.988,453.164,521.42L453.164,521.42L453.164,521.42L453.164,521.42z"/>
<path fill-rule="evenodd" clip-rule="evenodd" fill="#B2B2B2" d="M357.477,512.996c-0.217-6.769,8.712-14.328,15.047-15.48
	c1.44-1.728,2.521-2.088,2.232-4.392c-11.592-5.472-17.136,5.328-18.72,14.903c-0.36,0-0.792,0-1.152,0
	c0.216-1.728,0.36-3.455,0.576-5.184c3.96-10.943,7.271-13.752,18.504-13.752c5.4,3.6,4.32,5.832,0.937,10.512
	c-6.553,3.024-14.616,5.977-16.705,13.536C357.98,513.068,357.765,512.996,357.477,512.996L357.477,512.996L357.477,512.996
	L357.477,512.996z"/>
<path fill-rule="evenodd" clip-rule="evenodd" fill="#FFFFFF" d="M103.028,527.54c5.544-1.584,11.808,0.576,16.992,1.584
	c3.312,1.08,5.544,2.016,9.144,3.528c6.624,2.736,23.184,18,24.912,20.592c0.792,1.152,8.64,10.296,9.432,12.312
	c2.808,6.911,28.368,18.936,30.528,19.943c2.232,1.008,7.848,4.607,9.216,5.904c2.664,2.664,5.328,6.192-0.36,11.952
	c-1.872,0-1.872,0-5.904-0.937c-0.504-9.792-4.968-9.072-12.816-8.424c0.504-2.952,0.288-3.889-0.36-6.624
	c-3.456-1.729-10.872-2.736-13.536,0.144c-1.872,0.72-1.872,0.72-4.104,0.72c-3.168-4.031-6.912-4.392-11.664-5.111
	c-6.48-2.088-14.688-3.889-20.592-5.832c-5.256-1.728-30.24-14.76-34.416-20.376c-0.936-1.296-5.328-5.4-5.904-6.264
	C86.828,539.996,90.932,530.996,103.028,527.54L103.028,527.54L103.028,527.54L103.028,527.54z"/>
<path fill-rule="evenodd" clip-rule="evenodd" fill="#FFE8F2" d="M137.012,578.3c0.936-10.368,0.288-12.096,7.2-18.647
	c2.16-1.944,7.344,3.167,6.264,5.184c-2.592,4.68-5.832,3.96-4.896,15.696C140.396,579.523,137.012,578.3,137.012,578.3
	L137.012,578.3L137.012,578.3L137.012,578.3z"/>
<path fill-rule="evenodd" clip-rule="evenodd" fill="#FFE8F2" d="M148.892,581.54c-0.072-5.832,1.08-8.784,6.552-13.248
	c1.728-1.296,5.256,2.809,4.32,4.248c-2.232,3.312-4.608,2.088-4.608,10.8C151.34,582.26,148.892,581.54,148.892,581.54
	L148.892,581.54L148.892,581.54L148.892,581.54z"/>
<path fill-rule="evenodd" clip-rule="evenodd" fill="#B2B2B2" d="M143.204,605.156c0.432,0.071,0.864,0.216,1.224,0.287
	c1.584,2.017,6.336,7.129,8.424,11.305c-3.384-0.504-6.48-1.296-9.648-2.16v2.305c4.824,1.008,5.904,1.872,11.88,3.168
	c1.152,1.655,13.896,16.127,13.896,18c-1.656,0.144-8.64-1.656-13.032-2.232c0,0.359,0,0.72,0,1.152
	c3.816,1.224,17.064,3.096,18.288,6.552c0.288,0,0.504,0,0.792,0c0.36,0.936,1.224,1.512,1.8,2.952c0.36,0,0.72,0,1.08,0
	c-0.432-2.088-3.096-2.881-3.312-5.112c3.168-0.145,6.408-0.288,9.576-0.36c0-0.288,0-0.504,0-0.792
	c-3.672-0.216-7.344-0.504-11.016-0.72c0-1.296-2.664-3.744-3.672-4.393c-2.232-4.896-6.264-9.575-9.144-14.184
	c-0.36-0.576,4.536,0.72,4.536,0c-0.576-0.216-5.544-2.231-6.12-2.951c-2.304-2.737-5.616-8.496-6.84-10.584
	c2.304,0.936,2.736,0.071,7.056,0.719c-2.736-1.728-7.128-2.376-9.792-3.312c0-0.36-3.24-5.544-3.528-5.688
	c-0.288-1.584-1.296-3.527-2.448-5.472V605.156z M139.46,613.58c-1.944-3.456-5.4-7.92-5.904-11.52
	c2.448,0.504,6.696,2.231,9.648,3.096v-11.521c-1.728-2.808-3.816-5.688-4.68-7.416c-0.72-1.367-1.584-2.951-2.16-4.608l0,0l0,0l0,0
	c-1.296-4.031-5.976-13.751-7.056-14.976c-0.864-1.079-2.232-2.663-3.816-0.432c-1.512,2.231,4.608,12.239,6.408,15.983
	c2.736,5.761,7.344,13.969,9.72,19.513c-2.448-0.288-8.712-2.376-10.8-3.673c-3.096-5.759-8.064-18.504-8.928-20.592
	c-0.936-2.088-1.224-1.728-2.16-4.463c-0.936-2.809-1.44-3.673-1.8-7.272c-0.36,0-1.944,0-2.304,0c0.144,2.592,1.584,7.2,2.232,9.72
	c1.224,4.536,7.848,15.768,9.864,21.312c-5.184-1.296-9-2.735-13.248-5.544c-4.752-2.376-9.504-3.96-13.896-6.768
	c-0.072,0.72-0.144,1.44-0.216,2.16c0.288,0.144,0.648,0.288,0.936,0.432c0,0.216,0,0.504,0,0.72
	c9.072,3.456,17.64,10.44,28.224,11.953c1.872,3.023,4.464,8.063,7.56,12.672c-2.952,0.432-9.072-2.305-11.952-2.952
	c0.072,0.504,0.144,0.936,0.216,1.439c0.72,0.145,1.584,0.217,2.376,0.36c0.216,0.432,0.504,0.864,0.72,1.296
	c6.984,1.872,6.192,1.728,9.504,2.305c0.216,0.575,1.944,3.383,3.168,4.104c-0.216-2.881,0.144-1.368,0.144-2.376
	c0.72,0.144,1.368,0.287,1.944,0.36v-2.305C141.98,614.228,140.684,613.868,139.46,613.58L139.46,613.58L139.46,613.58
	L139.46,613.58z"/>
<path fill-rule="evenodd" clip-rule="evenodd" fill="#CCCCFF" d="M91.724,542.876c-0.792-9.937,12.096-16.416,15.912-14.328
	C111.452,530.636,92.372,550.939,91.724,542.876L91.724,542.876L91.724,542.876L91.724,542.876z"/>
<path fill-rule="evenodd" clip-rule="evenodd" fill="#FFFFFF" d="M168.98,166.316c-1.44-6.336-1.008-12.672,1.44-19.008l0,0
	l40.608-30.672l49.968-23.472l28.944-6.48l0,0c4.896,0.792,9,4.248,12.384,10.512l0,0l4.968,17.28l12.312,50.4l0,0
	c3.601,18.504,5.473,37.008,4.32,55.512l0,0l-7.2,7.992l0,0C267.548,207.716,218.228,186.98,168.98,166.316L168.98,166.316
	L168.98,166.316L168.98,166.316z"/>
<path fill-rule="evenodd" clip-rule="evenodd" fill="#E8F2FF" d="M169.628,161.78c27.936-32.977,73.152-53.28,108.288-65.088
	c15.192,28.08,22.968,74.736,24.336,84.6c4.248,9.792,0.576,17.784,2.448,24.552c1.8,6.696,2.952,10.368,14.472,17.784
	c-12.672,5.472-25.488,10.44-40.032,19.584c-14.616,9.216-18.864,15.048-26.784,20.88c-9.792,0.936-26.28-0.72-37.152-3.672
	c-5.4-6.048-19.584-42.768-24.912-49.104C185.756,197.78,168.476,163.076,169.628,161.78L169.628,161.78L169.628,161.78
	L169.628,161.78z"/>
<path fill-rule="evenodd" clip-rule="evenodd" d="M227.084,258.836c-2.736-1.512-2.016-5.544-2.232-8.208
	c1.296-0.36,1.296-0.36,1.872-1.296c3.096,0,6.264-0.144,9.504,0.504C235.94,256.028,233.564,258.836,227.084,258.836
	L227.084,258.836L227.084,258.836L227.084,258.836z"/>
<path fill-rule="evenodd" clip-rule="evenodd" d="M291.596,216.716c0-2.88,3.6-4.608,6.264-5.832
	c2.592-1.224,4.392,1.872,5.472,3.312c1.08,1.512,1.08,3.024,0,4.392c-1.08,1.44-3.384,2.736-5.472,2.952
	C295.7,221.756,291.596,219.596,291.596,216.716L291.596,216.716L291.596,216.716L291.596,216.716z"/>
<path fill-rule="evenodd" clip-rule="evenodd" d="M202.532,216.428c-1.152-1.224-0.648-0.576-1.512-2.16
	c-0.648-1.296-3.384-6.768-4.032-7.776c-1.512-2.304-6.48-14.184-8.784-19.08c-3.312-7.056-8.784-16.416-9.648-24.264
	c-0.504-4.536,1.512-6.768,3.024-8.784c4.608-5.832,36.432-24.984,42.552-28.296c8.496-4.608,38.088-18.648,50.616-17.424
	c1.152,0.072,2.448,2.088,2.88,3.096c3.744,8.136,13.32,40.104,14.688,48.096c0.648,4.032,1.872,7.92,1.44,11.088
	c0.288,0,0.504,0,0.792,0c-0.072,2.375-0.576,3.672-2.592,5.832c-4.248,4.464-15.84,5.76-23.832,10.656
	c-8.064,4.968-29.016,14.328-38.52,18.72c-0.864,0.432-6.336,3.384-7.632,5.184c-1.368,1.8-10.368,4.824-13.248,6.624
	C207.428,218.732,203.756,217.796,202.532,216.428L202.532,216.428L202.532,216.428L202.532,216.428z"/>
<path fill-rule="evenodd" clip-rule="evenodd" fill="#FFFFFF" d="M208.004,215.132c-1.152,0.072-2.664-1.224-2.952-1.656
	c-0.936-1.224-2.592-4.536-3.312-5.832c-2.736-5.616-6.768-12.096-7.272-18c2.016-1.368,8.712-5.472,12.096-6.84
	c2.016,4.968,2.376,5.832,2.88,6.84c1.656,2.952,4.464,4.968,8.064,7.344c4.104,2.592,18.144,1.872,29.16-5.544
	c0.792-0.504,4.824-3.456,5.328-3.816c10.728-8.928,17.208-17.712,19.944-31.752c-0.072-3.24-0.144-6.408-0.144-9.576
	c2.16-0.216,2.16-0.216,4.968-1.512c0-0.216,0.072-0.504,0.144-0.72c3.096-1.224,3.744-1.656,7.128-1.44
	c3.6,6.984,5.184,17.856,6.984,25.704c0,3.672,0,4.032-2.016,7.128c-20.088,7.56-40.464,18-57.96,26.64
	C227.948,203.612,214.052,214.844,208.004,215.132L208.004,215.132L208.004,215.132L208.004,215.132z"/>
<path fill-rule="evenodd" clip-rule="evenodd" d="M208.004,211.1c-0.288,0-0.648,0-0.72-0.144c-0.864-1.872-2.664-7.632-3.528-9.216
	c-0.36-0.72-0.504-1.944,0-2.521c1.584-1.872,3.384-4.104,5.688-3.168c1.944,0.792,2.304,4.248,2.952,4.968
	c1.8,2.088,4.032,3.888,2.592,6.408C213.548,209.948,210.812,211.172,208.004,211.1L208.004,211.1L208.004,211.1L208.004,211.1z"/>
<path fill-rule="evenodd" clip-rule="evenodd" fill="#FFFF00" d="M224.132,195.332c-4.968-0.216-12.024-6.912-13.176-9.36
	c-3.024-6.48-3.456-10.728-3.168-17.64c0.072-0.504,0.144-3.384,1.08-6.624c0.216-0.504,0.792-2.16,3.672-8.064
	c2.736-3.528,3.744-7.272,7.776-9.936c9.792-12.456,36.432-17.712,45.432-1.8c-0.432,0.72-0.432,0.72-1.296,1.224
	c-2.736-1.081-5.256-0.792-8.064-0.864c1.008-2.664,2.952-2.232,3.312-5.544c-0.288,0-0.504,0-0.72,0c0-0.36,0-0.72,0-1.08
	c-0.72,0-0.72,0-0.936,0.72c-9.144-0.432-19.08,0-27.288,3.888c-2.88,2.736-7.704,4.464-9.576,7.704
	c-3.816,1.8-8.064,9.576-9,13.752c-2.592,12.384-3.168,25.992,9.792,29.16c13.536,3.384,29.376-11.016,32.976-14.112
	c6.408-5.688,7.632-10.008,9.648-13.896c0.144-0.36,1.008,0,0.936,0.288c-0.288,3.456-2.16,5.688-3.312,8.64
	c-0.504,1.44-11.088,13.968-20.16,18C235.652,192.668,230.54,195.548,224.132,195.332L224.132,195.332L224.132,195.332
	L224.132,195.332z"/>
<path fill-rule="evenodd" clip-rule="evenodd" fill="#CCCCCC" d="M345.74,194.396c0.216-1.44,0.575-1.872,2.016-7.344
	c2.664-7.2,3.672-13.824,4.248-21.312c0.36,0,0.72,0,1.08,0c0.145,10.008-2.592,19.584-6.624,28.656
	C346.244,194.396,346.027,194.396,345.74,194.396L345.74,194.396L345.74,194.396L345.74,194.396z"/>
<path fill-rule="evenodd" clip-rule="evenodd" d="M290.444,201.668c1.368-0.648,2.304-0.792,2.592,1.152
	c-1.224,0.216-1.944,0.432-2.592,0.576v4.68c0.72-0.288,1.224-0.432,1.512-0.432c0-0.288,0-0.504,0-0.72
	c6.768-1.8,8.64-0.864,12.096-3.024c-0.072-0.648,0.216-2.088,0.216-2.736c-3.96,0-9.648,2.016-10.152,0.72
	c-0.504-1.368,3.888-2.664,10.512-3.456c-0.072-0.936-0.144-1.944-0.216-2.88c-7.92-0.288-6.12,0.144-13.248,1.08
	c0-0.432,0-0.792,0-1.08c3.384-1.656,8.784-1.584,12.528-2.448c1.008-1.08,0.72-1.944-0.144-2.592
	c-1.152-0.792-10.008,1.008-11.664,1.584c-1.512,0.504-2.088-1.44-0.288-2.232c1.44-0.648,8.064-1.872,12.096-2.088
	c0.216-2.376,0.504-2.52-0.936-4.752c-2.52,0.36-7.632,0.72-12.312,1.152V201.668L290.444,201.668z M290.444,240.764v-5.112
	c5.112-2.448,10.08-4.68,13.536-5.76c0-2.016,9.36-6.336,9.36-3.96c4.465-1.008,5.4-3.096,6.912-4.68
	c1.08-1.152,1.943-2.016,2.232-4.824c0.791-7.704-15.48-6.552-11.952-14.328c4.464,0.72,6.479,5.688,11.448,6.264
	c-0.433-2.736-9.648-8.496-11.953-8.856c-0.359-1.224-0.936-0.72-1.151-2.88c1.151-1.152,7.56,3.312,11.592,5.112
	c1.513-0.504,1.224-0.216,1.513-1.8c-3.385-1.944-10.729-5.04-13.104-7.416c0.072-0.792,0.144-1.584,0.216-2.376
	c2.952-0.504,3.889,1.296,6.265,2.088c0-0.504,0-1.008,0-1.512c-1.729-0.504-4.537-2.016-6.265-3.096
	c-0.072-0.576-0.144-2.232-0.216-2.736c5.112,0.648,7.992,3.024,12.312,4.752c-0.864-15.84-3.312-28.872-7.488-44.064
	c-2.232-11.16-5.832-21.672-7.632-32.688c-0.36-0.36-1.872-7.344-3.888-13.608c-0.288-0.144-0.648-0.288-0.864-0.36
	c-0.144-1.152-0.288-2.232-0.36-3.312c0.432-0.072,0.792-0.145,1.224-0.216c1.296,2.016,1.296,2.016,1.872,3.672
	c0.216,0.072,0.504,0.144,0.72,0.216c0.936,2.664,1.728,5.328,2.664,8.064c4.32,21.168,11.377,41.544,15.769,62.784
	c2.16,16.488,4.968,35.855,2.592,52.56c-1.656,2.016-5.399,5.472-7.704,6.264c-1.296,4.248-8.928,6.84-12.24,4.824
	C300.74,234.644,295.484,238.1,290.444,240.764L290.444,240.764z M290.444,87.26v-0.864c0.144,0,0.288,0,0.432,0
	c0,0.288,0,0.504,0,0.792C290.732,87.188,290.588,87.188,290.444,87.26z M287.924,203.972c0.072-0.432,0.216-0.864,0.36-1.296
	c0.792-0.36,1.512-0.72,2.16-1.008v-17.496c-4.536,0.432-8.64,1.008-9.432,1.8c-4.608-0.864-10.152,0.648-11.592,5.112
	c-7.416,3.096-14.688,6.624-21.744,10.368v4.68c6.552-3.96,13.104-7.488,16.128-7.776c0.72-0.072,0.504,1.296,0.792,1.584
	c-5.832,1.512-11.448,4.968-16.92,8.64v3.096c7.2-4.248,14.688-7.344,19.728-8.496c0,0.72,0,1.368,0,2.088
	c-6.408,1.584-13.32,5.112-19.728,9.216v3.672c9.72-5.544,22.32-11.16,28.872-10.512c-0.648,1.728-1.08,2.16-2.664,2.376
	c-6.768,1.512-17.208,5.472-26.208,11.16v6.048c4.68-2.952,12.528-8.208,17.136-9.144c0.36-1.008,19.8-8.136,25.632-10.008v-4.68
	C289.58,203.684,289.004,203.828,287.924,203.972L287.924,203.972L287.924,203.972L287.924,203.972L287.924,203.972z
	 M290.444,86.396v0.864c-9.72,2.016-19.44,4.968-28.944,7.776c-4.248,2.304-9,4.608-13.824,6.696v-5.4
	c1.368-0.72,2.88-1.44,4.68-2.376C265.676,90.86,276.692,86.18,290.444,86.396L290.444,86.396z M290.444,235.652v5.112
	c-1.944,1.08-3.96,2.016-5.832,2.664c-4.032,2.952-7.776,4.968-11.808,7.848c-1.512,0.72-5.04,2.88-5.688,4.32
	c0.864,1.584,0.792,2.88-0.288,5.616c-2.664,2.736-6.264,2.232-9.72,2.448c-3.6,2.808-5.832,2.952-9.432,2.952v-4.32
	c0.936,0.072,1.872,0.144,2.808,0.288c2.304-1.152,4.32-0.72,5.112-3.024c-0.576-2.16,4.248-7.416,7.704-6.336
	c1.8-1.872,5.76-4.608,11.016-8.496C277.772,242.276,284.108,238.748,290.444,235.652z M247.676,96.332v5.4
	c-9.864,4.464-20.016,8.496-26.856,12.24c-1.8,1.008-3.672,2.016-5.616,3.168v-4.176c5.112-3.168,9.216-5.616,11.52-6.912
	C238.1,100.652,241.412,99.428,247.676,96.332L247.676,96.332z M247.676,201.452v4.68c-8.28,4.968-16.56,10.584-17.496,11.016
	c0.072,0.504,0.144,1.008,0.216,1.512l0,0l0,0l0,0c5.832-2.304,11.52-6.336,17.28-10.08v3.096c-6.336,3.744-12.6,8.352-16.92,13.248
	l0,0l0,0l0,0c0.288,0.72,1.008,0.936,1.728,0.792c4.032-3.384,9.36-7.488,15.192-11.232v3.672c-4.248,2.448-7.92,4.824-10.368,6.768
	c-1.368,1.008-6.192,5.616-6.912,5.832c-0.576,1.152,0.36,2.376,1.008,2.448l0,0l0,0l0,0c4.104-3.024,6.192-4.608,10.656-8.136
	c1.8-1.368,3.672-2.664,5.616-3.888v6.048c-0.864,0.504-1.656,1.008-2.304,1.296c-5.328,2.952-18,13.536-25.272,18.216
	c-1.08,1.368-3.096,3.96-4.896,5.328v-6.12c0.072,0,0.072-0.072,0.144-0.144c1.08-1.512,3.096-2.448,4.752-3.816
	c1.728-1.368,2.232-2.448,4.392-4.032c-2.16,0-1.008-0.504-4.68,0.072c-0.792,1.368-2.736,3.168-4.608,4.824v-23.184
	C225.572,213.836,236.372,207.428,247.676,201.452L247.676,201.452z M247.676,262.292v4.32c-0.792,0-1.728-0.072-2.664-0.072l0,0
	l0,0l0,0c-25.272-2.88-25.344-3.096-27.648-3.312c-0.504-0.072-1.296-0.504-2.16-1.152v-5.688c0.792,0.936,1.8,2.16,3.456,3.024
	c1.08-0.288,1.728,0.144,2.88,0C230.18,260.276,238.964,261.356,247.676,262.292z M215.204,112.964v4.176
	c-20.304,11.736-43.848,29.16-45.36,34.272c-0.936,3.384-0.864,4.176-0.36,7.344c0.576,3.24,13.752,28.656,15.048,30.888
	c3.744,6.48,20.088,40.608,20.088,45.864c0.504,0,2.304-0.144,2.736-0.144c0.432-3.456,2.952-8.928,2.448-12.672
	c1.8-0.936,3.6-1.944,5.4-3.024v23.184c-1.512,1.368-2.952,2.736-3.744,3.744c-1.44-2.664-3.888-7.416-2.376-9.576
	c-1.224-1.44-3.168-0.72-3.096-0.36c0.504,2.952,3.024,9.864,3.888,11.376l0,0l0,0l0,0c0.864,1.44,1.872,2.016,2.52,1.656
	c0.576-0.36,0.432-0.72,1.08-1.656s0.72-0.648,1.728-2.088v6.12c-0.432,0.36-0.936,0.648-1.368,0.72
	c-0.144,0.72-0.216,1.44-0.36,2.232c0.576,0,1.08,0.576,1.728,1.368v5.688c-1.944-1.656-4.536-4.752-6.624-8.496
	c-3.024-5.4-19.728-38.808-28.296-58.824c-5.04-11.808-12.384-22.824-14.976-34.488c0-5.4,0.648-10.296,4.896-14.904
	C177.188,137.66,200.228,122.324,215.204,112.964z"/>
<path fill-rule="evenodd" clip-rule="evenodd" fill="#CCCCFF" d="M223.052,188.132c-1.08-0.288-4.536-2.808-6.48-6.48
	c-0.216-0.36-1.584-4.968-1.512-5.4c1.512-1.008,2.52-1.512,4.32-1.656c0.216,1.296,0.504,2.664,0.72,4.032
	c3.96,2.376,4.536-0.432,8.208,0c1.08,2.088,0,2.952,1.296,5.112c0.864,1.368-0.072,1.512,1.44,1.512
	c4.68-0.144,5.904-2.88,9.216-3.168c0.576,0.576,0.576,0.576,0.576,1.656C237.596,186.98,227.3,189.428,223.052,188.132
	L223.052,188.132L223.052,188.132L223.052,188.132z"/>
<path fill-rule="evenodd" clip-rule="evenodd" fill="#FFFFFF" d="M192.956,187.628c-4.968-6.48-7.344-17.928-9.72-25.56
	c0-7.488,14.688-15.336,19.656-18.504c3.528-3.168,13.104-10.152,17.568-10.512c1.08,1.8,1.296,2.16,1.296,4.392
	c-7.632,6.912-14.184,16.632-16.128,22.824c-2.016,6.336-0.432,12.528-0.432,19.08C203.036,181.364,195.044,187.628,192.956,187.628
	L192.956,187.628L192.956,187.628L192.956,187.628z"/>
<path fill-rule="evenodd" clip-rule="evenodd" fill="#FFFFFF" d="M232.916,181.148c-2.808-9.648-4.536-4.104-10.08-4.752
	c-1.296-6.624-2.448-19.368,5.112-22.752c0.072-0.432,0.144-0.792,0.216-1.08c8.64-1.152,21.888,13.752,20.88,22.536
	C242.276,175.604,238.964,180.716,232.916,181.148L232.916,181.148L232.916,181.148L232.916,181.148z"/>
<path fill-rule="evenodd" clip-rule="evenodd" fill="#CCCCCC" d="M336.956,181.148c1.584-16.776,2.376-31.824,1.296-48.456
	c0.504-0.072,1.08-0.144,1.656-0.216c3.527,15.264,2.088,33.552-2.232,48.672C337.46,181.148,337.244,181.148,336.956,181.148
	L336.956,181.148L336.956,181.148L336.956,181.148z"/>
<path fill-rule="evenodd" clip-rule="evenodd" fill="#FF99CC" d="M251.996,175.676c0.072-9.936-8.928-23.472-18.36-25.2
	c0.144-0.792,0.288-1.584,0.432-2.376c0.576,0,1.152,0,1.8,0c2.304-1.008,16.632,8.64,19.44,24.048
	C254.444,171.932,253.652,174.38,251.996,175.676L251.996,175.676L251.996,175.676L251.996,175.676z"/>
<path fill-rule="evenodd" clip-rule="evenodd" d="M278.78,174.74c-1.8-2.952-4.176-10.368-1.512-13.248
	c1.728-0.36,3.456-0.72,5.184-1.08c1.8,2.016,2.808,9.504,2.52,12.888C282.74,173.66,282.092,174.38,278.78,174.74L278.78,174.74
	L278.78,174.74L278.78,174.74z"/>
<path fill-rule="evenodd" clip-rule="evenodd" fill="#CCCCFF" d="M214.412,173.156c0-8.784,1.296-18.36,10.8-24.84
	c0.432,0,0.864,0.072,1.296,0.144c0,1.512,0,1.512-0.72,2.952c-7.2,3.816-6.624,9.216-6.984,16.92
	C218.444,172.22,215.708,172.796,214.412,173.156L214.412,173.156L214.412,173.156L214.412,173.156z"/>
<path fill-rule="evenodd" clip-rule="evenodd" d="M191.516,172.364c-2.016-4.751-2.808-8.064-4.248-11.016
	c0-2.232,4.176-5.256,6.408-5.472c1.08,3.816,4.248,8.856,4.248,12.816C193.676,171.428,193.676,171.428,191.516,172.364
	L191.516,172.364L191.516,172.364L191.516,172.364z"/>
<path fill-rule="evenodd" clip-rule="evenodd" fill="#CCCCFF" d="M257.468,168.332c0-0.216,0-0.504,0-0.72c-0.216,0-0.504,0-0.72,0
	c-0.072-1.225-0.144-2.521-0.144-3.672c2.376-1.296,2.376-1.296,4.536-1.872C260.276,163.868,259.268,167.54,257.468,168.332
	L257.468,168.332L257.468,168.332L257.468,168.332z"/>
<path fill-rule="evenodd" clip-rule="evenodd" d="M226.724,162.644c-3.672-3.6,3.6-6.48,6.912-5.688
	C233.132,159.476,229.1,162.644,226.724,162.644L226.724,162.644L226.724,162.644L226.724,162.644z"/>
<path fill-rule="evenodd" clip-rule="evenodd" fill="#FFFF00" d="M265.892,162.644c-0.216-0.072-0.504-0.144-0.72-0.216
	c0.504-3.312,1.008-6.624,1.512-9.864c-0.288,0-0.504,0-0.792,0c-0.144-0.36-0.216-0.648-0.36-0.936
	c-1.584-0.072-3.168-0.144-4.752-0.216c1.152-3.168,4.896-3.816,4.392-7.704c0.216,0,0.504,0,0.72,0c0-0.216,0-0.504,0-0.72
	c0.288,0,0.504,0,0.792,0c1.08,5.4,2.304,9.72,0.864,15.768C267.188,159.116,266.468,162.428,265.892,162.644L265.892,162.644
	L265.892,162.644L265.892,162.644z"/>
<path fill-rule="evenodd" clip-rule="evenodd" fill="#FFFFFF" d="M254.156,160.772c-1.656-0.432-2.016-2.232-2.16-3.456
	c1.872-0.144,2.88-1.224,4.392-2.448c2.088-0.072,4.176-0.144,6.264-0.144c-0.072,1.008-0.144,1.944-0.216,2.952
	C260.996,158.828,255.668,160.772,254.156,160.772L254.156,160.772L254.156,160.772L254.156,160.772z"/>
<path fill-rule="evenodd" clip-rule="evenodd" fill="#FFFFFF" d="M248.684,154.22c-0.432-0.576-0.72-1.152-1.08-1.656
	c-0.288,0-0.504,0-0.792,0c-2.808-5.904,12.024-6.912,15.408-6.984c-0.36,3.744-7.632,6.84-10.224,8.64
	C250.844,154.22,249.764,154.22,248.684,154.22L248.684,154.22L248.684,154.22L248.684,154.22z"/>
<path fill-rule="evenodd" clip-rule="evenodd" fill="#FFFFFF" d="M242.852,148.316c-2.592-0.72-2.592-0.72-5.328-2.016
	c-0.072-0.432-0.144-0.72-0.216-1.08c5.832-1.8,10.44-4.752,16.848-5.904c-0.36,1.584-2.736,3.888-4.32,4.392
	C249.188,145.292,244.58,148.316,242.852,148.316L242.852,148.316L242.852,148.316L242.852,148.316z"/>
<path fill-rule="evenodd" clip-rule="evenodd" fill="#CCCCFF" d="M228.884,146.444c0-0.648,0-1.296,0-2.016
	c2.016-0.36,3.024-2.664,4.752-2.16c0-0.288,0-0.504,0-0.792c1.08-0.216,2.232-0.504,3.312-0.72
	c-0.072,0.504-0.144,1.008-0.216,1.512c-2.016,1.296-2.016,1.296-3.456,1.44C232.196,145.796,231.404,146.444,228.884,146.444
	L228.884,146.444L228.884,146.444L228.884,146.444z"/>
<path fill-rule="evenodd" clip-rule="evenodd" fill="#FFFFFF" d="M270.644,143.564c-6.48-10.512-11.808-12.744-23.832-15.12
	c-6.624,0.864-14.04,2.016-19.728,5.544c-0.648-0.072-1.296-0.144-1.872-0.144c-0.576-1.152-0.576-1.152-0.936-3.672
	c12.168-7.488,28.152-13.032,41.976-17.136c1.872-0.216,3.672-0.504,5.544-0.72c5.04,2.952,12.168,22.104,11.376,27.936
	C272.156,143.564,272.156,143.564,270.644,143.564L270.644,143.564L270.644,143.564L270.644,143.564z"/>
<path fill-rule="evenodd" clip-rule="evenodd" d="M266.684,131.036c-0.288-0.072-0.504-0.144-0.792-0.216
	c0.144-4.608-1.656-7.561-3.096-12.096c1.296-1.44,4.464-1.584,6.408-2.016c1.152,1.728,4.968,10.584,4.968,11.952
	C271.868,130.46,269.492,130.46,266.684,131.036L266.684,131.036L266.684,131.036L266.684,131.036z"/>
<path fill-rule="evenodd" clip-rule="evenodd" fill="#FFFFFF" d="M212.756,228.02c-0.144-3.096-0.504-3.816,1.08-6.264
	c3.672,0.36,3.672,0.36,4.248,0.936C217.652,228.38,218.372,227.732,212.756,228.02L212.756,228.02L212.756,228.02L212.756,228.02z"
	/>
<path fill-rule="evenodd" clip-rule="evenodd" fill="#FFFFFF" d="M215.348,235.364c-3.24-0.576-3.456-2.16-3.672-4.968
	c8.136,0.144,8.496-1.152,8.784-9.576c0.864,0,1.728,0,2.592,0c1.224,0.072,2.376,1.872,2.592,4.104
	C225.284,232.628,222.476,234.14,215.348,235.364L215.348,235.364L215.348,235.364L215.348,235.364z"/>
<path fill-rule="evenodd" clip-rule="evenodd" fill="#FFFFFF" d="M276.548,204.476c-4.752-0.864-5.472-1.8-6.192-7.488
	c3.816,0.432,5.112,2.52,9.144-0.576c2.304-4.032,1.872-4.176,1.08-8.64c1.224,0.72,2.448,1.368,3.672,2.016
	C285.62,195.764,284.18,204.476,276.548,204.476L276.548,204.476L276.548,204.476L276.548,204.476z"/>
<path fill-rule="evenodd" clip-rule="evenodd" fill="#FFFFFF" d="M272.156,195.692c-1.368-0.432-0.36-2.808-0.576-4.248
	c0.648-0.792,1.368-1.584,2.016-2.376c1.584,0.072,3.744-0.864,4.824,0.36C282.596,194.396,275.828,196.988,272.156,195.692
	L272.156,195.692L272.156,195.692L272.156,195.692z"/>
<path fill-rule="evenodd" clip-rule="evenodd" d="M555.477,466.34c-11.593-1.439-18.217-5.184-23.473-15.983
	c-7.992,0.575-25.561-0.36-27.36-11.376c2.376-0.721,4.824-1.369,7.2-2.088c1.584-1.009,6.84-4.969,8.424-6.769
	c4.464-5.185,16.488-22.824,7.344-28.656c-1.799-1.151-18-7.056-20.016-3.24c-1.152,7.633-7.128,24.769-16.488,24.192
	c-0.432-7.272-0.719-14.328-2.016-21.312c-3.888,0.648-7.272,1.585-10.584,3.312c-1.151,6.768-0.72,12.6,0.721,19.08
	c-7.776-2.016-12.889-5.184-13.969-13.176c-2.52,0.144-4.68,0.504-6.624,2.016c-8.279,2.304-40.536,12.672-43.632,3.528
	c-0.216,0-0.432,0-0.647,0c0.359-6.192,0.287-12.816,1.583-18.792c1.225-5.328,3.672-9.144,6.265-13.536
	c4.392-7.344,7.704-9.432,14.111-14.472c6.337-3.888,13.104-7.2,20.161-9.576c5.399-11.952,10.367-17.928,20.159-26.424
	c8.64,0,17.568-1.296,25.704,2.736c-0.575,1.872-1.008,2.232-1.151,4.032c3.096-0.864,5.472-1.944,8.784-0.72
	c0,0.216,0,0.504,0,0.72c1.439,0.432,2.951,0.864,4.463,1.296c5.473,2.952,9.864,5.904,10.944,6.048
	c3.456,5.184,10.08,7.56,13.536,13.032c1.943,1.656,3.096,2.448,5.544,3.528c0,0.36,0,0.72,0,1.08
	c-0.864-0.072-1.729-0.144-2.592-0.216c-0.216,0.288-0.504,0.504-0.721,0.792c-2.808-0.864-4.823-0.648-7.704-0.576
	c0.072,0.36,0.145,0.72,0.145,1.152c14.544,11.376,19.008,30.096,19.872,48.024c-0.792,5.111-1.512,7.704-3.672,20.88
	c0,8.784,2.088,23.112,11.304,27.216C561.092,466.412,559.436,465.836,555.477,466.34L555.477,466.34L555.477,466.34L555.477,466.34
	z"/>
<path fill-rule="evenodd" clip-rule="evenodd" fill="#CCCCFF" d="M535.315,445.964c0.073-0.792-0.432-0.647-1.511-1.08
	c-0.433-0.216-1.009-0.287-1.44,0c-5.976,3.601-20.448-0.287-22.032-1.512c5.76-2.088,16.128-9,16.487-14.112
	c0.937-0.287,0.36-0.504,0.792-1.152c1.801,0,1.801,0,3.673,0.577c0,0.216,0,0.503,0,0.72c2.521,1.367,1.872,1.8,5.112,2.231
	c0.144-1.151,0.576-1.512,0.72-2.592c3.168,0.216,1.728,3.096,5.472,1.872c0.288-0.145,0.647-0.288,0.936-0.432
	c0.072-0.864,0.145-1.729,0.217-2.592c0.287,0,0.72,0,1.079,0c0.577-1.44,0.864-5.112,1.657-6.192
	c0.719,1.08,0.719,1.08,0.863,3.312c-0.216,0-0.432,0-0.648,0c0.145,1.44-0.144,6.336-0.432,9.576
	c-0.216,3.168-0.432,2.16-0.359,5.112c0.216,5.832,2.88,19.943,9.216,21.312c-0.144,0.288-0.288,0.576-0.433,0.937
	C547.412,461.228,534.309,456.548,535.315,445.964L535.315,445.964L535.315,445.964L535.315,445.964z"/>
<path fill-rule="evenodd" clip-rule="evenodd" d="M527.252,459.716c-3.096-1.008-6.12-2.016-9.145-2.951
	c-6.695-3.312-6.695-3.312-7.775-3.456c0-0.289,0-0.504,0-0.793c-1.439-0.504-2.16-1.224-3.24-1.439c0-0.216,0-0.504,0-0.72
	c-2.088-1.08-2.231-1.8-2.952-1.8c0-0.505,0-1.009,0-1.513c1.729,0.072,5.472,2.448,6.192,4.032c0.359,0,0.72,0,1.08,0
	c0,0.288,0,0.504,0,0.792c6.12,1.729,11.735,5.616,18.36,7.271c0,0.288,0,0.504,0,0.792
	C528.908,459.86,528.116,459.788,527.252,459.716L527.252,459.716L527.252,459.716L527.252,459.716z"/>
<path fill-rule="evenodd" clip-rule="evenodd" d="M427.532,440.636c-0.433-0.071-0.72-0.144-1.08-0.216c0-0.216,0-0.432,0-0.72
	c14.976-0.576,14.976-0.576,17.567-1.08c0,0.216,0,0.432,0,0.72C437.973,440.204,433.724,440.636,427.532,440.636L427.532,440.636
	L427.532,440.636L427.532,440.636z"/>
<path fill-rule="evenodd" clip-rule="evenodd" d="M419.828,430.34c-0.648-0.288-1.296-0.504-1.872-0.72
	c-0.144-0.36-0.216-0.647-0.36-0.936c11.448-0.864,22.32-3.312,33.769-4.753C449.853,427.964,425.443,430.34,419.828,430.34
	L419.828,430.34L419.828,430.34L419.828,430.34z"/>
<path fill-rule="evenodd" clip-rule="evenodd" fill="#CCCCFF" d="M533.805,428.324c0-0.288,0-0.504,0-0.721
	c-0.433-0.144-0.937-0.287-1.44-0.359c-0.145-0.504-0.288-0.936-0.36-1.296c-0.359-0.072-0.792-0.144-1.151-0.217
	c-0.217-0.72-0.505-1.439-0.721-2.231c0.36,0,0.721,0,1.152,0c0.072,0.216,3.168,3.312,3.456,3.312
	C534.38,427.316,534.092,427.82,533.805,428.324L533.805,428.324L533.805,428.324L533.805,428.324z"/>
<path fill-rule="evenodd" clip-rule="evenodd" fill="#FFFFFF" d="M437.036,390.596c1.008-2.232,1.584-3.168,1.944-3.96
	c1.728-0.072,2.447,0.216,6.479,0.792c0.937-1.44,0.504-1.8,1.08-3.312c-1.728-0.504-3.384-1.008-5.112-1.44
	c-0.216-2.52,0.576-3.312,1.08-5.688c-2.088-0.144-3.023,0.216-3.888,0.144c-0.72,0.72-1.08,1.512-1.584,2.664V373.1
	c5.111-3.888,10.584-7.272,13.176-7.704c7.704-2.952,7.704-2.952,10.656-3.672c3.096-3.312,8.208-2.88,11.736-0.36
	c4.752,3.384,1.151,15.12,0,18.504c8.063-1.296,8.063-1.296,9.359-1.8c0-0.504,0.072-1.008,0.144-1.512
	c-0.863,0.144-1.728,0.288-2.52,0.432c1.08-3.96-1.296-16.488-6.408-18c-0.072-0.432-0.144-0.792-0.216-1.152
	c4.104,0.432,10.296-1.728,12.815-1.656c2.593,0,23.04,3.168,27.145,4.032c4.104,0.936,10.729,3.096,14.328,5.184
	c3.601,2.088,11.521,6.984,16.271,17.064c4.752,10.08,6.696,22.032,4.752,36.288c-0.432,0.145-0.863,0.216-1.224,0.359
	c-4.823-13.464-17.928-23.184-25.704-24.479c-4.896-0.864-9.432-1.296-14.256-1.512c-0.216-5.112,0.288-6.192-0.432-7.344
	c-0.937-1.512-2.592-5.688-7.633-6.264c0.505,1.872,1.225,2.592,1.945,4.824c3.096,4.464,2.231,11.952,2.231,17.136
	c-1.296,4.32-4.104,16.2-9.36,16.921c0.072-8.496-0.144-14.257-2.376-22.321c-2.088-3.744-3.096-4.536-5.328-7.92
	c-2.808-0.432-4.247,0.216-6.911,0.936c0.936,3.744,8.495,0.72,7.703,8.137c-9.144,2.447-17.928,7.487-26.784,11.088
	c-10.655,2.879-13.607,3.312-13.968,3.672c-1.872,0.432-5.327,1.296-9.144,2.159v-14.688c4.32-1.296,11.159-3.168,15.624-2.736
	c0.863,3.096,7.416,6.265,10.367,6.265c-2.592-4.176-9.215-5.328-7.127-14.256c-0.289-0.072-0.648-0.144-0.937-0.216
	c-2.088,2.376-3.528,3.528-3.6,6.264c-4.248,0.936-9.36,1.944-14.328,3.528V390.596z M428.9,381.668
	c-0.36,1.08-1.296,3.168-1.368,4.104c2.159,0,4.392,0,6.552,0c-0.504,2.664-0.937,4.68-0.864,7.344
	c0.864,0.072,1.8,0.144,2.736,0.216c0.433-1.08,0.792-1.944,1.08-2.736v7.704c-6.264,1.872-12.456,4.536-16.488,8.496
	c-0.72,0.432-1.512,0.864-2.232,1.296c0.145-5.544,0.433-9.936,2.809-14.976c1.584-3.6,3.6-6.84,5.832-10.44l0,0l0,0l0,0
	c1.512-2.448,5.616-6.192,10.08-9.576v6.696c-0.144,0.36-0.36,0.792-0.576,1.224C433.939,381.092,431.636,381.524,428.9,381.668
	L428.9,381.668L428.9,381.668L428.9,381.668L428.9,381.668z M437.036,399.452c-4.248,1.296-17.856,8.424-18.721,14.544v1.225
	c0,0,0,0,0,0.071c3.457,1.656,11.809,0.36,18.721-1.152V399.452z"/>
<path fill-rule="evenodd" clip-rule="evenodd" d="M516.956,370.508c-1.08-0.72-1.656-1.656-2.521-2.016c0-0.36,0-0.72,0-1.08
	c0.576,0.144,1.152,0.216,1.8,0.36c0,0.216,0,0.504,0,0.72c1.08,0.576,1.08,0.576,2.017,0.36c0-0.216,0.072-0.504,0.145-0.72
	c-0.217,0-0.433,0-0.721,0c0-0.432,0-0.936,0-1.44c0.576,0.072,1.225,0.216,1.872,0.36c-0.144,1.008-0.288,2.088-0.359,3.096
	C518.396,370.292,517.676,370.364,516.956,370.508L516.956,370.508L516.956,370.508L516.956,370.508z"/>
<path fill-rule="evenodd" clip-rule="evenodd" fill="#CCCCFF" d="M527.611,362.804c-3.096-1.728-16.055-5.976-18.719-6.408
	c0.432,0,9.215-5.256,9.215-5.544c0.145,0,0.433,0,0.648,0c-0.145-0.432-0.216-0.864-0.359-1.296
	c-6.121,0.432-8.208,2.736-13.177,5.904c-5.04-0.216-8.424-1.296-13.896-1.296c0.072-0.576,0.216-1.224,0.359-1.8
	c-2.16,0.792-1.295,1.44-4.031,1.44c2.016-3.672,0.72-2.16,2.952-4.464c2.231-2.376,4.823-5.616,9-6.768
	c1.943-0.576,4.248-0.288,8.567,0.216c0,1.512,8.855,3.888,9.936,4.032c0,0.288,0,0.504,0,0.72c0.433,0,0.504,1.368,1.009,1.368
	c0,0.72,1.872-0.144,1.872,0.648c5.688,2.376,6.623,3.6,12.455,9.432c0.361,1.368,1.009,1.152,0.721,2.52
	C530.853,362.084,530.924,362.228,527.611,362.804L527.611,362.804L527.611,362.804L527.611,362.804z"/>
<path fill-rule="evenodd" clip-rule="evenodd" fill="#CCCCFF" d="M463.819,357.836c2.449-9.432,6.985-13.608,14.977-21.24
	c6.265,0,12.384,0.36,18.72,1.08c0,3.384-10.728,12.6-10.439,13.176c-1.224,2.448-1.368,2.736-3.816,2.952
	c0.072-0.576,0.217-1.152,0.36-1.656c0.937-1.152,6.192-10.224,6.192-11.88c-0.217,0-0.505,0-0.721,0c0,0-2.088,1.728-2.16,1.8
	c-0.359,1.512-9.288,12.744-10.152,13.608C474.403,355.892,466.269,357.332,463.819,357.836L463.819,357.836L463.819,357.836
	L463.819,357.836z"/>
<path fill-rule="evenodd" clip-rule="evenodd" d="M470.805,354.956c0.431-2.664,5.184-12.456,7.848-15.552
	c1.728-0.072,0.863-0.576,4.248-0.072c0.072,0.288,0.216,0.576,0.359,0.936c-3.888,2.736-9.144,10.152-11.376,14.472
	C471.523,354.812,471.164,354.884,470.805,354.956L470.805,354.956L470.805,354.956L470.805,354.956z"/>
<path fill-rule="evenodd" clip-rule="evenodd" fill="#CCCCFF" d="M422.779,413.636c12.312-7.344,30.673-12.384,32.904-13.536
	c2.377,1.44,4.536,2.665,7.272,2.881c-0.648-1.369-2.448-2.809-3.888-3.961c7.92-2.52,15.552-5.04,23.399-7.631
	c2.448,0.576,4.104,1.872,4.248,3.456c-10.224,3.6-20.016,8.568-30.239,12.312c-10.513,2.88-29.161,7.775-31.969,7.487
	C421.7,414.428,422.204,413.996,422.779,413.636L422.779,413.636L422.779,413.636L422.779,413.636z"/>
<path fill-rule="evenodd" clip-rule="evenodd" fill="#CCCCFF" d="M505.868,384.188c0.792,1.224,1.296,1.728,1.151,5.976
	c11.377-0.792,23.761,3.096,33.408,12.096C535.389,391.748,522.645,382.316,505.868,384.188L505.868,384.188L505.868,384.188
	L505.868,384.188z"/>
<path fill-rule="evenodd" clip-rule="evenodd" fill="#FFFFFF" d="M437.18,250.484c38.089-13.464,95.185-31.608,114.264-40.32
	c20.305-9.288,22.896,25.056,5.113,37.944c-17.281,12.456-112.537,40.536-131.904,41.688
	C418.244,277.628,433.004,263.588,437.18,250.484L437.18,250.484L437.18,250.484L437.18,250.484z"/>
<polygon fill-rule="evenodd" clip-rule="evenodd" fill="#CCCCFF" points="495.86,229.964 507.235,225.284 488.372,264.524 
	479.229,268.484 495.86,229.964 495.86,229.964 "/>
<path fill-rule="evenodd" clip-rule="evenodd" fill="#CCCCFF" d="M425.731,253.076c-5.111-1.944,25.921-6.984,25.561-1.224l0,0
	l-19.008,36.072l0,0c0,0-10.584,2.448-7.2-0.864c3.456-3.384,9.504-14.688,7.776-19.872
	C434.516,261.788,426.523,253.364,425.731,253.076L425.731,253.076L425.731,253.076L425.731,253.076z"/>
<path fill-rule="evenodd" clip-rule="evenodd" fill="#CCCCCC" d="M394.916,327.74c0-0.216,0-0.504,0-0.72
	c9.072-2.808,18.216-2.88,27.432-6.84c1.872,0,1.872,0,7.776-1.224c-0.433,0.648-0.792,1.296-1.151,2.016
	C417.596,323.204,406.292,325.94,394.916,327.74L394.916,327.74L394.916,327.74L394.916,327.74z"/>
<path fill-rule="evenodd" clip-rule="evenodd" fill="#CCCCCC" d="M379.508,322.196c0-0.216,0-0.504,0-0.72
	c16.057-3.744,32.544-6.552,48.744-10.08c10.296-2.952,14.256-4.392,17.567-5.184c2.593-1.08,2.593-1.08,4.393-1.08
	c0.576,0.576,0.576,0.576,0.432,1.512C427.819,314.132,403.269,320.18,379.508,322.196L379.508,322.196L379.508,322.196
	L379.508,322.196z"/>
<path fill-rule="evenodd" clip-rule="evenodd" d="M376.269,261.716c0.216-0.072,0.432-0.216,0.647-0.288
	c1.728-1.296,2.304-3.816,2.376-4.608c0.216-1.944-1.08-2.88-1.296-5.112c-0.576,0-1.152,0-1.728,0.072v-18.504
	c4.319-3.816,5.976-5.616,11.304-1.584c1.8,4.32-1.152,6.336-2.377,10.08c0,2.376,0.217,3.024,1.225,5.328
	c2.664,0.432,11.448-2.448,13.752-3.456c1.225-10.08,3.097-17.64,6.408-27.216c7.56-1.944,13.104,1.729,16.92,3.672
	c3.744,2.016,10.08,8.64,11.735,10.872c6.625,5.184,6.408,8.712,6.192,17.064c0.937,0.072,1.872,0.216,2.736,0.36
	c0,2.088-1.872,3.96-3.816,4.392c0-0.864,0-1.728,0-2.52c-1.367,0.576-2.808,1.152-4.248,1.8c-0.504,2.232-0.504,2.952-3.096,3.312
	c0-1.224,0-2.448,0-3.672c-1.439,0.144-1.8,0.576-2.88,0.72c-0.576-1.44,0.071-1.512-1.513-12.096
	c-0.071-0.72-1.296-1.368-1.799-1.512c-9.36-1.656-8.424-1.8-9.217,7.344c3.889,1.368,7.776,3.168,9.937,6.984
	c1.151,0.792,0.792,0.36,1.44,1.512c3.167,2.376,6.047,9.936,6.263,9.936c-0.359,3.312,0.36,13.824-6.263,20.376
	c-0.145,0.72-0.289,1.584-0.361,2.376c0.505,0,2.736-0.36,2.809-0.576c4.032-7.488,4.176-11.16,7.128-17.28
	c2.88-6.12,5.257-7.632,7.992-12.672c0.36-0.072,4.32-5.544,4.464-5.832c1.728,0,1.225,0,1.801,0.72
	c0.791,5.184-2.017,11.952-6.049,15.768c-3.168,5.688-9.216,12.24-10.8,18c1.944-1.152,4.536-0.792,5.544-1.224
	c0.072-0.504,2.448-1.224,2.52-1.728c4.249,0.072,7.272-0.288,11.521-1.08c0.288-0.648,0.504-1.224,0.72-1.8
	c0.576-0.072,1.152-0.144,1.656-0.216c0.216,0.288,0.504,0.504,0.72,0.72c4.104-0.36,4.104-0.36,12.169-1.8
	c0.431-1.368,0.936-2.592,1.439-3.888c2.159,0.288,1.944,0.504,2.159,2.592c1.369-0.144,2.665-0.288,4.104-0.36
	c-0.144-0.72-0.288-1.512-0.432-2.232c0.288,0,0.504,0,0.72,0c0.144,0.576,0.288,1.224,0.433,1.872c0.576,0,1.151,0.072,1.799,0.144
	c1.152-1.152,1.297-2.376,1.08-3.816c1.009,0.072,1.944,0.216,2.953,0.36c-0.288,2.376-1.08,6.408-4.393,6.408
	c-0.433-0.36-0.72-0.792-1.08-1.08c-3.24,0.432-6.48,0.504-8.783,2.952c-0.505,0-1.009,0.072-1.513,0.144
	c-0.145-0.288-0.216-0.648-0.36-0.936c-1.439,0-1.439,0-11.736,3.672c-5.111,0.288-10.223,0.936-14.327,4.104
	c-1.08,0-1.08,0-1.8-0.792c-2.521,0.36-2.521,0.36-8.425,2.016c-0.287,2.952-0.216,5.544-1.439,8.28
	c-9.288,2.52-19.656,6.264-29.016,8.064c-2.521,1.296-5.328,1.872-7.993,2.016c-0.287-0.72-0.504-1.44-0.792-2.16
	c-5.256-0.576-12.023-0.72-17.135,1.296v-10.08c9.647-2.664,9.504-3.168,13.463-3.888c0.073-0.432,0.145-0.864,0.217-1.296
	c-2.376-0.864-8.208-4.392-8.784-5.112c-2.304-2.88-3.24-5.832-4.824-9.576c0,0,0,0-0.071,0V261.716z M354.235,311.036
	c-0.504-0.072-1.007-0.144-1.512-0.144c0-0.288,0-0.504,0-0.792c-4.104-0.576-5.688-4.536-5.904-9.504v-3.024
	c0.361-7.632,2.953-16.416,4.249-19.44c1.512-1.44,2.16-2.952,4.392-4.752c4.393-5.616,14.256-8.496,20.809-11.664v15.336
	c-11.376-1.152-4.537,15.12-13.608,15.768c0,1.728,0,3.456,0,5.184c1.152,0,2.592,0.648,3.816,0.72l0,0l0,0l0,0
	c3.167-0.36,6.264-0.792,9.359-1.656c0.145-0.072,0.288-0.072,0.433-0.144v10.08c-0.288,0.072-0.504,0.216-0.792,0.36
	C368.132,308.156,361.436,311.036,354.235,311.036L354.235,311.036L354.235,311.036L354.235,311.036L354.235,311.036z
	 M376.269,251.78c-4.464,0.36-7.345,2.664-11.809,2.448c-1.08,0-2.088-1.152-2.592-2.16c-2.952-6.12,3.239-9.648,7.344-12.888
	c1.512-1.152,4.177-3.456,5.688-4.752c0.503-0.36,0.936-0.792,1.368-1.152V251.78z"/>
<path fill-rule="evenodd" clip-rule="evenodd" fill="#FF6600" d="M356.036,307.364c-5.257,0.648-5.472-3.024-5.904-4.464
	c-1.512-5.472,0.504-11.736,1.08-15.192c0.36-2.016,2.448-6.408,3.384-8.064c1.872-3.6,19.368-11.52,19.368-13.248
	c0.504,0,1.009,0,1.513,0c-0.217,4.824-0.217,4.824-0.721,6.408c-1.367,0.432-3.456,0.144-4.248,1.296
	c-3.168,4.464-1.8,3.744-4.752,10.296c-0.72,1.584-0.216,2.376-2.592,4.752c-1.225,0.648-0.792-0.288-2.017,0
	c0.072-6.84,0.288-5.904,3.672-11.016c-8.279,0.432-7.847,9.936-7.703,12.168c0.216,3.312,1.512,8.28,3.096,9.864
	c2.304,2.232,16.272-0.072,18.864-1.08c2.447-0.936,6.048-1.296,9.216-1.8c0,1.08,0.072,2.16,0.144,3.312
	c-0.504,0.504-9.216,2.232-9.647,2.304C372.309,304.124,361.22,306.644,356.036,307.364L356.036,307.364L356.036,307.364
	L356.036,307.364z"/>
<path fill-rule="evenodd" clip-rule="evenodd" fill="#FF6600" d="M393.403,303.476c-0.215-1.368-1.439-2.808-1.8-4.032
	c-1.008-3.312,1.873-4.32,2.881-6.984c1.584,0.216,5.831,0.288,7.344,0c6.84-1.152,9.432-2.088,15.407-4.392
	c0-1.008,0-1.944,0-2.952c-4.751,1.872-18.216,5.472-23.832,4.392c-5.615-1.008-12.599-9.864-12.815-9.864
	c-0.216-1.584-0.576-4.968-2.016-5.544c-0.072-1.008,0.144-4.032-0.937-4.032c0.576-2.952,0.576-2.952,2.593-9.144
	c1.439-0.576,2.16-2.808,2.951-4.104c2.016,0.648,2.016,1.296,1.801,3.312c-1.08,0.432-2.232,0.864-3.312,1.296
	c-0.937,8.28-0.937,8.28-0.72,9.792c2.592,0.72,4.608-0.864,9.792-1.439c1.008,2.088,13.32,6.264,16.271,0.288
	c0.937-1.944,0.937-2.376,1.44-4.248c2.159-1.08,5.112-0.72,7.128-2.016c0.504-2.16,0.288-8.136-0.145-10.224
	c-3.527-1.8-6.84-1.44-10.296,0.36c-0.504-2.736,2.376-2.52,4.393-3.312c-0.505-1.368-1.656-2.16-2.736-2.592
	c-0.072-0.432-0.144-0.72-0.216-1.08c2.952,0.432,5.904,0.936,8.855,1.44c0,0.288,0,0.504,0,0.72
	c2.809,1.08,4.176,3.168,5.473,5.544c3.312,5.976,5.832,5.616,5.111,17.784c-0.359,6.192-3.959,10.728-6.768,11.592
	c0.216,1.224,0.721,2.52,0.937,3.816c-0.721,0.792-0.721,0.792-1.513,0.936c-0.144,1.008-0.216,1.944-0.36,2.952
	c1.513,0.504,1.513,0.36,3.312,1.8c1.296,0.72,0.937,1.152,2.232,1.152c-0.648,4.608-27.576,6.552-28.225,8.64
	C394.844,303.332,394.124,303.404,393.403,303.476L393.403,303.476L393.403,303.476L393.403,303.476z"/>
<path fill-rule="evenodd" clip-rule="evenodd" fill="#CCCCCC" d="M437.396,292.46c0-0.36,0-0.72,0-1.08
	c9.792-3.744,20.951-5.256,31.176-7.704c-0.145,0.288-0.288,0.576-0.36,0.936c-7.704,1.872-15.407,3.744-23.112,5.112
	C439.988,291.524,439.628,291.956,437.396,292.46L437.396,292.46L437.396,292.46L437.396,292.46z"/>
<path fill-rule="evenodd" clip-rule="evenodd" fill="#FFFFFF" d="M423.5,284.396c0.432-2.736,4.752-6.696,5.616-9.504
	c2.016-6.48-1.512-14.544-6.192-21.312c0.072-0.36,0.145-0.648,0.216-1.008c0.576,0.072,1.152,0.144,1.8,0.216
	c1.873,2.304,7.129,10.152,7.129,13.248C431.924,271.364,430.484,283.46,423.5,284.396L423.5,284.396L423.5,284.396L423.5,284.396z"
	/>
<path fill-rule="evenodd" clip-rule="evenodd" d="M386.42,279.428c-1.512-0.576-2.52-2.736-1.439-4.248
	c1.08-1.44,3.023-1.512,5.111-0.288c2.16,1.152,0.936,3.6,0,4.752C389.229,280.724,388.004,280.004,386.42,279.428L386.42,279.428
	L386.42,279.428L386.42,279.428z"/>
<path fill-rule="evenodd" clip-rule="evenodd" fill="#CCCCCC" d="M522.859,277.412c1.369-1.368,30.601-13.896,32.977-17.28
	c-1.512,4.104-15.12,10.08-19.439,11.952C532.076,273.884,526.532,276.188,522.859,277.412L522.859,277.412L522.859,277.412
	L522.859,277.412z"/>
<path fill-rule="evenodd" clip-rule="evenodd" d="M409.532,275.18c-0.937-1.512-0.72-4.536,0-5.832c0.72-1.368,2.232-0.072,3.312,0
	c1.08,0.072,0.072,1.08,1.296,1.368c1.225,0.288,1.008,3.456-0.36,4.176C412.34,275.54,410.468,276.764,409.532,275.18
	L409.532,275.18L409.532,275.18L409.532,275.18z"/>
<path fill-rule="evenodd" clip-rule="evenodd" d="M498.668,272.66c0.504-4.464,0.504-4.464,1.08-4.968
	c0.432,0.072,0.863,0.144,1.225,0.216C500.828,270.284,501.332,271.868,498.668,272.66L498.668,272.66L498.668,272.66
	L498.668,272.66z"/>
<path fill-rule="evenodd" clip-rule="evenodd" d="M513.284,271.868c0.072-2.232,0.863-2.664,1.439-4.752
	c-1.8-0.144-1.8-0.144-6.552,0.792c-0.359,0.936-1.584,2.448-2.592,2.88c0.288-1.944,0.504-3.96,0.72-5.904
	c0.576,0.144,1.152,0.288,1.656,0.432c0.216,0.504,0.359,1.008,0.576,1.44c5.327-1.728,6.191-0.864,7.703-5.544
	c1.297,0.144,1.297,0.576,2.161,1.656c5.111-1.224,7.416-2.88,11.735-4.032c1.44-0.36,10.368-3.888,10.656-4.896
	c4.031-1.44,10.8-4.104,13.896-7.2c0.433,0.072,0.864,0.144,1.297,0.216c0.576,1.152,0.647,3.024-0.145,4.176
	c-0.863,0.072-1.729,0.144-2.592,0.216c0.071,2.592-0.288,5.904-0.36,6.696c-0.504-0.072,0.072,0.936-3.96,1.44
	c1.656-1.944,1.729-3.24,2.52-6.696c-1.151,0-2.231,0-3.312,0c-0.647,1.224-0.647,1.08-1.872,1.44
	c-0.72,2.664-2.088,8.352-5.112,9.216c0.648-2.232,1.225-4.392,1.872-6.624c-3.239,0.504-4.607,0.72-6.983,3.168
	c-4.392,0.864-16.488,4.392-19.296,7.128C516.092,269.276,515.516,271.22,513.284,271.868L513.284,271.868L513.284,271.868
	L513.284,271.868z"/>
<path fill-rule="evenodd" clip-rule="evenodd" d="M478.796,268.988c-0.216-9,4.536-18.36,9.792-25.344
	c1.008-3.456,6.48-9.72,5.977-11.952c-2.881,0.864-5.833,1.728-8.785,2.52c-4.104,1.728-8.352,4.32-12.815,4.608
	c0,0.288,0,0.504,0,0.792c-3.96,0.432-9,4.32-13.536,5.112c0.576-1.872,0.792-4.248,1.801-5.544c1.007-1.224,1.584-1.44,2.231-2.52
	c0.216,0,0.433,0,0.72,0c0.937,1.872,0.288,2.808-0.36,4.752c2.449-0.288,7.921-3.312,10.081-4.392
	c0.576-2.952,1.08-6.192,4.607-6.984c-0.216,2.232-0.647,3.384-1.512,5.472c5.111-1.656,5.111-1.656,6.264-2.376
	c1.44-3.888,1.225-5.688,5.112-6.408c-0.576,2.952-0.937,3.312-1.152,4.824c2.376-0.72,3.888-2.664,5.184-4.68
	c0.433,0.072,0.865,0.144,1.297,0.216c0,0.36,0.072,0.72,0.144,1.152c2.592-0.216,2.592-0.216,3.528-0.792
	c0-0.72,0.071-1.44,0.144-2.232c0.864-0.216,1.656-0.432,2.592-0.648c0,0.216,0,0.432,0,0.648c4.896-0.36,3.889-3.096,6.984-3.96
	c0.072,0.648,0.216,1.296,0.36,2.016c6.479-0.648,7.56-2.592,10.8-7.92c0.792-0.288,1.584-0.504,2.376-0.72
	c-0.288,1.224-0.504,2.448-0.72,3.672c4.104-0.864,8.064-4.608,12.456-4.608c1.44,1.512-1.368,3.384-2.376,4.968
	c-7.057,0.144-15.265,5.112-21.816,7.488c-1.296,2.808-1.296,2.808-2.736,8.28c-3.671,7.344-4.463,9.576-14.688,29.376
	c-1.152,0.432-2.017,0.288-2.017,1.512c-0.216,0-0.503,0-0.72,0c0.072-1.368,0.217-2.736,0.36-4.104
	c1.44-3.312,4.464-9.432,6.048-13.536c0.504-1.872,4.176-8.928,5.688-10.152c1.225-2.808,4.824-8.568,5.112-9.72
	c-2.735,0.216-4.608,1.584-6.984,1.872c-0.863,1.08-1.151,1.152-1.224,1.872c-0.432,2.88-0.792,3.24-0.792,6.192
	c-1.44,1.872-1.151,1.944-1.655,2.952c-1.729,3.96-4.896,11.016-6.192,12.888C487.147,255.452,482.684,268.052,478.796,268.988
	L478.796,268.988L478.796,268.988L478.796,268.988z"/>
<path fill-rule="evenodd" clip-rule="evenodd" fill="#FFCC00" d="M384.98,267.908c0-0.288,0-0.504,0-0.792c-0.216,0-0.504,0-0.721,0
	c0.072-0.936,0.217-1.944,0.36-2.88c9-2.448,18.145-6.192,27.504-7.416c-0.144,1.44-0.288,2.808-0.359,4.248
	c-3.097,1.584-15.265,2.448-17.28,4.392C387.212,266.972,387.212,266.972,384.98,267.908L384.98,267.908L384.98,267.908
	L384.98,267.908z"/>
<path fill-rule="evenodd" clip-rule="evenodd" fill="#FF6600" d="M387.572,258.692c0-1.08,0.071-2.232,0.144-3.312
	c-0.432-0.216-0.863-0.504-1.296-0.72c0.216-3.528,5.112-5.328,8.496-6.624s7.272-0.72,10.944-1.08c0,0.36,0,0.648,0,1.08
	c-0.721,0.144-1.44,0.36-2.16,0.576c-0.216,1.152-0.432,2.304-0.576,3.456c-4.319-2.88-10.008-0.216-12.312,1.872
	C388.58,255.956,390.092,257.828,387.572,258.692L387.572,258.692L387.572,258.692L387.572,258.692z"/>
<path fill-rule="evenodd" clip-rule="evenodd" fill="#FFFFFF" d="M364.819,251.708c-1.8-3.6,7.704-12.024,11.017-14.184
	c0.504-0.864,0.504-0.864,1.439-1.224c0.433,1.656-1.439,3.24-3.096,4.392C370.652,243.14,367.844,250.844,364.819,251.708
	L364.819,251.708L364.819,251.708L364.819,251.708z"/>
<path fill-rule="evenodd" clip-rule="evenodd" d="M562.46,249.476c-0.288-2.52-2.231-7.776-1.872-9.36
	c0.504-0.072,0.936-0.144,1.439-0.144c1.225,2.592,3.745,6.264,1.873,9.36C563.396,249.332,562.893,249.404,562.46,249.476
	L562.46,249.476L562.46,249.476L562.46,249.476z"/>
<path fill-rule="evenodd" clip-rule="evenodd" fill="#FF6600" d="M432.644,249.116c0.072-3.312,1.225-7.488-0.359-9.936
	c-1.512-2.376-1.368-3.096-8.064-4.392c-4.464-0.864-4.176-0.864-9.216,1.152c0,0.216-0.576,11.232-1.08,8.064
	c-1.8,0-5.616-0.648-9.863-0.72c0.071-1.152,0.647-7.992,1.8-11.376c1.151-3.456,3.384-10.44,4.032-12.888
	c1.511,0,4.464-0.504,8.927,1.8c4.393,2.232,16.129,12.888,19.297,18c1.584,2.592,0.36,6.12,0.575,9.216
	C437.756,248.972,434.229,248.972,432.644,249.116L432.644,249.116L432.644,249.116L432.644,249.116z"/>
<path fill-rule="evenodd" clip-rule="evenodd" d="M453.164,248.18c-0.288-0.144-0.576-0.36-0.936-0.504
	c0-2.952,1.079-6.192,3.888-6.984c-0.72,2.448-1.368,4.896-2.017,7.344C453.74,248.036,453.452,248.108,453.164,248.18
	L453.164,248.18L453.164,248.18L453.164,248.18z"/>
<path fill-rule="evenodd" clip-rule="evenodd" d="M566.78,240.476c-0.576-2.232-1.224-2.808-2.736-4.536
	c0.072-0.576,0.145-1.152,0.216-1.728c0.432,0,0.936,0,1.44,0c0.72,0.792,0.72,0.792,1.08,2.088c0.359,0,0.72,0,1.151,0
	c0,1.296,0.072,2.664,0.145,4.032C567.645,240.404,567.212,240.476,566.78,240.476L566.78,240.476L566.78,240.476L566.78,240.476z"
	/>
<path fill-rule="evenodd" clip-rule="evenodd" d="M569.731,234.212c-0.72-0.648-0.72-0.648-1.439-0.864c0-0.216,0-0.504,0-0.72
	c-0.72-0.216-1.512-0.432-2.16-0.576c-0.071-0.648-0.144-1.368-0.216-2.016c0.864-0.072,1.8-0.144,2.736-0.216
	c1.656,1.728,2.663,2.088,2.88,4.608C570.956,234.356,570.309,234.284,569.731,234.212L569.731,234.212L569.731,234.212
	L569.731,234.212z"/>
<path fill-rule="evenodd" clip-rule="evenodd" d="M572.684,224.924c-1.008-1.224-1.8-0.576-5.472-1.512
	c-0.576-1.44-0.576-1.44-0.432-2.376c2.951,0,4.464,1.152,7.2,2.736c0.144,0.72,0.359,1.44,0.576,2.232
	C572.9,226.004,573.691,226.076,572.684,224.924L572.684,224.924L572.684,224.924L572.684,224.924z"/>
<path fill-rule="evenodd" clip-rule="evenodd" fill="#CCCCCC" d="M494.204,218.3c0.144-0.288,0.216-0.648,0.36-0.936
	c9.504-2.304,19.439-9.937,29.375-10.872c0,0.288,0,0.504,0,0.792C513.716,209.948,504.068,214.556,494.204,218.3L494.204,218.3
	L494.204,218.3L494.204,218.3z"/>
<path fill-rule="evenodd" clip-rule="evenodd" d="M566.132,215.924c-0.288-0.072-0.504-0.144-0.792-0.216
	c0.36-3.96,3.096-2.592,5.544-0.936c0,0.288,0.072,0.648,0.144,0.936C569.372,215.78,567.716,215.852,566.132,215.924
	L566.132,215.924L566.132,215.924L566.132,215.924z"/>
<path fill-rule="evenodd" clip-rule="evenodd" d="M538.916,215.492c-0.216-0.072-0.432-0.144-0.721-0.144
	c0.145-3.456,1.801-4.968,5.185-5.688C543.668,211.316,540.284,215.204,538.916,215.492L538.916,215.492L538.916,215.492
	L538.916,215.492z"/>
<path fill-rule="evenodd" clip-rule="evenodd" d="M550.292,211.82c-0.216-0.072-0.504-0.144-0.72-0.144
	c0.216-3.024,5.039-7.344,8.208-6.624C557.78,207.212,551.66,211.82,550.292,211.82L550.292,211.82L550.292,211.82L550.292,211.82z"
	/>
<path fill-rule="evenodd" clip-rule="evenodd" d="M562.027,211.82c0-0.648,0-1.296,0-2.016c2.521-0.792,4.969-2.016,7.561-0.72
	C569.588,211.532,564.044,211.82,562.027,211.82L562.027,211.82L562.027,211.82L562.027,211.82z"/>
</svg>
