<?xml version="1.0" encoding="utf-8"?>
<!-- Generator: Adobe Illustrator 16.0.4, SVG Export Plug-In . SVG Version: 6.00 Build 0)  -->
<!DOCTYPE svg PUBLIC "-//W3C//DTD SVG 1.1//EN" "http://www.w3.org/Graphics/SVG/1.1/DTD/svg11.dtd">
<svg version="1.1" xmlns="http://www.w3.org/2000/svg" xmlns:xlink="http://www.w3.org/1999/xlink" x="0px" y="0px" width="792px"
	 height="612px" viewBox="0 0 792 612" enable-background="new 0 0 792 612" xml:space="preserve">
<g id="body">
	<path d="M372.413,52.462c-8.1,6.525-57.825,32.175-93.375,67.274c-33.086,32.667-76.5,84.6-104.399,148.499
		c-27.9,63.9-65.7,155.699-69.3,195.299c-3.6,39.6-6.846,66.544,10.8,83.699c10.8,10.5,18.9,15.9,47.7,14.4
		c28.222-1.47,40.5-14.4,50.4-23.399c9.9-9,18.3-23.4,31.8-24.3c13.5-0.9,24.9,2.7,41.1,17.1s29.7,28.8,46.8,27.9
		c17.1-0.9,32.4-2.7,36.9-13.5c4.5-10.8,8.1-23.4-2.7-60.3c-10.8-36.899-23.175-95.624-28.8-117.899
		c-5.298-20.979-20.7-89.1-21.6-121.499c-0.581-20.923-0.309-42.113,2.7-66.15c1.921-15.347,8.85-38.475,14.55-53.475
		C340.301,112.129,380.513,45.938,372.413,52.462z"/>
	<path fill="#FFFFFF" d="M311.288,247.311c-6.509-5.913-12.225-11.025-19.35-14.475c-6.668-3.229-27.726-11.204-43.5-14.325
		c-18.816-3.723-25.155-4.099-36.731-4.444c-11.71,17.577-22.01,35.873-31.13,56.762c-42.314,96.912-66.099,163.751-68.785,193.292
		l-0.416,4.554c-3.29,35.877-5.463,59.579,9.28,73.913c9.498,9.235,15.718,13.988,42.845,12.575
		c24.126-1.256,34.93-11.197,44.461-19.967l1.917-1.756c2.438-2.217,4.833-4.853,7.368-7.645c7.448-8.2,15.889-17.495,28.359-18.326
		c16.583-1.105,29.435,4.144,45.836,18.722l5.608,5.05c12.949,11.738,24.131,21.875,36.545,21.222
		c14.119-0.743,28.163-2.09,31.259-9.521c3.519-8.447,7.899-18.959-2.938-55.987c-7.402-25.292-15.334-59.868-21.708-87.65
		c-2.884-12.574-5.375-23.433-7.156-30.483C328.701,351.58,312.293,281.532,311.288,247.311z"/>
</g>
<g id="nose">
	<path fill="#D2232A" stroke="#000000" stroke-width="5" d="M167.236,288.942c-24.389-17.936-24.113-56.528,0.615-86.197
		c24.728-29.669,64.546-39.181,88.935-21.246c24.389,17.935,24.113,56.528-0.615,86.197S191.625,306.877,167.236,288.942z"/>
	<path fill="#FFFFFF" d="M200.604,220.024c-6.283-4.634-6.212-14.604,0.158-22.27c6.371-7.665,16.628-10.123,22.911-5.489
		c6.283,4.634,6.212,14.604-0.158,22.27C217.145,222.201,206.887,224.658,200.604,220.024z"/>
</g>
<g id="number_one">
	<path d="M91.502,162.431c-1.069,0.9-6.413,7.256-6.413,12.206c0,4.95,11.25,48.149,11.25,58.95c0,10.8-0.9,42.75-3.6,49.049
		s-8.1,13.95-9,21.6c-0.9,7.65,2.25,16.65,4.95,20.7c2.7,4.05,9.9,10.35,9.9,10.35s-11.7,8.1-13.5,13.05s-4.05,13.95-0.9,18.45
		c3.15,4.5,18,18.45,19.35,22.5c1.35,4.05,7.2,16.2,8.1,18s5.85,8.1,17.1,9c11.25,0.9,24.3,0,28.8-3.15
		c4.5-3.15,13.95-14.399,17.55-19.8c3.6-5.4,9-21.6,9-21.6s0.9-0.45,7.2-0.9c6.3-0.45,14.4-5.85,16.2-10.8
		c1.8-4.95,0.45-13.05-0.45-14.85c-0.9-1.8-3.15-1.35-4.95-7.65c-1.8-6.3-5.85-18.9-5.85-18.9s-0.9-4.95-4.05-7.65
		c-3.15-2.7-4.05-5.4-7.65-4.5c-3.6,0.9-4.95,1.8-4.95,1.8s-2.25-15.75-4.95-18.9c-2.7-3.15-2.25-11.7-7.2-13.5
		c-4.95-1.8-18.9,1.35-21.6,3.15c-2.7,1.8-18.45,4.95-18.45,4.95s5.625,0.45,6.525-5.85c0.9-6.3,2.025-33.3,0.675-36.899
		c-1.35-3.6-3.15-10.8-3.15-10.8s-1.8-13.95-1.8-18c0-4.05-1.8-7.2-2.7-9.9c-0.9-2.7-2.7-6.3-2.7-6.3s0-12.15-2.25-18
		c-2.25-5.85-4.5-15.3-9.45-18c-4.95-2.7-6.019-3.544-11.7-2.25C94.317,159.472,92.571,161.53,91.502,162.431z"/>
</g>
<g id="hand_details">
	<path fill="none" stroke="#808080" d="M91.502,162.431c-1.069,0.9-6.413,7.256-6.413,12.206c0,4.95,11.25,48.149,11.25,58.95
		c0,10.8-0.9,42.75-3.6,49.049s-8.1,13.95-9,21.6c-0.9,7.65,2.25,16.65,4.95,20.7c2.7,4.05,9.9,10.35,9.9,10.35
		s-11.7,8.1-13.5,13.05s-4.05,13.95-0.9,18.45c3.15,4.5,18,18.45,19.35,22.5c1.35,4.05,7.2,16.2,8.1,18s5.85,8.1,17.1,9
		c11.25,0.9,24.3,0,28.8-3.15c4.5-3.15,13.95-14.399,17.55-19.8c3.6-5.4,9-21.6,9-21.6s0.9-0.45,7.2-0.9
		c6.3-0.45,14.4-5.85,16.2-10.8c1.8-4.95,0.45-13.05-0.45-14.85c-0.9-1.8-3.15-1.35-4.95-7.65c-1.8-6.3-5.85-18.9-5.85-18.9
		s-0.9-4.95-4.05-7.65c-3.15-2.7-4.05-5.4-7.65-4.5c-3.6,0.9-4.95,1.8-4.95,1.8s-2.25-15.75-4.95-18.9c-2.7-3.15-2.25-11.7-7.2-13.5
		c-4.95-1.8-18.9,1.35-21.6,3.15c-2.7,1.8-18,7.2-18,7.2s5.175-1.8,6.075-8.1c0.9-6.3,2.025-33.3,0.675-36.899
		c-1.35-3.6-3.15-10.8-3.15-10.8s-1.8-13.95-1.8-18c0-4.05-1.8-7.2-2.7-9.9c-0.9-2.7-2.7-6.3-2.7-6.3s0-12.15-2.25-18
		c-2.25-5.85-4.5-15.3-9.45-18c-4.95-2.7-6.019-3.544-11.7-2.25C94.317,159.472,92.571,161.53,91.502,162.431z"/>
	<path fill="none" stroke="#808080" d="M127.839,286.236c0,0-3,0.3-8.7,2.7c-5.7,2.4-5.4,2.1-9.6,3.6"/>
	<path fill="none" stroke="#808080" d="M112.24,321.936c0,0,5.7-1.8,10.2-1.8c4.5,0,6-0.6,14.7,0.3s13.2,2.1,17.4,1.5
		s9.9,0.3,14.1-2.4c4.2-2.7,5.7-4.2,7.8-6.6c2.1-2.4,2.1-4.8,2.1-4.8"/>
	<path fill="none" stroke="#808080" d="M105.639,356.135c0,0,6.3-3.6,11.7-2.1s8.7,2.1,14.4,6.3c5.7,4.2,12,6.6,10.8,10.2
		c-1.2,3.6-4.05,9.75-3.15,12.75c0.9,3,0.15,4.05,3.75,4.65c3.6,0.6,6,1.2,10.5-0.6c4.5-1.8,6.9-2.7,9.3-4.8
		c2.4-2.1,7.5-9.9,9.9-13.8s4.5-13.2,3.9-18.3c-0.6-5.1,0.3-14.7-3.9-18.3c-4.2-3.6-9.3-5.1-12.6-6.3c-3.3-1.2-12-3.9-12-3.9"/>
	<path fill="none" stroke="#808080" d="M176.739,363.335c1.5,2.7,2.1,3,3.9,4.5c1.8,1.5,3.45,3.9,3.45,3.9"/>
	<path fill="none" stroke="#808080" d="M124,196.75c0,0-0.25,1.5-1,3.25"/>
	<path fill="none" stroke="#808080" d="M131.439,230.436c-0.939,2.314-0.689,2.814-2.189,4.814"/>
</g>
<g id="arm">
	<ellipse transform="matrix(0.1656 0.9862 -0.9862 0.1656 539.8672 -83.3829)" cx="319.212" cy="277.364" rx="23.759" ry="11.455"/>
	<path d="M320.438,261.036c2.7,3.3,2.4,4.5,13.2,8.4c10.8,3.9,11.1,5.1,20.4,6c9.3,0.9,26.25,2.7,43.2,3
		c13.811,0.244,17.4,0.45,31.5,0c13.952-0.445,25.95-1.65,36.3-3.3c8.718-1.39,12-1.35,24.6-3.3c10.873-1.683,9.9,0.6,9.9,0.6
		s-22.709,3.605-34.8,5.1c-13.35,1.65-22.2,2.7-35.399,3.3c-13.2,0.6-18.15,1.05-31.95,0.75c-13.8-0.3-36.3-1.8-42.45-1.65
		c-5.73,0.14-18,0.3-21,3.3s-7.8,4.8-9.3,7.2C323.138,292.836,320.438,261.036,320.438,261.036z"/>
</g>
<g id="paper">
	<rect x="414.038" y="76.537" fill="#FFFFFF" stroke="#000000" width="278.098" height="468.897"/>
</g>
<g id="fingers">
	<path d="M510.209,123.489c12.333-1.184,25.737-14.062,28.615-34.214c2.878-20.153-5.578-36.243-18.888-38.159
		s-26.433,11.068-29.312,31.221C487.748,102.489,499.239,124.542,510.209,123.489z"/>
	<path d="M557.489,121.63c10.354-0.525,24.45-13.358,27.184-32.503c2.735-19.145-5.299-34-17.943-35.821
		c-12.644-1.82-25.111,10.084-27.846,29.229S547.032,122.16,557.489,121.63z"/>
	<path d="M599.624,118.086c9.618,0.02,22.005-12.022,24.466-29.253c2.461-17.23-4.77-30.727-16.149-32.365
		c-11.38-1.638-22.6,9.202-25.061,26.433C580.419,100.131,590.201,118.066,599.624,118.086z"/>
</g>
</svg>
