<?xml version="1.0" encoding="utf-8"?>
<!-- Generator: Adobe Illustrator 16.0.4, SVG Export Plug-In . SVG Version: 6.00 Build 0)  -->
<!DOCTYPE svg PUBLIC "-//W3C//DTD SVG 1.1//EN" "http://www.w3.org/Graphics/SVG/1.1/DTD/svg11.dtd">
<svg version="1.1" id="Layer_1" xmlns="http://www.w3.org/2000/svg" xmlns:xlink="http://www.w3.org/1999/xlink" x="0px" y="0px"
	 width="612px" height="792px" viewBox="0 0 612 792" enable-background="new 0 0 612 792" xml:space="preserve">
<g>
	<path fill="none" stroke="#000000" stroke-width="15.984" stroke-miterlimit="2.6131" d="M160.428,197.371
		c-34.85-1.88-64.08,30.38-71.71,65.01s-0.07,52.2-3.24,144.94c-3.17,92.729,10.15,239.399,11.45,260.64
		c1.29,21.24,7.41,34.77,25.41,36.069c18,1.301,228.96-15.189,243.941-16.42c14.97-1.22,22.68-1.8,30.17-8.06
		c24.689,10.22,107.92,5.9,119.159,4.61c11.23-1.301,11.8-6.48,10.29-17.351c-1.51-10.88-31.25-78.409-55.439-90.51
		c-24.19-12.09-48.24-19.08-70.63-33.771c-22.391-14.68-187.561-167.54-201.241-183.02c-13.68-15.48-55.37-59.04-55.37-101.74
		c0-42.689,10.15-46.8,22.32-46.8c12.17,0,9.43-1.22,16.49,3.03C176.048,197.011,169.498,197.801,160.428,197.371L160.428,197.371z"
		/>
	<path fill-rule="evenodd" clip-rule="evenodd" d="M164.528,189.521c-34.84-1.87-68.11,38.16-75.74,72.86
		c-7.63,34.56-0.141,52.13-3.311,144.87c-1.729,51.12,1.58,118.65,5.11,172.51c0.58-0.58,1.22-1.23,1.87-1.95
		c74.74-87.479,164.81-105.909,236.52-93.6c1.37,0.29,2.811,0.51,4.18,0.8c-55.59-50.12-125.71-115.71-134.5-125.57
		c-13.68-15.41-55.44-59.04-55.44-101.67c0-42.76,14.26-38.88,23.76-38.88c12.46,0.58,13.54,3.82,23.33,10.16
		C194.558,198.951,173.608,189.951,164.528,189.521L164.528,189.521z"/>
	
		<path fill="none" stroke="#000000" stroke-width="10.8" stroke-linecap="round" stroke-linejoin="round" stroke-miterlimit="2.6131" d="
		M173.028,537.711c14.26,1.87,33.55-18.5,46.15-26.86c12.6-8.35,42.77-11.729,43.06-23.04c0.29-11.3-28.08-30.6-50.76-30.6
		c-22.68,0-53.64,5.479-55.66,38.67C153.808,529.071,166.688,536.851,173.028,537.711L173.028,537.711z"/>
	<path fill-rule="evenodd" clip-rule="evenodd" fill="#ED1C24" d="M173.028,537.711c14.26,1.87,33.55-18.5,46.15-26.86
		c12.6-8.35,42.77-11.729,43.06-23.04c0.29-11.3-28.08-30.6-50.76-30.6c-22.68,0-53.64,5.479-55.66,38.67
		C153.808,529.071,166.688,536.851,173.028,537.711L173.028,537.711z"/>
	<path fill-rule="evenodd" clip-rule="evenodd" d="M375.849,683.44c34.28-14.33-23.68-66.89-52.05-79.489
		c-28.371-12.601-47.09-18.36-127.151,10.87c41.181-22.17,68.4-33.69,95.9-34.341c27.5-0.649,68.18,21.74,84.6,38.88
		c16.42,17.131,27,32.761,31.75,63.141L375.849,683.44L375.849,683.44z"/>
	<path fill-rule="evenodd" clip-rule="evenodd" d="M92.458,580.911c-9.72,3.31-8.351,13.319-11.59,27.58
		c-3.24,14.25,17.57,16.119,26.28,11.229c13.9,4.75,19.58,18,26.5,16.771c6.91-1.221,34.561-37.511,34.561-37.511
		c12.81,5.261,80.64-7.27,87.189-13.17c6.55-5.909,40.97-5.33,21.09-28.159c-19.87-22.82-29.66-40.681-57.38-32.041
		c-27.72,8.641-50.62,48.75-53.14,59.19c-10.65,12.31-22.46,21.45-35.35,34.49c-7.77-2.96-14.11-4.9-23.47-6.41
		C107.798,584.29,101.528,577.811,92.458,580.911L92.458,580.911z"/>
	<path fill-rule="evenodd" clip-rule="evenodd" d="M339.929,484.431c10.87-1.8,11.44-4.82,26.56,1.51
		c15.12,6.34,10.66,16.351,15.12,25.78c4.47,9.431,33.2,27.86,23.841,34.56c-9.36,6.69-49.83-12.75-59.761-8.5
		c-9.939,4.25-11.81,13.681-17.21,16.99c-5.4,3.32-29.45,11.881-45.791,13.11c-16.35,1.22-57.39-43.78-45.08-48.53
		c12.32-4.75,75.75-5.399,81.87-3.38c6.12,2.01,13.391-2.6,21.09,3.38c7.711,5.98,11.74,3.74,25.92,5.18
		C370.089,519.641,339.929,484.431,339.929,484.431L339.929,484.431z"/>
	
		<path fill-rule="evenodd" clip-rule="evenodd" fill="#FFFFFF" stroke="#000000" stroke-width="2.016" stroke-miterlimit="2.6131" d="
		M122.768,108.811l76.4-26.859c0,0-23.84,42.189-23.04,52.92c9.86-6.98,25.2-11.521,25.2-11.521s-10.01,23.62-6.12,34.561
		c-11.74,3.1-56.96,20.66-66.89,29.879c1.87-19.01,19.51-54.86,27.93-63.29c-7.771,1.229-18.79,5.26-37.29,18.07
		C122.698,129.691,123.348,118.451,122.768,108.811L122.768,108.811z"/>
	
		<path fill-rule="evenodd" clip-rule="evenodd" fill="#FFFFFF" stroke="#000000" stroke-width="1.8561" stroke-miterlimit="2.6131" d="
		M198.448,148.551l72.57-16.99c0,0-25.99,36.21-26.35,46.15c9.72-5.4,24.19-8.06,24.19-8.06s-11.52,20.59-9,31.03
		c-11.09,1.65-54.21,13.25-64.22,20.66c3.6-17.21,23.33-48.24,31.89-55.15c-7.27,0.36-17.78,2.95-36,12.89
		C196.289,167.631,198.008,157.411,198.448,148.551L198.448,148.551z"/>
	
		<path fill-rule="evenodd" clip-rule="evenodd" fill="#FFFFFF" stroke="#000000" stroke-width="1.7474" stroke-miterlimit="2.6131" d="
		M177.708,226.531l69.55-9.51c0,0-27.57,31.681-28.8,40.97c9.649-4.25,23.399-5.4,23.399-5.4s-12.6,18.29-11.16,28.3
		c-10.51,0.57-51.98,7.561-61.99,13.68c4.899-15.84,26.06-43.2,34.7-48.89c-6.84-0.29-16.84,1.22-34.77,8.85
		C174.039,244.241,176.558,234.811,177.708,226.531L177.708,226.531z"/>
	
		<path fill-rule="evenodd" clip-rule="evenodd" fill="#FFFFFF" stroke="#000000" stroke-width="1.5298" stroke-miterlimit="2.6131" d="
		M225.448,273.401l60.84-8.28c0,0-24.12,27.72-25.2,35.78c8.42-3.67,20.52-4.68,20.52-4.68s-11.09,15.99-9.87,24.7
		c-9.14,0.57-45.43,6.69-54.29,12.02c4.32-13.82,22.9-37.8,30.46-42.77c-5.98-0.28-14.76,1.01-30.46,7.71
		C222.208,288.881,224.368,280.671,225.448,273.401L225.448,273.401z"/>
	
		<path fill-rule="evenodd" clip-rule="evenodd" fill="#FFFFFF" stroke="#000000" stroke-width="1.4187" stroke-miterlimit="2.6131" d="
		M262.238,318.041l55.801-11.521c0,0-20.591,27.21-21.101,34.771c7.56-3.96,18.72-5.68,18.72-5.68s-9.209,15.55-7.56,23.54
		c-8.491,1.01-41.69,9-49.46,14.54c3.09-13.1,18.79-36.43,25.49-41.54c-5.55,0.14-13.61,1.87-27.72,9.07
		C260.218,332.581,261.728,324.811,262.238,318.041L262.238,318.041z"/>
	
		<path fill-rule="evenodd" clip-rule="evenodd" fill="#FFFFFF" stroke="#000000" stroke-width="1.169" stroke-miterlimit="2.6131" d="
		M365.408,381.181l46.881-2.66c0,0-20.09,19.65-21.391,25.771c6.631-2.3,15.91-2.37,15.91-2.37s-9.359,11.59-9,18.29
		c-6.979-0.15-34.99,2.37-42.04,5.899c4.101-10.3,19.72-27.43,25.771-30.74c-4.53-0.58-11.301-0.15-23.69,4.031
		C361.959,392.851,364.188,386.651,365.408,381.181L365.408,381.181z"/>
	
		<path fill-rule="evenodd" clip-rule="evenodd" fill="#FFFFFF" stroke="#000000" stroke-width="1.008" stroke-miterlimit="2.6131" d="
		M341.369,431.801l40.39-2.31c0,0-17.28,17-18.36,22.25c5.69-2.011,13.68-2.011,13.68-2.011s-8.069,9.931-7.709,15.69
		c-6.04-0.141-30.24,2.09-36.28,5.109c3.52-8.85,16.989-23.68,22.17-26.56c-3.89-0.44-9.72-0.08-20.37,3.521
		C338.408,441.811,340.289,436.551,341.369,431.801L341.369,431.801z"/>
	
		<path fill-rule="evenodd" clip-rule="evenodd" fill="#FFFFFF" stroke="#000000" stroke-width="0.9052" stroke-miterlimit="2.6131" d="
		M287.148,414.161l36.291-2.09c0,0-15.479,15.26-16.489,20.02c5.109-1.8,12.31-1.88,12.31-1.88s-7.271,8.93-6.979,14.19
		c-5.4-0.15-27.151,1.8-32.551,4.529c3.17-7.99,15.271-21.24,19.95-23.83c-3.53-0.43-8.79-0.07-18.36,3.17
		C284.558,423.161,286.208,418.411,287.148,414.161L287.148,414.161z"/>
	
		<path fill-rule="evenodd" clip-rule="evenodd" fill="#FFFFFF" stroke="#000000" stroke-width="0.7511" stroke-miterlimit="2.6131" d="
		M399.469,491.341l30.1-1.73c0,0-12.89,12.681-13.76,16.561c4.25-1.44,10.23-1.51,10.23-1.51s-5.98,7.42-5.76,11.74
		c-4.541-0.07-22.541,1.51-27,3.81c2.59-6.62,12.6-17.64,16.489-19.8c-2.88-0.36-7.28,0-15.2,2.67
		C397.238,498.831,398.679,494.87,399.469,491.341L399.469,491.341z"/>
	
		<path fill-rule="evenodd" clip-rule="evenodd" fill="#FFFFFF" stroke="#000000" stroke-width="1.169" stroke-miterlimit="2.6131" d="
		M309.759,361.601l45.93-9.51c0,0-16.92,22.4-17.35,28.66c6.27-3.24,15.41-4.68,15.41-4.68s-7.561,12.82-6.19,19.37
		c-6.99,0.86-34.35,7.49-40.75,12.02c2.521-10.8,15.48-30.02,20.95-34.2c-4.54,0.07-11.229,1.51-22.831,7.49
		C308.099,373.621,309.329,367.211,309.759,361.601L309.759,361.601z"/>
</g>
</svg>
