<?xml version="1.0" encoding="utf-8"?>
<!-- Generator: Adobe Illustrator 16.0.4, SVG Export Plug-In . SVG Version: 6.00 Build 0)  -->
<!DOCTYPE svg PUBLIC "-//W3C//DTD SVG 1.1//EN" "http://www.w3.org/Graphics/SVG/1.1/DTD/svg11.dtd">
<svg version="1.1" id="Layer_1" xmlns="http://www.w3.org/2000/svg" xmlns:xlink="http://www.w3.org/1999/xlink" x="0px" y="0px"
	 width="612px" height="792px" viewBox="0 0 612 792" enable-background="new 0 0 612 792" xml:space="preserve">
<g>
	<g>
		<defs>
			<rect id="SVGID_1_" x="52" y="256.5" width="508" height="279"/>
		</defs>
		<clipPath id="SVGID_2_">
			<use xlink:href="#SVGID_1_"  overflow="visible"/>
		</clipPath>
		
			<path clip-path="url(#SVGID_2_)" fill-rule="evenodd" clip-rule="evenodd" fill="#B9E5FB" stroke="#000000" stroke-width="0.36" stroke-miterlimit="2.6131" d="
			M75.18,322.46c-1.01,1.94-3.1,5.83-5.12,10.44c-2.23,7.27-8.06,15.34-12.45,43.06c17.13-1.37,333.14,15.84,343.51,14.83
			c16.85-0.43,17.06-0.43,17.06-0.43s10.16,2.08,14.33-1.52c-9.5-2.081-19.729-5.32-31.25-8.561
			C286.86,348.09,223.93,326.64,197,306.4c-12.02-10.08-24.26-19.22-49.25-23.61c0,0-24.48-1.95-42.48,10.08
			C105.27,292.87,86.12,300.5,75.18,322.46L75.18,322.46z"/>
		<path clip-path="url(#SVGID_2_)" fill-rule="evenodd" clip-rule="evenodd" fill="#00655D" d="M470.46,396.26
			c30.24,4.03,42.76,3.38,63.79,3.67c25.56,0.43-0.07,2.31-9.15,4.68c-3.38,0.87-1.29,1.95,5.84,2.88c8.92,1.23,1.08,1.95-1.95,2.31
			c-5.83,0.791-1.01,2.3,10.87,4.89c11.31,2.45,1.3,3.46-2.88,4.32c-5.25,1.15-10.22,3.03-8.13,3.39c14.61,2.23-1.37,4.03,1.15,5.18
			c7.49,3.46,15.77,4.1,11.95,5.83c-3.6,1.66-9.21,2.59-17.49,6.77c-4.4,2.23,4.24,2.3,11.3,6.771c5.26,3.31-9.36,9.36-12.17,11.52
			c-5.041,3.89,19.66,5.83,11.669,11.3c-5.91,3.17-10.729,4.39-16.71,10.87c-3.67,4.83,11.311,10.3,7.49,15.41
			c-5.4,7.2-12.46,2.811-19.94,19.59c-7.85,11.08-24.05,11.95-28.66,13.32c-18.5,4.75-48.17,5.04-80.64,2.44
			c-22.61-1.87-112.82-1.44-174.74-0.64c-62.07-7.28-90.51-22.18-122.84-51.27c-35.2-28.44-46.15-80.71-41.76-103.53
			c1.59-8.21,92.16,71.42,163.08,86.83c69.56,15.05,238.83-40.18,239.26-40.97C472.11,412.17,480.82,406.2,470.46,396.26
			L470.46,396.26z"/>
		<path clip-path="url(#SVGID_2_)" fill-rule="evenodd" clip-rule="evenodd" fill="#B9E5FB" d="M66.82,341.97
			c0,0,1.73-4.89,3.03-7.49c27.57-0.36,47.09,2.52,66.31,8.86c19.15,6.41,65.951,14.399,84.74,15.189
			c18.8,0.791,182.6,25.35,192.17,25.35c9.22,2.37,16.85,4.32,16.85,4.32c-5.18,2.01-42.62,21.16-166.61-2.021
			c-39.6-6.05-117.57-30.459-135.21-32.399C100.52,349.75,82.02,341.61,66.82,341.97L66.82,341.97z"/>
		<path clip-path="url(#SVGID_2_)" fill-rule="evenodd" clip-rule="evenodd" fill="#B5DEF1" d="M127.95,357.24
			c-27.93-4.61-46.37-14.69-61.56-14.26c0,0,1.95-4.97,3.1-7.42c27.36-0.21,47.01,3.96,66.17,10.59
			c20.08,7.41,67.32,15.33,86.11,16.13c18.21,0.791,186.26,24.91,193.32,22.24c9.14,2.38,16.34,4.18,16.34,4.18
			c-3.89,3.82-40.39,24.121-167.69,1.01C223.5,383.88,146.6,360.04,127.95,357.24L127.95,357.24z"/>
		<path clip-path="url(#SVGID_2_)" fill-rule="evenodd" clip-rule="evenodd" fill="#B0DAEB" d="M127.66,360.62
			c-28.36-5.26-46.58-16.92-61.77-16.49c0,0,2.01-5.11,3.24-7.63c27.07,0,46.87,5.4,65.95,12.31c21.02,8.35,68.69,16.35,87.48,17.21
			c17.57,0.72,189.5,24.19,193.97,18.86c9.07,2.31,16.85,4.61,16.85,4.61c-2.6,5.62-38.74,26.71-169.28,3.75
			C223.14,387.55,147.39,364.36,127.66,360.62L127.66,360.62z"/>
		<path clip-path="url(#SVGID_2_)" fill-rule="evenodd" clip-rule="evenodd" fill="#ACD4E5" d="M127.45,364
			c-28.8-5.9-46.66-19.15-61.85-18.79c0,0,1.87-5.04,3.1-7.63c26.78,0.22,46.8,6.77,65.88,13.82c21.96,9.44,70.05,17.5,88.84,18.29
			c16.92,0.72,192.89,23.69,194.76,15.77c9,2.3,17.28,4.32,17.28,4.32c-1.29,7.49-37.15,29.88-170.92,6.98
			C222.85,391.22,148.18,368.61,127.45,364L127.45,364z"/>
		<path clip-path="url(#SVGID_2_)" fill-rule="evenodd" clip-rule="evenodd" fill="#A8CFDF" d="M127.16,367.39
			C98,360.84,80.22,346,65.02,346.44c0,0,1.95-5.19,3.17-7.85c26.57,0.43,46.8,8.13,65.81,15.48c22.9,10.44,71.42,18.5,90.22,19.29
			c16.34,0.72,196.34,23.12,195.69,12.53c8.93,2.23,17.57,4.39,17.57,4.39c0,9.29-35.5,32.76-172.58,9.939
			C222.56,394.89,148.98,372.86,127.16,367.39L127.16,367.39z"/>
		<path clip-path="url(#SVGID_2_)" fill-rule="evenodd" clip-rule="evenodd" fill="#A3CCDA" d="M126.94,370.77
			c-29.59-7.2-47.01-23.9-62.2-23.47c0,0,1.87-4.9,3.09-7.63c26.21,0.65,46.66,9.5,65.67,17.06c23.83,11.38,72.72,19.51,91.51,20.31
			c15.77,0.64,199.87,22.6,196.629,9.28c8.86,2.24,17.78,4.32,17.78,4.32c1.3,11.09-33.76,35.79-174.09,13.11
			C222.27,398.49,149.84,377.11,126.94,370.77L126.94,370.77z"/>
		<path clip-path="url(#SVGID_2_)" fill-rule="evenodd" clip-rule="evenodd" fill="#9FC7D5" d="M126.73,374.16
			c-29.95-7.85-47.23-25.92-62.43-25.56c0,0,1.88-5.04,3.1-7.85c25.99,0.86,46.66,10.87,65.59,18.65
			c24.77,12.38,74.09,20.52,92.88,21.31c15.12,0.65,203.26,22.1,197.43,6.12c8.85,2.23,18,4.25,18,4.25
			c2.59,12.88-31.97,38.8-175.54,16.2C222.06,402.16,150.7,381.36,126.73,374.16L126.73,374.16z"/>
		<path clip-path="url(#SVGID_2_)" fill-rule="evenodd" clip-rule="evenodd" fill="#98C1CF" d="M126.44,377.54
			c-30.38-8.5-47.3-28.15-62.5-27.72c0,0,1.73-5.26,2.96-8.141c25.77,1.081,46.58,12.32,65.59,20.38
			c25.63,13.39,75.38,21.53,94.17,22.32c14.48,0.65,206.79,21.53,198.36,2.88c8.72,2.16,18.15,3.74,18.15,3.74
			c3.89,14.62-30.17,42.27-177.05,19.73C221.7,405.84,151.5,385.68,126.44,377.54L126.44,377.54z"/>
		<path clip-path="url(#SVGID_2_)" fill-rule="evenodd" clip-rule="evenodd" fill="#94BEC9" d="M126.22,380.92
			c-30.74-9.14-47.52-30.24-62.71-29.8c0,0,1.8-5.55,3.03-8.5c25.48,1.3,46.51,13.82,65.44,22.1c26.57,14.4,76.76,22.54,95.55,23.4
			c13.89,0.58,210.24,20.88,199.29-0.43c8.64,2.16,18.22,3.67,18.22,3.67c5.18,16.49-28.37,45.29-178.49,22.899
			C221.41,409.51,152.29,389.92,126.22,380.92L126.22,380.92z"/>
		<path clip-path="url(#SVGID_2_)" fill-rule="evenodd" clip-rule="evenodd" fill="#90B9C4" d="M66.1,343.63
			c25.13,1.44,46.37,15.12,65.38,23.69c27.43,15.33,78.05,23.68,96.84,24.48c13.319,0.57,213.77,20.37,200.229-3.6
			c8.64,2.08,18.29,3.45,18.29,3.45c6.48,18.29-26.5,48.46-179.86,26.14c-45.86-4.61-113.83-23.62-141.04-33.48
			c-31.18-9.79-47.6-32.62-62.72-32.19C63.22,352.12,64.88,346.65,66.1,343.63L66.1,343.63z"/>
		<path clip-path="url(#SVGID_2_)" fill-rule="evenodd" clip-rule="evenodd" fill="#8CB5BF" d="M125.72,387.69
			c-31.54-10.44-47.74-34.85-62.93-34.41c0,0,1.51-5.26,2.81-8.43c24.91,1.73,46.44,16.42,65.3,25.13
			c28.44,16.42,79.42,24.7,98.28,25.49c12.6,0.5,216.44,19.51,200.38-7.06c8.5,2.02,19.15,3.75,19.15,3.75
			c7.85,20.08-24.69,51.33-181.37,29.08C220.83,416.85,153.94,398.42,125.72,387.69L125.72,387.69z"/>
		<path clip-path="url(#SVGID_2_)" fill-rule="evenodd" clip-rule="evenodd" fill="#88B2BB" d="M125.5,391.08
			c-31.96-11.09-47.8-36.87-63-36.51c0,0,1.52-5.4,2.74-8.57c24.7,1.95,46.3,17.64,65.16,26.64c29.38,17.43,80.78,25.71,99.58,26.5
			c12.02,0.5,220.17,18.72,201.45-10.44c8.5,2.021,19.15,3.96,19.15,3.96c9.08,21.89-22.89,54.22-182.8,32.11
			C220.54,420.52,154.81,402.67,125.5,391.08L125.5,391.08z"/>
		<path clip-path="url(#SVGID_2_)" fill-rule="evenodd" clip-rule="evenodd" fill="#84AEB6" d="M125.22,394.46
			c-32.33-11.66-47.81-39.17-63-38.74c0,0,1.22-5.25,2.52-8.42c24.4,2.09,46.29,18.79,65.08,28.01
			c30.24,18.36,82.16,26.71,100.95,27.5c11.45,0.51,223.63,18.36,202.39-13.46c8.42,1.94,19.22,3.81,19.22,3.81
			c10.44,23.62-21.09,57.1-184.24,35.14C220.26,424.12,155.6,406.99,125.22,394.46L125.22,394.46z"/>
		<path clip-path="url(#SVGID_2_)" fill-rule="evenodd" clip-rule="evenodd" fill="#80A9B1" d="M125,397.84
			c-32.76-12.311-47.88-41.47-63.07-41.11c0,0,1.22-5.25,2.52-8.57c24.12,2.38,46.08,20.31,64.87,29.81
			c31.18,19.37,83.52,27.72,102.31,28.51c10.8,0.51,227.02,17.5,203.26-16.99c8.28,2.02,19.51,4.11,19.51,4.11
			c11.66,25.41-19.37,60.12-185.83,38.23C219.97,427.8,156.46,411.24,125,397.84L125,397.84z"/>
		<path clip-path="url(#SVGID_2_)" fill-rule="evenodd" clip-rule="evenodd" fill="#7CA6AD" d="M124.71,401.23
			c-33.19-12.96-48.02-43.78-63.21-43.35c0,0,1.22-4.96,2.52-8.42c23.9,2.52,46,21.46,64.8,31.1c32.04,20.45,84.81,28.8,103.6,29.67
			c10.16,0.43,230.69,16.92,204.27-20.23c8.28,1.94,19.22,3.6,19.22,3.6c12.96,27.28-17.28,63.5-186.98,41.68
			C219.68,431.47,157.18,415.48,124.71,401.23L124.71,401.23z"/>
		<path clip-path="url(#SVGID_2_)" fill-rule="evenodd" clip-rule="evenodd" fill="#78A2A9" d="M124.5,404.61
			C90.94,391,76.47,358.46,61.28,358.89c0,0,1.15-4.97,2.38-8.42c23.61,2.81,45.86,22.89,64.65,32.76
			c32.98,21.38,86.11,29.88,104.98,30.67c9.57,0.36,234.07,16.27,205.13-23.54c8.85,2.08,19.36,3.74,19.36,3.74
			c14.33,29.09-15.48,66.38-188.42,44.71C219.39,435.14,158.05,419.73,124.5,404.61L124.5,404.61z"/>
		<path clip-path="url(#SVGID_2_)" fill-rule="evenodd" clip-rule="evenodd" fill="#749EA4" d="M124.28,408
			c-33.98-14.26-48.17-48.03-63.36-47.6c0,0,1.15-5.25,2.38-8.78c23.32,2.95,45.79,24.12,64.51,34.27
			c33.91,22.32,87.48,30.89,106.27,31.68c9,0.36,237.46,15.55,205.92-26.93c8.14,1.88,19.66,3.82,19.66,3.82
			c15.62,30.96-13.61,69.48-189.94,47.88C219.1,438.81,158.91,423.98,124.28,408L124.28,408z"/>
		<path clip-path="url(#SVGID_2_)" fill-rule="evenodd" clip-rule="evenodd" fill="#709CA0" d="M123.99,411.38
			c-34.34-14.9-48.17-50.18-63.36-49.75c0,0,1.08-5.33,2.31-8.86c23.11,3.17,45.57,25.42,64.29,35.79
			c34.85,23.32,88.85,31.89,107.64,32.68c8.35,0.36,241.06,15.2,206.93-29.95c8.14,1.87,19.58,3.39,19.58,3.39
			c16.92,32.68-11.73,72.64-191.3,51.12C218.82,442.48,159.7,428.3,123.99,411.38L123.99,411.38z"/>
		<path clip-path="url(#SVGID_2_)" fill-rule="evenodd" clip-rule="evenodd" fill="#6A979A" d="M60.2,363c0,0,1.08-5.33,2.3-9
			c22.83,3.45,45.44,26.56,64.23,37.15c35.78,24.41,90.21,33.05,109.01,33.84c7.7,0.29,244.44,14.69,207.79-33.19
			c7.99,1.8,19.729,3.311,19.729,3.311c18.14,34.56-9.939,75.669-192.75,54.29c-51.979-3.24-110.01-16.85-146.81-34.64
			C88.93,399.14,75.39,362.64,60.2,363L60.2,363z"/>
		<path clip-path="url(#SVGID_2_)" fill-rule="evenodd" clip-rule="evenodd" fill="#699496" d="M123.49,418.15
			c-35.14-16.2-48.24-54.58-63.51-54.15c0,0,1.08-5.32,2.38-8.92c22.54,3.67,45.14,27.93,63.79,38.8
			c36.72,25.28,91.59,33.92,110.38,34.71c7.13,0.36,247.89,13.89,208.65-36.581c7.92,1.8,19.88,3.53,19.88,3.53
			c19.51,36.36-8.07,78.62-194.19,57.31C218.24,449.76,161.29,436.8,123.49,418.15L123.49,418.15z"/>
		<path clip-path="url(#SVGID_2_)" fill-rule="evenodd" clip-rule="evenodd" fill="#629193" d="M123.27,421.53
			c-35.57-16.85-48.31-56.66-63.5-56.229c0,0,1.01-5.47,2.3-9c22.25,3.82,45,29.09,63.58,40.18
			c37.65,26.35,92.95,34.99,111.74,35.78c6.48,0.291,250.99,12.53,209.23-40.61c8.21,1.8,20.16,4.18,20.16,4.18
			c20.81,38.16-6.12,81.72-195.48,60.48C217.95,453.43,162.15,441.04,123.27,421.53L123.27,421.53z"/>
		<path clip-path="url(#SVGID_2_)" fill-rule="evenodd" clip-rule="evenodd" fill="#5E8D8E" d="M123.06,424.92
			c-36-17.5-48.32-58.9-63.51-58.54c0,0,1.01-5.4,2.23-8.86c21.96,4.04,44.79,30.32,63.44,41.62
			c38.52,27.36,94.17,36.07,112.96,36.86c5.26,0.22,256.61,14.48,210.17-43.84c7.85,1.72,20.31,3.74,20.31,3.74
			c22.1,39.96-4.32,85.03-196.92,63.94C217.66,457.1,163.02,445.29,123.06,424.92L123.06,424.92z"/>
		<path clip-path="url(#SVGID_2_)" fill-rule="evenodd" clip-rule="evenodd" fill="#5A898A" d="M122.77,428.3
			c-36.36-18.14-48.24-61.2-63.43-60.84c0,0,0.86-5.47,2.08-8.86c21.75,4.25,44.57,31.61,63.22,43.2
			c39.46,28.3,95.54,37.08,114.34,37.88c5.32,0.21,257.4,11.08,210.45-47.31c7.78,1.66,20.88,3.82,20.88,3.82
			c23.4,41.83-2.37,88.13-198.21,67.17C217.38,460.77,163.81,449.61,122.77,428.3L122.77,428.3z"/>
		<path clip-path="url(#SVGID_2_)" fill-rule="evenodd" clip-rule="evenodd" fill="#558787" d="M122.55,431.68
			c-36.79-18.79-48.24-63.359-63.43-63c0,0,0.72-5.399,1.87-8.709c21.46,4.47,44.57,32.69,63.15,44.5
			c40.39,29.3,96.91,38.09,115.7,38.88c4.68,0.21,260.78,10.51,211.25-50.55c7.7,1.59,20.95,3.68,20.95,3.68
			c24.7,43.56-0.36,91.29-199.51,70.41C217.09,464.44,164.67,453.86,122.55,431.68L122.55,431.68z"/>
		<path clip-path="url(#SVGID_2_)" fill-rule="evenodd" clip-rule="evenodd" fill="#508484" d="M122.26,435.07
			c-37.15-19.44-48.24-65.59-63.43-65.16c0,0,1.73-9.65,2.88-12.89c21.17,4.68,43.27,38.09,61.85,50.11
			c41.33,30.31,98.28,39.1,117.07,39.89c4.03,0.22,264.03,9.72,211.97-54.07c8.06,1.73,21.24,3.81,21.24,3.81
			c25.99,45.44,1.44,94.4-200.95,73.59C216.73,468.12,165.39,458.11,122.26,435.07L122.26,435.07z"/>
		<path clip-path="url(#SVGID_2_)" fill-rule="evenodd" clip-rule="evenodd" fill="#4C8180" d="M122.05,438.45
			c-37.59-20.09-48.03-67.68-63.29-67.32c0,0,0.58-5.69,1.73-8.85c20.95,4.89,44.06,35.2,62.57,47.44
			c42.26,31.4,99.64,40.18,118.44,40.97c3.38,0.15,267.48,9.22,212.83-57.17c7.56,1.59,21.24,3.46,21.24,3.46
			c27.36,47.23,3.38,97.56-202.25,76.9C216.51,471.79,166.26,462.36,122.05,438.45L122.05,438.45z"/>
		<path clip-path="url(#SVGID_2_)" fill-rule="evenodd" clip-rule="evenodd" fill="#477E7D" d="M121.83,441.84
			c-37.94-20.74-48.09-70.06-63.29-69.63c0,0,0.51-5.4,1.66-8.49c20.66,5.04,43.85,36.21,62.35,48.67
			c43.2,32.33,100.95,41.18,119.81,42.05c2.81,0.07,270.86,8.49,213.62-60.63c7.92,1.66,21.53,3.53,21.53,3.53
			C506.1,446.37,482.7,498,273.75,477.4C216.22,475.39,167.12,466.6,121.83,441.84L121.83,441.84z"/>
		<path clip-path="url(#SVGID_2_)" fill-rule="evenodd" clip-rule="evenodd" fill="#427B7A" d="M59.91,364.94
			c20.38,5.26,43.56,37.44,62.14,50.11c44.06,33.41,102.31,42.34,121.1,43.13c2.23,0.07,274.18,7.78,214.35-64.01
			c7.41,1.51,21.6,3.39,21.6,3.39c29.95,50.9,7.27,103.89-204.92,83.44c-58.24-1.8-106.2-10-152.64-35.71
			c-38.37-21.38-48.16-72.07-63.28-71.64C58.26,373.65,59.05,367.96,59.91,364.94L59.91,364.94z"/>
		<path clip-path="url(#SVGID_2_)" fill-rule="evenodd" clip-rule="evenodd" fill="#3E7876" d="M121.33,448.6
			c-38.74-22.03-48.17-74.23-63.43-73.87c0,0,0.72-5.69,1.8-8.64c20.08,5.47,43.34,38.67,61.84,51.63
			c44.93,34.34,103.61,43.27,122.4,44.06c1.59,0.07,277.56,7.13,215.14-67.25c7.34,1.44,21.82,3.24,21.82,3.24
			c31.24,52.63,9.07,106.99-206.36,86.62C215.65,482.73,168.78,475.17,121.33,448.6L121.33,448.6z"/>
		<path clip-path="url(#SVGID_2_)" fill-rule="evenodd" clip-rule="evenodd" fill="#387673" d="M121.04,451.99
			c-39.17-22.68-48.1-76.39-63.29-75.96c0,0,0.58-6.05,1.66-8.93c19.87,5.76,43.13,40.03,61.63,53.28
			c45.79,35.28,104.9,44.28,123.7,45.07c0.93,0.07,280.939,6.34,216-70.77c7.27,1.44,21.6,3.02,21.6,3.02
			c32.54,54.5,11.299,110.52-207.44,90.22C215.29,486.4,169.57,479.42,121.04,451.99L121.04,451.99z"/>
		<path clip-path="url(#SVGID_2_)" fill-rule="evenodd" clip-rule="evenodd" fill="#327370" d="M120.82,455.37
			c-39.6-23.33-48.02-78.69-63.21-78.33c0,0,0.65-5.91,1.65-8.72c19.66,5.91,42.77,41.26,61.28,54.72
			c46.72,36.29,106.27,45.29,125.06,46.08c0.36,0,284.33,5.69,216.79-74.01c7.2,1.37,21.82,2.95,21.82,2.95
			c33.77,56.38,13.1,113.54-208.87,93.31C215.07,490.08,170.36,483.67,120.82,455.37L120.82,455.37z"/>
		<path clip-path="url(#SVGID_2_)" fill-rule="evenodd" clip-rule="evenodd" fill="#2C716D" d="M120.61,458.83
			c-39.39-23.62-47.88-80.79-63.15-80.43c0,0,0.58-6.12,1.59-8.85c19.37,6.12,42.55,42.48,60.98,56.16
			c47.67,37.37,107.64,46.37,126.43,47.16c-0.28,0,287.64,5.04,217.59-77.33c7.13,1.37,21.96,2.95,21.96,2.95
			c35.06,58.11,14.97,116.57-210.24,96.48C214.78,493.82,171.22,487.99,120.61,458.83L120.61,458.83z"/>
		<path clip-path="url(#SVGID_2_)" fill-rule="evenodd" clip-rule="evenodd" fill="#1F6F69" d="M120.32,462.21
			c-40.39-24.55-47.74-82.94-62.93-82.51c0,0,0.51-6.41,1.44-9.07c19.08,6.33,42.19,43.85,60.63,57.74
			c48.6,38.31,108.93,47.38,127.72,48.17c-0.86,0,291.03,4.25,218.38-80.78c7.06,1.29,22.1,2.73,22.1,2.73
			c36.36,59.98,17,120.03-211.53,100.01C214.5,497.49,172.02,492.24,120.32,462.21L120.32,462.21z"/>
		<path clip-path="url(#SVGID_2_)" fill-rule="evenodd" clip-rule="evenodd" fill="#166C66" d="M120.1,465.6
			c-40.75-25.2-47.73-85.18-62.92-84.82c0,0,0.57-6.34,1.51-8.93c18.79,6.55,41.9,45.07,60.26,59.19
			c49.54,39.31,110.31,48.45,129.1,49.24c-1.44-0.07,294.41,3.459,219.17-84.24c6.979,1.3,22.17,2.67,22.17,2.67
			c37.66,61.7,18.94,123.19-212.83,103.32C214.21,501.09,172.88,496.56,120.1,465.6L120.1,465.6z"/>
		<path clip-path="url(#SVGID_2_)" fill-rule="evenodd" clip-rule="evenodd" fill="#0A6963" d="M119.82,468.98
			C78.63,443.13,72.3,381.57,57.1,382c0,0,0.29-6.33,1.23-8.92c18.5,6.84,41.69,46.22,60.05,60.62
			c50.47,40.32,111.67,49.46,130.46,50.26c-2.09-0.08,297.5,2.66,219.74-87.7c6.92,1.3,22.47,2.59,22.47,2.59
			c39.02,63.58,20.88,126.43-214.13,106.63C213.85,504.76,173.67,500.8,119.82,468.98L119.82,468.98z"/>
		<path clip-path="url(#SVGID_2_)" fill-rule="evenodd" clip-rule="evenodd" fill="#006860" d="M119.6,472.36
			c-41.54-26.49-47.38-89.561-62.57-89.2c0,0,0.07-6.27,1.01-8.72c18.29,6.99,41.54,47.31,59.9,61.92
			c51.34,41.33,112.97,50.479,131.76,51.27c-2.73-0.15,301.11,1.94,220.76-91.08c6.91,1.22,22.46,2.45,22.46,2.45
			c40.32,65.37,22.75,129.74-215.57,110.01C213.63,508.44,174.46,505.05,119.6,472.36L119.6,472.36z"/>
		<path clip-path="url(#SVGID_2_)" fill-rule="evenodd" clip-rule="evenodd" fill="#00655D" d="M56.96,384.31
			c0,0,0.14-6.27,0.79-8.79c18,7.2,41.26,48.6,59.62,63.44c52.34,42.4,114.33,51.62,133.2,52.41c-3.39-0.14,304.34,1.08,221.4-94.68
			c7.13,1.15,22.68,2.38,22.68,2.38c41.54,67.25,24.69,133.13-216.94,113.47c-64.37-0.36-102.38-3.17-158.4-36.79
			C77.34,448.6,72.15,383.95,56.96,384.31L56.96,384.31z"/>
		
			<path clip-path="url(#SVGID_2_)" fill-rule="evenodd" clip-rule="evenodd" fill="#609F8E" stroke="#8DC6BA" stroke-width="0.36" stroke-miterlimit="2.6131" d="
			M157.76,321.38c-1.94-0.79-3.96-3.17-6.77,0.79s-1.58,4.39-5.61,5.98c-3.96,1.58-7.56,5.18-3.96,4.82c3.6-0.43,10-3.6,5.18,1.95
			c-4.82,5.61-6.77,11.59-4.39,10c2.37-1.58,5.18-7.99,3.17,2.02c-1.95,10.01-2.38,19.22,0.79,11.23c3.24-8.06,8.42-16.05,8.06-8.06
			c-0.43,8.06-4.82,10.8-1.22,18c3.6,7.2,3.17,12.02,3.6,6.05c0.36-6.05,7.49-44.79,5.11-20.45c2.02,7.63,8.42,22.46,12.38,26.06
			c-3.09-2.81-5.04-11.95-9.57-34.05c0.79-6.41,3.17-10.8,4.39-8.36c1.22,2.379,1.22-0.43,0,7.56c-1.22,8,0.79,20.02,4.39,26.43
			c3.6,6.41,5.62,6.77,9.22,12.38c3.6,5.62,15.62,15.63,4.39,1.59c-11.16-13.97-15.62-16.78-15.98-26.36
			c-0.44-9.64,1.58-2.44,2.8,3.17c1.16,5.62,5.62,10.44,8,13.18c2.37,2.81,1.58,1.22-2.02-5.98c-3.6-7.2-3.96-10.37-2.38-12.02
			c1.59-1.59,0.8-0.79,2.81,5.61c1.95,6.41,8.79,19.59,11.16,20.02c2.45,0.43-3.17-6.77-4.75-11.23c-1.66-4.39-2.45-6.77,2.38,2.01
			c4.82,8.79,17.56,27.22,10.8,15.63c-6.84-11.59-10.01-18.43-12.03-23.62c-2.01-5.18-5.61-9.21-6.77-13.97
			c-1.22-4.82-2.8-8.85-3.6-5.25c-0.79,3.6-4.03,10.01-3.24,2.81c0.8-7.2,2.02-13.61-1.15-13.97c-3.24-0.43-2.45-12.03-9.65,3.6
			c-3.16,2.37-5.18,2.37-1.94-5.19c3.17-7.63,5.18-12.021-1.22-7.99c-6.34,3.96-11.96,3.17-7.13,0.79
			c4.75-2.44,10.29-2.44,14.69-2.44c4.459,0,12.45-0.36,11.66-2.74c-0.86-2.38-0.43-4.75-2.45-3.6c-2.01,1.22-1.58,3.959-4.75,0.86
			c-3.24-3.24-7.2-6.4-7.2-3.24c0,3.24-2.45,7.92-4.82,5.98C157.76,319.44,157.76,321.38,157.76,321.38L157.76,321.38z"/>
		
			<path clip-path="url(#SVGID_2_)" fill-rule="evenodd" clip-rule="evenodd" fill="#4C9695" stroke="#85BDBA" stroke-width="0.36" stroke-miterlimit="2.6131" d="
			M174.97,294.6c3.96,0,6.77,0.79,9.57,3.6c2.81,2.73,10.37,5.54,2.38,4.75c-7.99-0.79-21.1-0.36-15.55,2.01
			c5.54,2.38,17.13,5.19,9.57,5.19s-8.35-3.6-15.91-2.38c-7.63,1.23-18,0.79-24.05,6.77c-5.97,6.05-19.94,31.61-18.79,24.41
			c1.23-7.2,2.45-14.4-1.15-3.6s-7.2,23.97-7.2,10.44c0-13.61,5.54-23.26-1.66-14.04c-5.61,7.2-5.54,13.17-6.4,8.78
			c-0.8-4.39,1.51-9.36,5.61-13.53c13.25-13.61,27.51-21.89,8.43-12.82c-8.43,3.96-22.4,12.38-13.61,5.62
			c8.78-6.84,15.98-10.01,26.42-14.04c11.02-4.25,8.79-6.77-0.43-2.38c-9.22,4.39-3.6-2.45,16.42-8.42
			c4.39-0.72,14.4-2.74,1.22-2.74c-5.26,0.43-7.201,1.22-10.01,1.581c-2.81,0.44-14.83-1.94,0.79-3.96
			C156.18,287.83,168.99,292.22,174.97,294.6L174.97,294.6z"/>
		<path clip-path="url(#SVGID_2_)" fill-rule="evenodd" clip-rule="evenodd" fill="#82C0CA" d="M232.93,405.4
			c10.8,7.56,20.73,11.96,29.95,13.54c-10.37-6.77-15.55-10.37-20.02-12.74C238.47,403.82,236.53,397.41,232.93,405.4L232.93,405.4z
			"/>
		
			<path clip-path="url(#SVGID_2_)" fill-rule="evenodd" clip-rule="evenodd" fill="#BCDEEF" stroke="#000000" stroke-width="0.36" stroke-miterlimit="2.6131" d="
			M420.27,385.32c-0.72-1.08-1.73-2.16-2.52-1.88c-1.22,0.44-2.23,1.8-2.81,0.22c-0.64-1.58-1.44-3.82-2.59-4.39
			c-1.22-0.58-1.22-0.22-0.43-2.02s1.44-3.02-0.22-3.38c-1.58-0.43-2.59-1.01-2.59-1.8c0-0.791,0.43-1.01-1.37-0.791
			c-1.8,0.21-3.38,0.57-4.6-0.22c-1.23-0.79-1.01-0.79-2.02,0.22c-1.01,1-1.8,0.791-3.02-0.65c-1.16-1.37-0.8-1.8-2.16-1.8
			c-1.44,0-1.8-0.58-2.38-2.16c-0.65-1.59,0.14-2.38-1.44-3.39c-1.58-1-2.02-4.03-2.02-4.03s-0.21-0.14-0.64-0.29H181.45
			L420.27,385.32z"/>
		
			<path clip-path="url(#SVGID_2_)" fill-rule="evenodd" clip-rule="evenodd" fill="#BCDEEF" stroke="#015559" stroke-width="0.36" stroke-miterlimit="2.6131" d="
			M181.52,358.96h-0.22c0,0.44,0.22,1.01,0.8,1.88c2.44,2.73-0.36,4.53,3.02,4.39c3.38-0.22,4.97,2.95,6.41,4.75
			c1.37,1.8,1.58,2.81,3.6,3.24c2.01,0.36,0.36,1.371,1.37,3.38c1,2.02,1.58,3.03,3.02,3.6c1.37,0.58,2.16,1.01,3.02,3.17
			c0.8,2.23-1.65,3.6,1.37,4.47c3.03,0.79,2.59,1.94,3.39,4.39c0.79,2.37,1.44,3.38,2.8,3.38c1.44,0,2.81,5.189,4.04,7.2
			c1.15,2.02,2.95,3.17,3.96,2.59c1-0.57,1.58-1.58,4.24,1.37c2.6,3.03,5.4,5.4,5.4,3.03c0-2.38,0.8-5.4,2.6-4.61
			c1.8,0.79,4.6,0.21,4.169-1.15c-0.43-1.44,2.38-4.25,3.601,0c1.23,4.17,6.77,7.99,6.77,6.33c0-1.58,2.45-2.37,4.61-0.93
			c2.229,1.36,4.03,1.94,5.61,0c1.59-2.02,1.44-3.03,3.39-1.23c2.01,1.8,3.24,2.02,4.82,1.23c1.59-0.87,3.6-1.66,5.4-0.44
			c1.8,1.23,16.78-1.36,17.57-0.21c0.79,1.22,1.22,1.22,2.81,2.23c1.58,1.01,8.42,5.62,7.99,3.82c-0.36-1.8,3.82-2.24,6.62-1.229
			c2.81,1.01,9,3.959,8.43,2.02c-0.65-2.02,1.8-1.44,4.61,0.79c2.73,2.16,7.2,2.38,6.55,1.37c-0.58-1.01,14.83-1.01,17.78,0.79
			c3.03,1.8,16.42,6.05,12.46,2.81c-4.03-3.17-3.24-2.81-6.19-5.19c-3.03-2.37-6.41-5.97-4.04-5.61c2.379,0.43,5.19,3.81,7.2,3.38
			c2.02-0.36,5.4-1.15,7.64-0.57c2.16,0.57,5.54,1.8,5.18,0.21c-0.431-1.58,1.58,0.36,3.6,0.58c2.02,0.21-0.43-2.16-2.23-2.95
			c-1.8-0.87-3.17-3.03-1.01-2.021c2.23,1.01,7.2,3.38,4.61,1.15c-2.59-2.16-3.6-2.73-5.4-4.97c-1.8-2.23-1.149-1.8-2.59-1.8
			c-1.37,0-4.18-1-3.39-2.01c0.79-1.01,0-1.59-1.44-2.161c-1.37-0.649-2.16-3.459-0.93-3.459c1.15,0,1.58-0.57-1.01-0.791
			c-2.59-0.14-7.63,0.22-6.63-1.149c1.01-1.44-1.36-3.46-2.01-3.601c-0.58-0.22-2.38-2.02-1.149-2.81c1.149-0.79,0.57-1.8-2.021-1.8
			c-2.59,0-7.99-1.22-6.62-2.02c1.44-0.791,1-5.83-1.01-6.4c-2.02-0.58-2.81-12.39,1.01-10.59c3.81,1.8,5.97,3.17,5.04,1.23
			c-1.01-2.02,0.36-0.65,2.16,0.79c1.8,1.37,3.6,3.38,3.24,1.8c-0.44-1.66,12.16,13.39,14.97,16.34
			c2.811,3.03,11.16,11.81,9.58,8.86c-1.59-3.03,2.45,1.01,5.4,2.81c4.03,2.73,6.05,3.96,5.18,2.59c-0.79-1.44,1.66,0,3.82,1.37
			c2.229,1.44,13.61,5.18,11.229,3.24c-2.45-2.02,9.58,3.16,7.2,1.8c-2.45-1.44,3.82,0,2.59-1.66c-1.22-1.58,0-1.94,2.811-0.36
			c2.81,1.58,13.97,6.55,8.21,2.02c-5.83-4.61-14.83-11.24-9.43-8.86c5.4,2.45,7.99,3.24,5.4,0.79c-2.6-2.37-2.02-2.37,1.58-0.14
			c3.6,2.161,8.86,5.97,4.82,1.94c-2.59-2.16-6.76-4.53,3.82-0.36c10.581,4.18,4.18,0,1.01-1.44c-3.24-1.37-0.43-1.37,5.54,1.66
			c6.05,2.95,9.65,3.74,4.25,0.79c-5.4-3.02-9.43-6.05-4.39-4.25c4.97,1.8,22.61,5.83,13.61,2.67c-9-3.24-15.05-4.61-16.42-6.27
			c-1.44-1.58,1.37-1.8-0.431-3.17c-1.8-1.36-2.38-1.58-3.6-2.23c-1.15-0.57-0.79-0.79-1.15-1.94c-0.15-0.43-0.44-1.01-0.8-1.51
			l-0.84-1.07"/>
		
			<path clip-path="url(#SVGID_2_)" fill-rule="evenodd" clip-rule="evenodd" fill="#BCDEEF" stroke="#000000" stroke-width="0.36" stroke-miterlimit="2.6131" d="
			M184.11,296.4c2.089,0,3.75,0.21,5.83,0.57c1.8,1.15,4.18,1.95,6.41,1.95c2.16,0,4.39,0,6.19,1.22s2.6,2.23,3.96-0.58
			c1.44-2.8,3.82-0.79,4.4,0.8c1.44,0,1.44,2.59,2.44,3.379c1.01,0.79,2.81,0.43,4.76-0.36c2.01-0.86,2.44,2.59,3.81,3.38
			c1.44,0.8,1.44,0,4.25,0c2.74,0,2.951,3.6,4.97,3.82c2.01,0.14,2.01,2.74,2.81,4.54c0.79,1.8,0,2.23,1.8,1.8
			c1.8-0.36,2.01,0.21,3.81,1.8c1.8,1.65,3.17,3.81,4.39,2.8c1.16-1,4.18,1.23,5.98,2.02s3.38,4.03,2.81,0.79
			c-0.58-3.17,3.6-2.37,4.61-2.16c1,0.15,2.37,1.01,4.39-0.21c2.01-1.23,1.22-0.44,4.17,0.79c3.03,1.22,68.04,11.37,69.63,11.23
			c1.58-0.22,4.17,0.14,6.189,0.79c2.021,0.58,0.79,1.15,1.8,0.58c1.01-0.58,4.03,0.79,4.61,1.8c0.57,1.01,2.81,2.01,5.18,1.22
			c2.38-0.79,3.6,0.79,4.61,1.15c1.01,0.44-2.02,6.2,3.02,3.82c4.97-2.38,3.6,1.22,3.39,3.02c-0.22,1.8,0.21,1.16,1.22,1.16
			c0.94,0,2.95,0.21,3.96,1.65c1.01,1.37-1.22,2.38,0.43,1.59c1.59-0.8,3.6,4.601,4.61,6.19c0.94,1.58,1.37,0.43,1.95-1.23
			c0.64-1.58,1.44-0.14,1.8,0.8c0.43,1,2.59,1.22,3.24,0.21c0.57-1.01,2.95,0.43,4.39,0.79c0.93,0.29,2.59,0.94,3.53,1.3H181.38
			c0.14-1.3,1.72-1.87,1.44-2.88c-0.44-1.37,1.72-3.02,1-3.38c-0.791-0.44,0-1.8-1-4.4c-1.01-2.59-0.65-2.01-2.24-3.02
			c-1.58-1.01,0.44-2.59-1.15-3.02c-1.65-0.36-1.22-2.38-0.43-3.75c0.79-1.44-2.38-1.8-4.03-2.45c-1.59-0.57-0.94-3.16,2.45-5.18
			c3.38-2.02,2.01-2.379,2.59-3.17c0.57-0.79-7.2,1.59-9.43,1.37c-2.16-0.22-7.56,4.03-9,5.4c-1.37,1.44-2.38,5.18-3.75,6.98
			c-1.44,1.8-2.66,3.46-2.66,4.83c0,1.37-2.59,9.43-3.6,11.81c-0.07,0.21-0.07,0.07-0.15,0.14l-1.08,0.72
			c0.439-1.87,1.16-4.391,1.44-5.69c0.65-2.37,2.02-5.61,1.44-5.97c-0.64-0.44,0.8-4.83,1.95-6.63c1.22-1.8,6.26-8.209,5.25-8.57
			c-1-0.43,5.19-5.04,8.36-6.04c3.24-0.94,12.24-3.75,12.811-5.76c0.58-2.02,3.53-3.03,6.55-3.6c2.96-0.58,2.96-2.81,1.16-3.03
			c-1.8-0.21-3.75-1.15-2.74-1.58c0.94-0.43,1.8-0.79,0.58-1.37c-1.23-0.65-1.01-0.86,0.36-1.22c1.44-0.44-5.12-2.6-8.07-2.6
			c-3.02,0-4.25-1.22-6.41-2.8c-2.23-1.59-4.6-1.01-6.4-0.58c-1.8,0.36-8.21,1.15-10.8,0.79c-2.6-0.43-2.81,0.79-1.44,1.59
			c1.44,0.791,1.22,2.01-0.8,2.37c-2.01,0.43-5.61,2.59-6.19,3.6c-0.57,1.01-2.37,1.59-4.39,1.59s-2.81,0.64-4.61,2.01
			c-1.8,1.44-2.81,1.23-5.18,1.44c-2.38,0.15-2.23,1.15-3.24,2.95c-0.94,1.8-1.37,2.45-3.6,3.24c-2.16,0.8-1.8,2.02-3.17,4.61
			c-1.37,2.59-1.8,3.96-2.81,3.75c-1.01-0.15,2.59-7.56,4.03-9.36c1.37-1.8,2.6-3.24,3.6-5.62c1.01-2.38,1.59-3.021,5.19-3.96
			c3.6-1.01,8.42-5.04,11.16-5.62c2.81-0.64,4.82-1.44,3.45-1.44c-1.44,0-1-1.15,0.8-1.581c1.8-0.36,7.99-4.82,10.15-5.18
			c2.23-0.44,3.02,0.36,6.26-0.44c3.17-0.79,1.95-0.79,4.541-0.14c2.66,0.58,4.82,0.36,7.2,0.79c2.45,0.36,3.6,1.37,4.46,0.79
			c0.79-0.64,2.59,1.59,5.11,1.8c2.6,0.22,2.16,1.8,4.18,1.8s1.01-0.79,0-1c-1.01-0.22-1.22-1.01-3.02-2.81
			c-1.8-1.8-1.59-0.58-4.9-1.59c-3.38-1-2.02-1.36,0.58-1.36C183.54,296.4,183.82,296.4,184.11,296.4L184.11,296.4z"/>
		<path clip-path="url(#SVGID_2_)" fill="none" stroke="#BCDEEF" stroke-width="1.152" stroke-miterlimit="2.6131" d="
			M181.66,358.89c0,0,204.84,0,205.64,0c0.21,0.07,1.8,0.72,1.87,0.72"/>
		<path clip-path="url(#SVGID_2_)" fill-rule="evenodd" clip-rule="evenodd" fill="#4A9B98" d="M319.69,365.01
			c-1.59,1.95,1.15,5.19,2.73,5.19c1.66,0,0.87,1.15,4.83,2.8c4.03,1.59,5.61,3.17,7.2,2.38c1.58-0.79,3.24,0,5.18,1.22
			c2.02,1.16,5.26,1.95,6.05,0.36c0.791-1.58,0.791-5.18,2.38-4.75c1.58,0.36,3.6-2.45,0.79-3.24c-2.81-0.791-3.6,0-6.41-0.791
			c-2.81-0.79-0.79,0.431-3.17-2.02c-2.45-2.3-2.45-4.32-5.18-1.51c-2.81,2.74-3.24,3.53-5.62,0.36c-2.45-3.169-3.24-3.53-4.82-2.37
			C322.06,363.86,319.69,365.01,319.69,365.01L319.69,365.01z"/>
		<path clip-path="url(#SVGID_2_)" fill-rule="evenodd" clip-rule="evenodd" fill="#004F2A" d="M374.7,483.67
			c6.979,1.87,29.52,5.04,47.37,5.04c3.959,0.79,8.21,1.44,6.19,1.65c-2.01,0.15-2.8,0.36,1.01,0.94
			c3.82,0.649,37.01,4.61,18.58,4.46c-1.8,0.36-7.78,0.8,1.44,1.95c9.14,1.22,23.18,3.02,20.59,3.6c-2.59,0.65-4.61,0.43,1.01,1.44
			c5.541,1.01,28.94,5.97,6.55,4.39c-10.15,0-24.77,0.791-19.01-0.79c5.83-1.59,3.03-0.65-0.36-0.79c-3.38-0.22-8.78,0-6.84-1.23
			c2.02-1.22,1.01-1.58-5.76-1.22c-6.84,0.43-39.24,0.79-23.831-1.15c5.04-0.8,14.04-0.44-4.61-2.24
			c-5.54-0.36-13.53-3.16-5.76-3.021c7.78,0.22,4.61-0.14-2.01-1.149c-12.96-1.8-29.81-4.25-14.399-3.601
			c15.4,0.57,8.64-0.79-0.221-2.02C385.86,488.71,382.69,486.04,374.7,483.67L374.7,483.67z"/>
		<path clip-path="url(#SVGID_2_)" fill-rule="evenodd" clip-rule="evenodd" fill="#004F2A" d="M407.96,500.37
			c-7.78-0.36-13.25,0.79-5.69,1.37C409.83,502.32,417.9,500.73,407.96,500.37L407.96,500.37z"/>
		
			<path clip-path="url(#SVGID_2_)" fill-rule="evenodd" clip-rule="evenodd" fill="#D6E040" stroke="#000000" stroke-width="0.36" stroke-miterlimit="2.6131" d="
			M219.75,424.12c-4.39-1.58-5.97-2.37-3.53-3.6c2.38-1.15,1.66-1.36,4.83-1.72c3.17-0.439,2.09-0.8,6.41-0.51
			c4.46,0.36,3.88-0.14,9.86,1.44c5.98,1.66,200.45,52.27,212.33,55.73c19.58,5.76,32.9,11.3,27.21,14.9
			c-5.25,3.1-14.68,2.81-29.95,3.1c-20.59-0.22-51.91-3.74-98.78-16.2c-60.84-21.17-102.39-36.36-112.03-40.39
			c-5.62-4.39-10.37-7.2-12.82-8.35C220.9,427.29,223.71,426.07,219.75,424.12L219.75,424.12z"/>
		<path clip-path="url(#SVGID_2_)" fill-rule="evenodd" clip-rule="evenodd" fill="#EDE937" d="M220.69,424.48
			c-4.18-1.51-6.34-2.08-4.25-3.6c1.3-1,2.74-1.29,5.76-1.72c3.021-0.36,2.161-0.65,6.48-0.36c2.811,0.21,4.03,0.21,10.3,1.87
			c5.76,1.58,200.73,52.13,212.11,55.73c8.78,2.8,31.89,10.08,24.55,13.82c-3.24,1.3-10.08,2.45-25.99,2.16
			c-21.39,0.22-57.24-4.32-103.97-16.63c-58.319-20.38-98.64-34.78-107.859-38.59c-5.97-3.82-10.08-7.06-12.311-8.07
			C220.47,426.79,224.5,426.36,220.69,424.48L220.69,424.48z"/>
		<path clip-path="url(#SVGID_2_)" fill-rule="evenodd" clip-rule="evenodd" fill="#C1CB3B" d="M235.16,435.72
			c1.15-0.58,4.97-1.37,8.141-1.59c3.24-0.21,7.839-1.15,9-1.58c1.22-0.43,2.23-1.371,3.811-2.23c1.59-0.8,13.39-5.55,25.85,2.23
			c1.8,1.37,2.16,2.81-0.86,3.53c-2.96,0.79-5.76,1.8-7.78,2.37c-2.02,0.65-3.82,1.01-6.41,2.229c-2.59,1.23-4.17,1.37-5.61,1.8
			c-1.37,0.44-3.17,1.37-3.75,2.02c-4.61-1.58-18.43-6.84-20.01-7.42C235.95,436.51,236.31,436.51,235.16,435.72L235.16,435.72z"/>
		<path clip-path="url(#SVGID_2_)" fill-rule="evenodd" clip-rule="evenodd" fill="#C1CB3B" d="M311.48,455.16
			c3.53-0.94,7.99-2.16,9.94-3.6c2.01-1.37,2.59-1.8,2.59-3.17c0-1.37,0.21-3.6,7.629-2.81c7.42,0.79,26.78,16.56,17.42,16.7
			c-9.43,0.22-15.62,0.44-19,0.65c-3.39,0.22-5.04,0.22-5.4,1.37c-0.44,1.22,1.15,1.22-3.03,1.58c-4.17,0.44-3.17,0.65-5.18,0
			c-2.02-0.57-21.96-7.99-21.96-7.99c-0.58-0.93-1.15-1.94,2.45-1.8C300.54,456.31,311.48,455.16,311.48,455.16L311.48,455.16z"/>
		
			<path clip-path="url(#SVGID_2_)" fill-rule="evenodd" clip-rule="evenodd" stroke="#BD1A8D" stroke-width="0.36" stroke-miterlimit="2.6131" d="
			M230.91,419.44c-2.23-0.21-8.71-0.93-13.25,1.16c0,0-2.73,1.72-0.36,2.37c2.379,0.65,19.95,6.12,21.82,6.84
			c0,0-7.78,0.79-9.07,1.15c-1.371,0.36,38.95,6.99,43.05,8.14c0,0-9.72,1.01-12.24,1.51c0,0,32.4,6.63,37.66,7.63
			c5.26,1.01-13.03,0-14.04,0.72c0,0,42.55,5.98,45.29,6.99l-14.26,1.8l43.271,7.7l-12.02,2.02l40.75,5.25l-13.25,1.73l41.98,4.75
			l-12.46,1.3l38.45,4.25l-6.69,1.22l37.94,3.53l-20.74-5.04l5.48-0.72l-27.44-4.03l5.98-1.01l-36.29-5.76l7.06-1.22L368,465.45
			l9.22-1.22L341,455.95l9-1.23l-31.46-5.25l9.72-1.23l-40.54-8.28l6.26-0.5l-39.45-9.22l6.979-0.79L230.91,419.44L230.91,419.44z"
			/>
		
			<path clip-path="url(#SVGID_2_)" fill-rule="evenodd" clip-rule="evenodd" fill="#FFFFFF" stroke="#D9EBF4" stroke-width="0.72" stroke-miterlimit="2.6131" d="
			M333.66,401.01c1.36-1.58,2.88-1.08,3.67-0.43c0.79,0.5,3.17,4.68,3.96,3.53c0.86-1.23,0.86-2.021,2.01-1.01
			c1.23,1.01,2.24,0,3.39-0.43c1.22-0.36,0.36-0.72,1.73-0.51c1.44,0.22,3.6,2.38,3.6,2.38s0-2.59,3.6,0.43
			c0.5,0.43,3.88-1.8,2.23,1.37c-1.59,3.02,0.93,2.66,1.94,2.66c1.01,0,0.43,1.88,2.02,1.8c3.24-0.21,1.44,2.959-2.59,1.59
			c-1.8-0.65-2.021-1.23-3.03-1.8c-1.01-0.65-1.58-3.39-1.58-1.23c0,0.72-1.59,0.8-2.38-0.21c-0.79-1.01,0.22-3.75-2.37-1.8
			c-2.67,2.01-4.25,1.65-4.11,0.14c0.36-6.05-1.01,0-1.8,0.36c-0.86,0.43-2.45-1.8-2.45-1.8s-1.15,3.6-2.8-2.81
			c-0.29-1.15-2.811,1.8-3.17-0.57c-0.43-2.31-1.73-0.07-2.67,0.07c-1,0.22-3.6-2.66-1.36-2.66
			C333.66,400.08,332.86,400.22,333.66,401.01L333.66,401.01z"/>
		
			<path clip-path="url(#SVGID_2_)" fill-rule="evenodd" clip-rule="evenodd" fill="#FFFFFF" stroke="#D9EBF4" stroke-width="0.72" stroke-miterlimit="2.6131" d="
			M317.82,413.11c1.08,0.569,0,3.74-1.23,2.23c-1.291-1.44-1.081-1.581-2.52-1.37c-1.51,0.15-2.16-0.65-0.79-1.65
			c1.439-1.08,2.3-2.38,1.51-2.74c-0.79-0.36-0.43-1.22-2.3-0.36c-1.87,0.86-2.811,1.371-2.811,0.79c0-0.649-0.72-0.5-1.37-0.21
			c-0.65,0.21-1.08-0.72,0.58-1.66c1.65-0.94,3.67-2.38,3.38-1.44c-0.29,1.01-0.07,1.371,0.79,0.5c0.87-0.93,1.95-2.44,2.67-1.58
			c0.65,0.86-1.08,2.23,0.43,1.73c1.51-0.51,3.1-1.66,3.74-0.94c0.65,0.65,1.01,1.59,0.22,2.02c-0.86,0.36-0.36,0.431,0.29,0.931
			c0.57,0.51,1.29,1.59,0.14,1.8c-1.15,0.22-2.81-0.14-2.16,0.36C319.04,411.96,319.9,412.6,317.82,413.11L317.82,413.11z"/>
		<path clip-path="url(#SVGID_2_)" fill-rule="evenodd" clip-rule="evenodd" fill="#A01D29" d="M269.43,333.04
			c-1.15-2.37-0.291-3.67-0.14-4.68c0.07-1-1.51,1.16-1.73,2.81c-0.29,2.31-2.02,2.45-0.58,4.25c1.37,1.8,3.03,3.38,4.61,3.1
			c1.59-0.29,2.02-0.94,2.089,0.79c0.141,1.73,0,1.73-0.859,3.17c-0.94,1.51-2.02,1.44-2.45,1.51c-0.36,0.14-0.79,0.21-0.79,0.21
			c1.65,0.22,2.59,0.22,3.02-0.36c0.43-0.64,0.22-0.21,0.5-0.86c0.29-0.58,0.87-2.09,1.8-2.74c0.87-0.72,0.87-0.86,0.87-0.86
			s0.5-0.5,1.01-0.86c0.5-0.44,1.72-1.59,2.081-1.8c0.439-0.22,0.87-0.291,1.01-0.58c0.22-0.36,2.16-3.17,1.15-3.53
			c-1-0.431-0.93-0.86-1.8,0.43c-0.93,1.3-1.8,2.16-1.65,0.65c0.21-1.44,0-2.23-1.8-0.57c-1.8,1.72-1.87,2.59-3.6,2.3
			C270.51,335.13,269.5,333.19,269.43,333.04L269.43,333.04z"/>
		<path clip-path="url(#SVGID_2_)" fill-rule="evenodd" clip-rule="evenodd" fill="#BC9C84" d="M280.88,413.04
			c0,1.36,0.14,3.88,0.14,3.88c0,0.58-1.36,1.3-1.36,1.3s0.28-0.43,0-0.939c-0.22-0.57-0.87-0.36-1.01-0.86
			c-0.07-0.58,0.07-0.65,0-1.44c0-0.86-0.87-2.3-1.23-2.81c-0.36-0.5-0.72-1.94,0.08-0.86c0.79,1.08,2.01,2.73,2.44,2.59
			C280.45,413.76,280.66,413.76,280.88,413.04L280.88,413.04z"/>
		<path clip-path="url(#SVGID_2_)" fill-rule="evenodd" clip-rule="evenodd" fill="#BC9C84" d="M264.97,354.93
			c-0.65,0.58-0.87,0.79-0.87,1.59c0,0.72,0,0.93,0,0.93c-0.57-1.01-0.72-0.93-1.58-1.01c-0.79-0.07-0.72-0.36-1.08-0.64
			c-0.36-0.29-1.01-0.22-1.66-0.51c-0.64-0.29-1.51-1.15-0.72-2.16c0.72-0.93,1.08-1.22,1.66-1.94c0.65-0.65,0.58-1.15,0.79-1.66
			c0.22-0.43,0.58-0.29,0.43,0.94c-0.07,1.22,0,4.17,0.15,4.53c0.14,0.44,0.29,0.51,0.57,0.29c0.22-0.21,0.08-0.14,0.36,0.22
			c0.36,0.36,0.44,0.36,0.87,0C264.25,355.15,264.25,354.93,264.97,354.93L264.97,354.93z"/>
		<path clip-path="url(#SVGID_2_)" fill-rule="evenodd" clip-rule="evenodd" fill="#4A9B98" d="M289.38,411.74
			c-1.59,1.94,1.15,5.18,2.73,5.18c1.66,0,0.87,1.16,4.83,2.81c4.03,1.59,5.61,3.17,7.2,2.38c1.58-0.791,3.24,0,5.18,1.22
			c2.02,1.15,5.26,1.95,6.05,0.36c0.79-1.58,0.79-5.18,2.37-4.75c1.59,0.36,3.6-2.45,0.8-3.24c-2.81-0.79-3.6,0-6.41-0.79
			c-2.81-0.79-0.79,0.43-3.17-2.02c-2.45-2.3-2.45-4.32-5.18-1.51c-2.81,2.74-3.24,3.53-5.62,0.36c-2.45-3.17-3.24-3.6-4.819-2.379
			C291.75,410.59,289.38,411.74,289.38,411.74L289.38,411.74z"/>
		<path clip-path="url(#SVGID_2_)" fill-rule="evenodd" clip-rule="evenodd" fill="#82C0CA" d="M204.56,397.84
			c7.99,0.08,3.53,6.12,3.53,2.74c0,2.02,2.81,0,5.25,0.86c2.38,0.8,2.38-0.86,3.6,2.38c1.16,3.17-1.22,5.18,4.76,4.39
			c6.04-0.79,6.4-3.6,7.99-0.79c1.65,2.81,5.18,1.87,2.45,5.98c-4.04,6.04-5.48-2.52-7.64-1.16c-5.97,3.6-1.65-1.72-5.97-2.01
			c-12.03-0.79-9.94-7.35-13.61-7.2c-9.14,0.36-9.5-2.67-8.35-7.92c1.01-4.75-6.12-9.22,4.03-7.99c8.21,0.93,9.94,1.58,3.6,3.6
			c-2.229,0.64-4.03,4.75,0,3.16c3.89-1.58,4.75-1.58,3.89,0c-0.79,1.59,1.37-0.79,1.65,1.59
			C209.96,397.41,204.56,397.84,204.56,397.84L204.56,397.84z"/>
		<path clip-path="url(#SVGID_2_)" fill-rule="evenodd" clip-rule="evenodd" fill="#82C0CA" d="M405.66,413.76
			c-15.2-4.76-36.36-13.18-38.74-15.2c-2.45-1.94-3.6-1.94-3.6-1.94C385.71,410.59,385.28,410.59,405.66,413.76L405.66,413.76z"/>
		<path clip-path="url(#SVGID_2_)" fill-rule="evenodd" clip-rule="evenodd" fill="#82C0CA" d="M347.26,412.96
			c11.96,4.4,31.97,9.94,36.36,10.8C361.59,420.52,358.86,420.96,347.26,412.96L347.26,412.96z"/>
		<path clip-path="url(#SVGID_2_)" fill-rule="evenodd" clip-rule="evenodd" fill="#82C0CA" d="M307.66,421.32
			c-3.52-7.42,23.55,11.95,23.55,11.95C316.81,429.31,308.67,423.48,307.66,421.32L307.66,421.32z"/>
		<path clip-path="url(#SVGID_2_)" fill-rule="evenodd" clip-rule="evenodd" fill="#BEDAD7" d="M178.57,383.8
			c15.19,17.14,27.57,27.58,33.55,34.78C186.56,398.13,185.77,394.96,178.57,383.8L178.57,383.8z"/>
		<path clip-path="url(#SVGID_2_)" fill-rule="evenodd" clip-rule="evenodd" fill="#3CA3B8" d="M164.17,372.21
			c3.6,8.35,5.54,12.39,9.93,19.15C163.81,380.56,164.53,379.77,164.17,372.21L164.17,372.21z"/>
		<path clip-path="url(#SVGID_2_)" fill-rule="evenodd" clip-rule="evenodd" fill="#BDDBDC" d="M182.53,397.41
			c22.39,19.59,29.95,22.75,36.36,26.79C200.53,418.15,195.27,414.19,182.53,397.41L182.53,397.41z"/>
		<path clip-path="url(#SVGID_2_)" fill-rule="evenodd" clip-rule="evenodd" fill="#82C0CA" d="M98.07,306.33
			c6.77-5.97,15.99-10.8,24.34-10.8C109.66,301.15,102.03,304.39,98.07,306.33L98.07,306.33z"/>
		<path clip-path="url(#SVGID_2_)" fill-rule="evenodd" clip-rule="evenodd" fill="#63B0B9" d="M134.94,349.39
			c-0.8,6.77-3.6,7.99,1.15,19.58C135.3,358.53,134.58,354.57,134.94,349.39L134.94,349.39z"/>
		<path clip-path="url(#SVGID_2_)" fill-rule="evenodd" clip-rule="evenodd" fill="#63B0B9" d="M127.38,345.43
			c-2.38,6.771-6.34,5.541,0,25.2C127.38,352.99,125,349.82,127.38,345.43L127.38,345.43z"/>
		<path clip-path="url(#SVGID_2_)" fill-rule="evenodd" clip-rule="evenodd" fill="#82C0CA" d="M134.58,377.04
			c4.75,21.16,8.78,28.36,20.37,42.76C143.36,396.62,137.74,388.2,134.58,377.04L134.58,377.04z"/>
		<path clip-path="url(#SVGID_2_)" fill-rule="evenodd" clip-rule="evenodd" fill="#82C0CA" d="M144.58,374.23
			c1.59,15.19-1.58,16.77,15.56,37.94C150.56,393.38,146.96,386.97,144.58,374.23L144.58,374.23z"/>
		<path clip-path="url(#SVGID_2_)" fill-rule="evenodd" clip-rule="evenodd" fill="#008D6B" d="M163.74,416.92
			c2.37,5.98,3.6,8.79,10.36,15.99c6.77,7.2,36,23.18,36,23.18C183.68,437.3,170.94,426.86,163.74,416.92L163.74,416.92z"/>
		<path clip-path="url(#SVGID_2_)" fill-rule="evenodd" clip-rule="evenodd" fill="#008D6B" d="M176.55,412.96
			c2.38,5.98,3.6,8.79,10.37,15.99c6.77,7.2,29.23,20.01,29.23,20.01C196.14,434.13,183.75,422.9,176.55,412.96L176.55,412.96z"/>
		<path clip-path="url(#SVGID_2_)" fill-rule="evenodd" clip-rule="evenodd" fill="#008D6B" d="M245.96,458.76
			c0,0,7.27,8.49,13.75,11.73c7.63,3.89,23.19,7.85,23.19,7.85C260.14,468.33,263.31,474.31,245.96,458.76L245.96,458.76z"/>
		<path clip-path="url(#SVGID_2_)" fill-rule="evenodd" clip-rule="evenodd" fill="#006A4F" d="M417.32,405.04
			c9.939,8.57,20.02,7.78,27.939,8.79c15.55,1.87,28.8,14.4,28.8,14.4C456.27,405.84,423.8,414.04,417.32,405.04L417.32,405.04z"/>
		<path clip-path="url(#SVGID_2_)" fill-rule="evenodd" clip-rule="evenodd" fill="#008E55" d="M340.06,486.91
			c8.79,3.17,12.75,4.39,21.17,6.77C367.78,495.55,348.06,494.04,340.06,486.91L340.06,486.91z"/>
		<path clip-path="url(#SVGID_2_)" fill-rule="evenodd" clip-rule="evenodd" fill="#004F2A" d="M459.08,495.76
			c4.97,0.36,18.14,0.8,11.16,1.16C463.26,497.35,448.71,495.91,459.08,495.76L459.08,495.76z"/>
		<path clip-path="url(#SVGID_2_)" fill-rule="evenodd" clip-rule="evenodd" fill="#008E55" d="M383.19,488.35
			c-7.77-0.36-13.25,0.79-5.69,1.37C385.06,490.29,393.13,488.71,383.19,488.35L383.19,488.35z"/>
		<path clip-path="url(#SVGID_2_)" fill-rule="evenodd" clip-rule="evenodd" fill="#008D6B" d="M371.89,429.16
			c5.83,2.02,3.96,2.96,12.96,4.76c8.42,1.72,25.2,8.64,25.2,8.64C388.38,429.31,383.05,434.28,371.89,429.16L371.89,429.16z"/>
		<path clip-path="url(#SVGID_2_)" fill-rule="evenodd" clip-rule="evenodd" fill="#008D6B" d="M376.71,412.32
			c7.78,3.96,11.95,3.74,14.55,4.75c5.11,2.01,23.61,8.209,23.61,8.209C390.61,412.39,383.7,414.84,376.71,412.32L376.71,412.32z"/>
		<path clip-path="url(#SVGID_2_)" fill-rule="evenodd" clip-rule="evenodd" fill="#006A4F" d="M431.5,398.42
			c4.97,6.77,15.7,6.34,16.2,6.34c7.56-0.08,17.57,1.8,17.57,1.8C449.58,398.56,444.97,407.42,431.5,398.42L431.5,398.42z"/>
		<path clip-path="url(#SVGID_2_)" fill-rule="evenodd" clip-rule="evenodd" fill="#008E55" d="M216.94,443.92
			c11.16,2.38,10.37,4.4,16.35,7.56C239.34,454.72,227.31,453.5,216.94,443.92L216.94,443.92z"/>
		<path clip-path="url(#SVGID_2_)" fill-rule="evenodd" clip-rule="evenodd" fill="#008E55" d="M418.9,414.55
			c14.4,3.09,13.04,5.76,16.35,7.56C441.3,425.35,424.88,419.73,418.9,414.55L418.9,414.55z"/>
		<path clip-path="url(#SVGID_2_)" fill-rule="evenodd" clip-rule="evenodd" fill="#008E55" d="M358.35,436.36
			c-12.67-4.32-15.91-12.311-10.44-8.13C353.1,432.12,359.72,434.42,358.35,436.36L358.35,436.36z"/>
		<path clip-path="url(#SVGID_2_)" fill-rule="evenodd" clip-rule="evenodd" fill="#008E55" d="M312.42,433.56
			c-11.02-2.02-23.76-9.22-16.06-6.56C302.77,429.16,306.44,430.82,312.42,433.56L312.42,433.56z"/>
		<path clip-path="url(#SVGID_2_)" fill-rule="evenodd" clip-rule="evenodd" fill="#008E55" d="M264.82,452.35
			c-7.77-1.59-20.37-5.62-12.88-4.18C263.53,450.4,257.7,448.75,264.82,452.35L264.82,452.35z"/>
		<path clip-path="url(#SVGID_2_)" fill-rule="evenodd" clip-rule="evenodd" fill="#008E55" d="M165.75,391.8
			c2.74,7.561,3.6,9.57,9.94,13.96C181.3,409.58,160.21,401.37,165.75,391.8L165.75,391.8z"/>
		<path clip-path="url(#SVGID_2_)" fill-rule="evenodd" clip-rule="evenodd" fill="#00502A" d="M176.98,399.43
			c3.6,9.931,17.14,23.97,28.37,30.38C191.38,414.98,178.14,404.97,176.98,399.43L176.98,399.43z"/>
		<path clip-path="url(#SVGID_2_)" fill-rule="evenodd" clip-rule="evenodd" fill="#00502A" d="M226.16,458.11
			c5.98,9.93,25.99,15.979,37.15,22.39C247.76,467.25,232.93,463.65,226.16,458.11L226.16,458.11z"/>
		<path clip-path="url(#SVGID_2_)" fill-rule="evenodd" clip-rule="evenodd" fill="#00502A" d="M418.9,401.8
			c8,5.55,12.39,2.74,23.98,7.56C429.78,401.08,425.74,406.63,418.9,401.8L418.9,401.8z"/>
		<path clip-path="url(#SVGID_2_)" fill-rule="evenodd" clip-rule="evenodd" fill="#00502A" d="M234.15,436.15
			c5.19,2.73,22.75,9,22.75,9c-6.76-0.43-9.36-0.43-7.56,0.36s2.6,1.58-2.66,0.21c-5.18-1.44-7.339-1.36-5.76-0.57
			c3.02,1.37,2.02,2.37-6.62-1.01c-8.5-3.46-16.28-7.63-17.5-8.14c-1.22-0.64-2.59-2.44-2.59-2.44c12.17,2.95,10.15-0.36,4.39-2.81
			c-5.83-2.38-10.8-7.56-6.62-4.97c4.24,2.59,13.6,7.42,15.62,7.99C229.62,434.35,234.15,436.15,234.15,436.15L234.15,436.15z"/>
		<path clip-path="url(#SVGID_2_)" fill-rule="evenodd" clip-rule="evenodd" fill="#00502A" d="M294.78,458.76
			c10.15,3.38,23.76,7.99,24.19,8.351c-14.4,0.569-18.79,0.21-16.85,1.22c2.02,1.01,8.14,4.47-2.59,1.59
			c-13.18-3.6-16.49-2.45-13.11-0.58c2.6,1.37,3.6,2.3-4.6-0.43c-9.87-3.31-14.4-1.59-17.791-3.82c-3.38-2.16-8.209-5.4-8.209-5.4
			c4.83,0.65,11.16,3.6,13.61,3.82c2.38,0.21,14.47,1.73,6.19-0.58c-7.48-2.16-17.78-7.34-17.78-7.34
			c14.18,3.53,18.58,4.1,17.57,2.81c-1.01-1.44-4.61-2.6,2.37-1.23C284.84,458.61,294.78,458.76,294.78,458.76L294.78,458.76z"/>
		<path clip-path="url(#SVGID_2_)" fill-rule="evenodd" clip-rule="evenodd" fill="#00502A" d="M311.26,475.32
			c5.55,0.791,6.34-0.36,10.8,1.15c4.4,1.58,14.76,4.03,9.94,4.03c-4.75,0-13.18-1.22-7.99,1.15c5.25,2.45,9.21,5.26-3.96,3.24
			c-13.18-2.01-58.32-15.55-11.95-5.61c7.56,1.581,12.31,2.8,5.11-0.36C306.08,475.68,296.5,473.37,311.26,475.32L311.26,475.32z"/>
		<path clip-path="url(#SVGID_2_)" fill-rule="evenodd" clip-rule="evenodd" fill="#00502A" d="M193.33,438.16
			c7.56,4.4,6.33,4.76,12.74,7.56c6.41,2.81,9.65,5.979,9.65,5.979C205.71,447.74,200.46,446.52,193.33,438.16L193.33,438.16z"/>
		<path clip-path="url(#SVGID_2_)" fill-rule="evenodd" clip-rule="evenodd" fill="#00502A" d="M234.94,414.12
			c4.97,0.07,10.8,1.8,12.75,1.94c2.95,0.29,9.65,6.05,9.65,6.05C248.91,420.45,244.52,419.3,234.94,414.12L234.94,414.12z"/>
		<path clip-path="url(#SVGID_2_)" fill-rule="evenodd" clip-rule="evenodd" fill="#E1F4FD" d="M366.92,482.73
			c-1.8-2.37-1.94-2.95-3.17-3.17c-1.22-0.21-0.79-0.43-0.79,0.58c0,1.01,0.22,2.02-1.44,0.65c-1.58-1.44-4.18-3.6-3.96-2.59
			c0.22,0.93,0.58,1.94-1.01-0.65c-1.58-2.59-2.81-4.18-4.17-3.82c-1.44,0.43-0.65,0.65,0.57,2.02c1.23,1.44,1.8,1.44-0.36,1.01
			c-2.23-0.36-2.81-0.8-3.6-0.36c-0.86,0.36,1.37,2.73-2.23-0.44c-3.601-3.16-6.62-7.2-7.78-5.97c-1.22,1.15-0.43,1.01,0.15,2.59
			c0.65,1.58-0.36,2.02-1.8,0.36c-1.37-1.58-1.8-1.94-3.39-2.16c-1.58-0.22-0.79,2.02-3.16,0c-2.45-2.02-2.45-1.8-1.01-2.02
			c1.37-0.21,6.88-6.82,6.23-7.26c-0.58-0.43-5.87,5.46-5.66,4.1c0.22-1.44-0.21-2.81-2.16-1.23c-2.01,1.59,0,4.83-1.22,4.83
			c-1.22,0-1.8-1.44-2.38-2.45c-0.64-1.01-1.44-1.8-2.59-1.59c-1.22,0.22-1.22,1.8-1.8,1.01c-0.65-0.79,1.8-1.37,0.79-3.38
			c-1-2.02-5.83-6.99-4.24-3.24c1.65,3.81,0.43,3.6-0.36,4.03c-0.8,0.36-4.4,0.22-4.83-1.58c-0.36-1.8-4.61-5.84-3.02-1.01
			c-0.58,1.01-1.371,2.01-2.74,0.21c-1.44-1.8-3.45-3.45-3.6-2.23c-0.21,1.23-1.44,1.23-2.01-0.21c-0.65-1.37-3.6-4.399-4.25-3.39
			c-0.58,1.01,2.229,1.8,0.86,1.8c-1.44,0-2.81-1.01-4.61-1.58c-1.8-0.65-4.24-2.23-3.6-0.65c0.58,1.66-1.44,0.86-2.23-0.14
			c-0.79-1.01-2.01-2.81-4.61-2.81c-2.59,0-1.8-0.43-1.15,0.79c0.58,1.22-0.431,0.79-2.451,0c-2.01-0.79-2.37-2.23-3.959-3.38
			c-1.65-1.23-8.64-4.4-3.6-1.23c4.97,3.17,2.81,2.81,1.95,2.81c-0.79,0-3.96-1.58-2.38-0.22c1.59,1.44,3.03,2.24,4.61,2.38
			c1.58,0.22,3.82,0.43,4.61,1.44c0.79,1.01,1.01,1.01,2.59,1.22c1.58,0.15,4.03-0.21,5.18,0.939c1.23,1.22,2.811,2.23,4.4,2.23
			c1.65,0,6.04,0.43,4.82,1.59c-1.22,1.22-3.02,3.6-0.43,3.6c2.66,0,2.45-1.01,4.61-0.8c2.23,0.22,3.24-0.791,3.02,0.8
			c-0.22,1.58,0.79,2.01,2.81,1.58c2.01-0.36,4.39,0.22,4.39,0.22c-3.38,0.79-4.03,1.8-1.58,1.58c2.37-0.14,1,0.22-0.8,1.22
			c-1.8,1.01-1.22,2.81,1.16,1.59c2.44-1.15,8.2-3.39,5.25-0.58c-3.02,2.81-2.66,5.62,0.58,3.6c3.17-2.01,6.41-2.01,7.77-2.23
			c1.44-0.14,5.19-0.36,3.24,0.65c-2.01,1.01-5.04,3.38-1.8,2.81c3.17-0.65,6.99-2.45,4.76-0.22c-2.16,2.16-1.59,3.96,0.209,3.38
			c1.8-0.57,2.81-0.79,3.24,0c0.36,0.8,1.15,1.01,2.16,0.22c1.01-0.79,2.59-0.79,3.6-1.22c1.01-0.36,3.6-2.02,4.18,0
			c0.65,2.01,0.65,0.791,1.8,0.791c1.22,0,1.01-0.58,1.8,1.58c0.86,2.23,3.02,2.45,4.46,1.44c1.37-1.01,2.59-1.8,3.96-0.79
			c1.37,1.01,2.23,1.581,4.03,1.581c1.8,0,2.6,0,3.75,1.37C363.75,484.1,368.07,485.68,366.92,482.73L366.92,482.73z"/>
		<path clip-path="url(#SVGID_2_)" fill-rule="evenodd" clip-rule="evenodd" fill="#E1F4FD" d="M294.34,450.62
			c1.23,0,2.24-0.65,2.24-1.51c0-0.87-1.01-1.59-2.24-1.59c-1.22,0-2.229,0.72-2.229,1.59
			C292.11,449.97,293.12,450.62,294.34,450.62L294.34,450.62z"/>
		<path clip-path="url(#SVGID_2_)" fill-rule="evenodd" clip-rule="evenodd" fill="#E1F4FD" d="M322.86,459.19
			c1.22,0,2.229-0.65,2.229-1.51c0-0.87-1.01-1.59-2.229-1.59c-1.23,0-2.24,0.72-2.24,1.59
			C320.62,458.54,321.63,459.19,322.86,459.19L322.86,459.19z"/>
		<path clip-path="url(#SVGID_2_)" fill-rule="evenodd" clip-rule="evenodd" fill="#E1F4FD" d="M272.38,455.01
			c1.23,0,2.24-0.649,2.24-1.51c0-0.86-1.01-1.58-2.24-1.58c-1.22,0-2.23,0.72-2.23,1.58C270.15,454.36,271.16,455.01,272.38,455.01
			L272.38,455.01z"/>
		<path clip-path="url(#SVGID_2_)" fill-rule="evenodd" clip-rule="evenodd" fill="#E1F4FD" d="M334.52,468.98
			c0.65,0,1.15-0.5,1.15-1.15c0-0.65-0.5-1.23-1.15-1.23s-1.15,0.58-1.15,1.23C333.37,468.48,333.87,468.98,334.52,468.98
			L334.52,468.98z"/>
		<path clip-path="url(#SVGID_2_)" fill-rule="evenodd" clip-rule="evenodd" fill="#E1F4FD" d="M342.15,469.56
			c0.65,0,1.15-0.51,1.15-1.16c0-0.64-0.5-1.22-1.15-1.22c-0.65,0-1.15,0.58-1.15,1.22C341,469.05,341.5,469.56,342.15,469.56
			L342.15,469.56z"/>
		<path clip-path="url(#SVGID_2_)" fill-rule="evenodd" clip-rule="evenodd" fill="#E1F4FD" d="M338.12,482.37
			c0.65,0,1.15-0.5,1.15-1.15c0-0.65-0.5-1.22-1.15-1.22s-1.15,0.57-1.15,1.22C336.97,481.87,337.47,482.37,338.12,482.37
			L338.12,482.37z"/>
		<path clip-path="url(#SVGID_2_)" fill-rule="evenodd" clip-rule="evenodd" fill="#E1F4FD" d="M289.38,462.21
			c0.64,0,1.15-0.5,1.15-1.15s-0.51-1.22-1.15-1.22c-0.65,0-1.16,0.57-1.16,1.22S288.73,462.21,289.38,462.21L289.38,462.21z"/>
		<path clip-path="url(#SVGID_2_)" fill-rule="evenodd" clip-rule="evenodd" fill="#E1F4FD" d="M299.38,453.21
			c0.65,0,1.16-0.5,1.16-1.15s-0.51-1.22-1.16-1.22c-0.64,0-1.15,0.57-1.15,1.22S298.74,453.21,299.38,453.21L299.38,453.21z"/>
		<path clip-path="url(#SVGID_2_)" fill-rule="evenodd" clip-rule="evenodd" fill="#E1F4FD" d="M301.4,458.4
			c0.65,0,1.15-0.51,1.15-1.16c0-0.64-0.5-1.22-1.15-1.22c-0.65,0-1.15,0.58-1.15,1.22C300.25,457.89,300.75,458.4,301.4,458.4
			L301.4,458.4z"/>
		<path clip-path="url(#SVGID_2_)" fill-rule="evenodd" clip-rule="evenodd" fill="#E1F4FD" d="M294.42,426.43
			c0.64,0,1.15-0.51,1.15-1.15c0-0.65-0.51-1.23-1.15-1.23c-0.65,0-1.16,0.58-1.16,1.23C293.26,425.92,293.77,426.43,294.42,426.43
			L294.42,426.43z"/>
		<path clip-path="url(#SVGID_2_)" fill-rule="evenodd" clip-rule="evenodd" fill="#E1F4FD" d="M310.33,428.16
			c0.65,0,1.15-0.51,1.15-1.16c0-0.64-0.5-1.22-1.15-1.22c-0.65,0-1.15,0.58-1.15,1.22C309.18,427.65,309.68,428.16,310.33,428.16
			L310.33,428.16z"/>
		<path clip-path="url(#SVGID_2_)" fill-rule="evenodd" clip-rule="evenodd" fill="#E1F4FD" d="M308.17,473.59
			c0.65,0,1.15-0.51,1.15-1.15c0-0.65-0.5-1.23-1.15-1.23c-0.65,0-1.15,0.58-1.15,1.23C307.02,473.08,307.52,473.59,308.17,473.59
			L308.17,473.59z"/>
		<path clip-path="url(#SVGID_2_)" fill-rule="evenodd" clip-rule="evenodd" fill="#8BB7D3" d="M194.55,341.61
			c0.15,2.38-0.36,4.18,1.59,3.959c2.01-0.209,1.8-0.79,2.95,0.791c1.22,1.59,0.43,4.61,3.021,3.819c2.59-0.79,4.39-2.379,5.19-2.02
			c0.79,0.44,0.79,1.23,2.23-1c1.37-2.16,1.58-3.17,1.58-3.17c-3.38,7.2-3.601,8.78-4.97,7.99c-1.44-0.79-1.65,0-2.8,1.22
			c-1.23,1.16-2.6,1.37-4.04-0.64c-1.36-1.95,0-2.16-2.59-1.8c-2.52,0.43-2.16-0.58-2.73-2.81c-0.58-2.16-0.58-2.16-2.6-2.74
			C189.37,344.56,192.39,342.76,194.55,341.61L194.55,341.61z"/>
		<path clip-path="url(#SVGID_2_)" fill-rule="evenodd" clip-rule="evenodd" fill="#91BFDC" d="M180.73,319.8
			c1.94-1.16,1.8-2.38,3.74-0.36c2.02,1.94,2.81,2.52,4.61,2.52s1.8-1.23,3.02,1.22c1.23,2.38,2.02,3.601,3.96,2.811
			c2.02-0.87,3.03-2.811,4.04-1.23c1,1.59,0.57,1.23,2.59,0.58c2.01-0.58,2.23-2.38,5.4,1.01c3.24,3.38,7.41,7.41,4.39,5.83
			c-2.95-1.66-3.38-2.589-5.4-3.459c-2.02-0.79-2.95-2.16-1.58,0.44c1.36,2.59-1.01,4.82-2.24,2.23c-1.15-2.67-4.75-4.83-5.97-3.03
			c-1.23,1.8,1.8,2.6-0.79,3.819c-2.6,1.15-4.97,0.58-6.41,1.8c-1.37,1.15-4.61,1.37-1.8-0.22c2.81-1.581,6.41-3.021,3.6-4.03
			s-4.39-1.8-4.97-0.36c-0.65,1.37-4.61,1.15-3.02-0.43c1.58-1.58,4.6-3.6-1.37-2.59c-5.98,1.01-8.14,1.58-9.94,3.24
			c-1.8,1.58-4.46,2.16-2.23,0c2.23-2.23,4.61-4.83-0.22-1.66c-4.75,3.24-12.96,5.62-8.35,2.23c4.54-3.38,11.16-4.03,9-4.17
			c-2.23-0.22-10.01-2.23-3.45-1.8C173.96,324.55,179.79,325.34,180.73,319.8L180.73,319.8z"/>
		<path clip-path="url(#SVGID_2_)" fill-rule="evenodd" clip-rule="evenodd" fill="#8BB7D3" d="M238.33,322.03
			c-2.74-0.94-3.39-0.79-1.73,0.93c1.58,1.8,1.15,1.66-0.22,3.03c-1.44,1.439-2.01,2.81,1.01,2.01c2.88-0.79,4.68-1.8,2.88-2.23
			c-1.8-0.36-2.52-1.8-0.79-1.94C241.28,323.61,241.93,321.67,238.33,322.03L238.33,322.03z"/>
		<path clip-path="url(#SVGID_2_)" fill-rule="evenodd" clip-rule="evenodd" fill="#8BB7D3" d="M217.38,345
			c-2.16,0.79-1.37,1.36-2.38,2.16c-1.01,0.79-0.58,0.43-2.38,1.58c-1.8,1.22-2.59,2.45,0,1.22c2.6-1.22,4.61-1.22,4.18-2.23
			C216.44,346.8,217.23,346.8,217.38,345L217.38,345z"/>
		<path clip-path="url(#SVGID_2_)" fill-rule="evenodd" clip-rule="evenodd" fill="#91BFDC" d="M201.97,314.04
			c-4.39-0.8-15.771-1.95-12.39-0.94c3.39,0.94,6.63,0.36,8.21,1.3c1.59,1,6.91,4.03,3.24,3.02c-3.81-1.01-6.05-2.23-8.06-1.01
			c-1.95,1.23-4.75,2.59-0.58,2.38c4.18-0.22,5.19-1.01,7.78,0.79c2.59,1.8,3.17,2.02,5.54,2.23c2.45,0.22,3.46,0,4.61,1.01
			c1.22,1.01,2.81-1.8-1.58-2.59c-4.4-0.79-5.98-2.45-4.4-2.23C205.93,318.21,221.34,324.4,201.97,314.04L201.97,314.04z"/>
		<path clip-path="url(#SVGID_2_)" fill-rule="evenodd" clip-rule="evenodd" fill="#8BB7D3" d="M196.93,365.23
			c1.37,2.37,2.37,3.96,3.6,2.73c1.149-1.15,1.94-0.36,0.57,1.23C199.66,370.77,197.07,370.63,196.93,365.23L196.93,365.23z"/>
		<path clip-path="url(#SVGID_2_)" fill-rule="evenodd" clip-rule="evenodd" fill="#8BB7D3" d="M205.57,376.82
			c-0.15,2.59-0.36,4.97,2.37,4.18c2.81-0.8,2.38-1.01,2.6,1.36c0.21,2.45-0.22,3.24,2.01,3.03c2.16-0.22,3.75,1.01,1.37,1.37
			c-2.38,0.43-4.82,0.86-4.97-1.59c-0.21-2.37,0.79-1.8-1.44-2.01C205.42,383.01,201.03,381,205.57,376.82L205.57,376.82z"/>
		<path clip-path="url(#SVGID_2_)" fill-rule="evenodd" clip-rule="evenodd" fill="#8BB7D3" d="M248.34,328.58
			c1.15-1.15,5.18-2.59,5.54-0.58c0.43,1.95,0.65,2.52,2.02,2.16c1.44-0.43,1.8,0.8,2.23,3.39c0.36,2.59,0.79,2.37,1.8,2.59
			c1.01,0.22,1.94,2.38,0.79,1.58c-1.22-0.79-1.58-0.79-2.81-1.15c-1.22-0.43-1.22-0.86-1.8-2.81c-0.57-2.01-2.01-2.44-3.24-3.021
			c-1.15-0.58,0.65-1.22-1.15-1.8C249.92,328.44,249.7,328.58,248.34,328.58L248.34,328.58z"/>
		<path clip-path="url(#SVGID_2_)" fill-rule="evenodd" clip-rule="evenodd" fill="#8BB7D3" d="M370.66,364.8
			c0-2.959-0.93-3.6-0.79-4.97c0.22-1.37-0.14-1.37,0.79-1.8c0.94-0.43,0.8-0.58,0.8-2.021c0-1.37-1.16-5.61,2.8,4.39
			c0.15,2.02,0,2.81-1,1.23c-1.01-1.59-1.23-2.38-1.23,0.57C372.03,365.16,371.02,366.6,370.66,364.8L370.66,364.8z"/>
		<path clip-path="url(#SVGID_2_)" fill-rule="evenodd" clip-rule="evenodd" fill="#91BFDC" d="M389.89,387.84
			c0.14-1.37-0.359-1.59,1.15-1.95c1.58-0.43,1.8-0.43,2.23-1.01c0.36-0.64,0.58,1.01,0,2.02
			C392.62,387.84,391.47,386.68,389.89,387.84L389.89,387.84z"/>
		<path clip-path="url(#SVGID_2_)" fill-rule="evenodd" clip-rule="evenodd" fill="#91BFDC" d="M408.46,387.04
			c0.8-2.37,0.8-0.72,1.59-2.16c0.21-0.43,0-2.88,0-3.6c0-2.37,1.37,3.17,0.79,4.18C410.26,386.47,410.05,385.89,408.46,387.04
			L408.46,387.04z"/>
		<path clip-path="url(#SVGID_2_)" fill-rule="evenodd" clip-rule="evenodd" fill="#91BFDC" d="M395.72,378.04
			c0.14-1.36-0.36-1.58,1.15-1.94c1.59-0.43,1.8-0.43,2.23-1.01c0.36-0.57,0,0.58-0.64,1.59
			C397.88,377.68,397.66,375.67,395.72,378.04L395.72,378.04z"/>
		<path clip-path="url(#SVGID_2_)" fill-rule="evenodd" clip-rule="evenodd" fill="#91BFDC" d="M343.88,397.63
			c0.36,1.58-1.8,1.8,1.15,1.94c3.03,0.22,4.39-1.15,4.25,1.66c-0.22,2.73-0.86,3.38,0.58,4.39c1.36,1.01,2.37,1.15,2.16,2.16
			c-0.58-2.81-1.8-1.01-1.59-3.601c0.22-2.589-1.01-6.55-3.6-5.62C344.24,399.57,343.88,398.56,343.88,397.63L343.88,397.63z"/>
		<path clip-path="url(#SVGID_2_)" fill-rule="evenodd" clip-rule="evenodd" fill="#8BB7D3" d="M298.74,397.2
			c2.16,0.79,3.6,1.15,3.38,3.74s-1.22,4.25,2.02,4.39c3.16,0.22,2.37,1.23,2.73,2.67c0.43,1.36,1.23,0.93,1.8,1.58
			c0.65,0.58,0.87,1.8,0.87,1.8c-2.02-1.8-3.03-1.8-3.6-3.38c-0.65-1.66,0-0.87-2.45-1.66c-2.38-0.79-2.95-1.8-2.59-4.61
			C301.33,399,299.53,398.13,298.74,397.2L298.74,397.2z"/>
		<path clip-path="url(#SVGID_2_)" fill-rule="evenodd" clip-rule="evenodd" fill="#8BB7D3" d="M214.93,396.4
			c2.95,0.15,2.37-0.14,4.75,1.8c2.45,1.95,3.38,1.8,3.82,0.94c-1.23,2.45-3.46,2.52-4.18,0.86
			C217.3,395.61,215.86,399,214.93,396.4L214.93,396.4z"/>
		<path clip-path="url(#SVGID_2_)" fill-rule="evenodd" clip-rule="evenodd" fill="#91BFDC" d="M204.34,338.23
			c0.58,0,1.01-0.43,1.01-1.01c0-0.58-0.43-1.08-1.01-1.08c-0.57,0-1,0.5-1,1.08C203.34,337.8,203.77,338.23,204.34,338.23
			L204.34,338.23z"/>
		<path clip-path="url(#SVGID_2_)" fill-rule="evenodd" clip-rule="evenodd" fill="#91BFDC" d="M199.74,334.2c0.57,0,1-0.44,1-1.01
			c0-0.58-0.43-1.08-1-1.08c-0.581,0-1.01,0.5-1.01,1.08C198.73,333.76,199.16,334.2,199.74,334.2L199.74,334.2z"/>
		<path clip-path="url(#SVGID_2_)" fill-rule="evenodd" clip-rule="evenodd" fill="#C9E3F0" d="M192.54,371.64c0.57,0,1-0.44,1-1.01
			c0-0.58-0.43-1.08-1-1.08c-0.58,0-1.01,0.5-1.01,1.08C191.53,371.2,191.96,371.64,192.54,371.64L192.54,371.64z"/>
		<path clip-path="url(#SVGID_2_)" fill-rule="evenodd" clip-rule="evenodd" fill="#91BFDC" d="M182.31,335.85
			c0.58,0,1.01-0.43,1.01-1.01c0-0.57-0.43-1.08-1.01-1.08c-0.57,0-1.01,0.51-1.01,1.08C181.3,335.42,181.74,335.85,182.31,335.85
			L182.31,335.85z"/>
		<path clip-path="url(#SVGID_2_)" fill-rule="evenodd" clip-rule="evenodd" fill="#C9E3F0" d="M159.49,318.21
			c0.57,0,1.01-0.43,1.01-1.01c0-0.57-0.44-1.08-1.01-1.08c-0.58,0-1.01,0.51-1.01,1.08C158.48,317.78,158.91,318.21,159.49,318.21
			L159.49,318.21z"/>
		<path clip-path="url(#SVGID_2_)" fill-rule="evenodd" clip-rule="evenodd" fill="#C9E3F0" d="M317.46,468.12
			c0.79,0,1.15-0.36,2.37,0.36c1.23,0.79,1.37,1,2.38,0.79c-1.37,1.01-1.59,1.22-2.59,0.65
			C318.61,469.27,318.61,468.12,317.46,468.12L317.46,468.12z"/>
		<path clip-path="url(#SVGID_2_)" fill-rule="evenodd" clip-rule="evenodd" fill="#C9E3F0" d="M332.86,473.95
			c1.37-0.359,1.59-0.359,2.74,0.14C334.02,474.52,333.8,474.09,332.86,473.95L332.86,473.95z"/>
		<path clip-path="url(#SVGID_2_)" fill-rule="evenodd" clip-rule="evenodd" fill="#C9E3F0" d="M289.74,456.96
			c1.8-0.15,3.74,0.36,5.4,0.93C290.89,458.11,290.53,457.75,289.74,456.96L289.74,456.96z"/>
		
			<path clip-path="url(#SVGID_2_)" fill-rule="evenodd" clip-rule="evenodd" fill="#FFFFFF" stroke="#EFF9FE" stroke-width="0.36" stroke-miterlimit="2.6131" d="
			M198.15,309.43c-2.37-0.79-3.6-4.39-0.79-4.39c2.74,0,3.96,1.65,7.56,0.79c3.6-0.79,6.41-0.36,8.42,2.45
			c1.95,2.73,5.98,1.94,7.56,2.3c1.59,0.43,4.04,1.58,5.19,3.6c1.22,2.021,2.45,7.2,2.45,7.2s1.58,4.82,2.8,5.62
			c1.16,0.79,0.36,5.97-3.24,3.6c-3.6-2.38-4.39-3.6-6.76-3.6c-2.45,0-5.19-2.81-4.831-4.4c0.43-1.58-0.79-4.82-3.17-5.18
			c-2.44-0.43-9.64-2.02-9.21-3.6c0.36-1.66-2.38-2.811-3.6-2.45C199.3,311.8,196.21,311.37,198.15,309.43L198.15,309.43z"/>
		
			<path clip-path="url(#SVGID_2_)" fill-rule="evenodd" clip-rule="evenodd" fill="#FFFFFF" stroke="#EFF9FE" stroke-width="0.36" stroke-miterlimit="2.6131" d="
			M228.54,341.83c-4.76-0.79-6.77,6.69-3.6,7.2c5.18,0.79,3.6,4.61,0,3.6c-2.74-0.87-4.97,3.31-4.4,5.97
			c0.87,3.6,6.41,3.03,4.4,7.56c-1.23,2.88-7.13,1.66-8.79,2.02c-1.58,0.431-2.37,2.45-1.94,4.03c0.36,1.59-0.43,3.17-0.43,4.39
			c0,1.23,0.791,2.38,2.37,3.96c1.66,1.66,4.03,1.66,4.03,3.6c0,2.02,0.8,2.02,3.17,1.23c2.45-0.79,3.6-3.17,4.83-4.39
			c1.15-1.23,1.94-1.59,4.75-1.59s5.18-3.24,4.75-5.61c-0.359-2.38-0.79-3.17,0.791-4.4c1.66-1.22,3.31-4.03,3.6-5.97
			c0.43-2.81-4.75-7.2-1.15-8.069c3.6-0.791,7.27-6.33,3.96-7.99c-1.58-0.79-1.94-3.6-4.75-2.81c-1.23,0.36,1.01-4.39,0.36-5.9
			c-1.59-4.03-3.96-2.02-3.96-2.02s-3.6-3.6-3.6,1.59c0,2.16-2.45,1.65-3.6,0C228.18,336.64,225.8,338.23,228.54,341.83
			L228.54,341.83z"/>
		
			<path clip-path="url(#SVGID_2_)" fill-rule="evenodd" clip-rule="evenodd" fill="#FFFFFF" stroke="#EFF9FE" stroke-width="0.36" stroke-miterlimit="2.6131" d="
			M378.87,363c1.15-2.38,2.74-0.36,5.19,0c2.37,0.36,3.96,0.79,5.18,3.6c1.22,2.73,0,4.39,1.58,5.97c1.59,1.59,2.02,2.38,0.439,3.96
			c-1.59,1.66-4.83,1.23-6.41,3.24c-1.59,2.02-2.02,0-5.62-1.22c-3.53-1.15-6.33-1.15-7.56-4.75c-1.15-3.6-1.15-4.47,2.45-4.47
			c3.6,0,2.81-1.58,2.38-3.6C376.14,363.79,376.14,361.41,378.87,363L378.87,363z"/>
		<path clip-path="url(#SVGID_2_)" fill-rule="evenodd" clip-rule="evenodd" fill="#FFFFFF" d="M205.5,372.64
			c0.14-0.93,1.44-1.08,1.44-0.07C207.01,373.58,205.5,373.8,205.5,372.64L205.5,372.64z"/>
		<path clip-path="url(#SVGID_2_)" fill-rule="evenodd" clip-rule="evenodd" fill="#FFFFFF" d="M198.73,372.79
			c0.14-0.94,1.44-1.08,1.44-0.07C200.24,373.72,198.73,373.94,198.73,372.79L198.73,372.79z"/>
		<path clip-path="url(#SVGID_2_)" fill-rule="evenodd" clip-rule="evenodd" fill="#FFFFFF" d="M183.18,341.04
			c0.14-0.94,1.44-1.08,1.44-0.08C184.69,341.97,183.18,342.19,183.18,341.04L183.18,341.04z"/>
		<path clip-path="url(#SVGID_2_)" fill-rule="evenodd" clip-rule="evenodd" fill="#FFFFFF" d="M165.54,311.8
			c0.14-0.93,1.44-1.08,1.44-0.07C167.05,312.74,165.54,312.96,165.54,311.8L165.54,311.8z"/>
		<path clip-path="url(#SVGID_2_)" fill-rule="evenodd" clip-rule="evenodd" fill="#FFFFFF" d="M159.56,313.39
			c0.14-0.94,1.44-1.08,1.44-0.07C161.07,314.32,159.56,314.54,159.56,313.39L159.56,313.39z"/>
		<path clip-path="url(#SVGID_2_)" fill-rule="evenodd" clip-rule="evenodd" fill="#FFFFFF" d="M296.36,432.12
			c0.14-0.94,1.44-1.08,1.44-0.08C297.87,433.05,296.36,433.27,296.36,432.12L296.36,432.12z"/>
		<path clip-path="url(#SVGID_2_)" fill-rule="evenodd" clip-rule="evenodd" fill="#FFFFFF" d="M304.35,434.56
			c0.15-0.93,1.44-1.08,1.44-0.07C305.86,435.5,304.35,435.72,304.35,434.56L304.35,434.56z"/>
		<path clip-path="url(#SVGID_2_)" fill-rule="evenodd" clip-rule="evenodd" fill="#FFFFFF" d="M303.13,425.35
			c0.14-0.94,1.44-1.08,1.44-0.07C304.64,426.28,303.13,426.5,303.13,425.35L303.13,425.35z"/>
		<path clip-path="url(#SVGID_2_)" fill-rule="evenodd" clip-rule="evenodd" fill="#FFFFFF" d="M257.55,452.56
			c0.15-0.93,1.44-1.08,1.44-0.07C259.06,453.5,257.55,453.72,257.55,452.56L257.55,452.56z"/>
		<path clip-path="url(#SVGID_2_)" fill-rule="evenodd" clip-rule="evenodd" fill="#FFFFFF" d="M245.17,445.36
			c0.14-0.931,1.44-1.08,1.44-0.07C246.68,446.3,245.17,446.52,245.17,445.36L245.17,445.36z"/>
		<path clip-path="url(#SVGID_2_)" fill="none" stroke="#000000" stroke-width="0.144" stroke-miterlimit="2.6131" d="
			M261.01,436.29c-1.23,0.36-2.95,0.65-3.39,1.59"/>
		<path clip-path="url(#SVGID_2_)" fill="none" stroke="#000000" stroke-width="0.144" stroke-miterlimit="2.6131" d="M260,434.78
			c-0.94,0.36-2.81,0.86-3.17,1.3"/>
		<path clip-path="url(#SVGID_2_)" fill="none" stroke="#000000" stroke-width="0.144" stroke-miterlimit="2.6131" d="M256.54,434.2
			c0.36-0.28,1.3-0.64,1.8-0.79c0.44-0.07,0.94-0.36,0.94-0.36"/>
		<path clip-path="url(#SVGID_2_)" fill="none" stroke="#000000" stroke-width="0.144" stroke-miterlimit="2.6131" d="M257.7,432.26
			c-0.65,0.22-1.08,0.291-1.44,0.65"/>
		<path clip-path="url(#SVGID_2_)" fill="none" stroke="#000000" stroke-width="0.144" stroke-miterlimit="2.6131" d="
			M340.06,459.62c0.15-0.94,0.58-2.02-0.57-3.53"/>
		<path clip-path="url(#SVGID_2_)" fill="none" stroke="#000000" stroke-width="0.144" stroke-miterlimit="2.6131" d="
			M343.66,460.63c0-0.79,0.29-2.38-0.79-3.17"/>
		<path clip-path="url(#SVGID_2_)" fill="none" stroke="#000000" stroke-width="0.144" stroke-miterlimit="2.6131" d="M348.7,457.96
			c0.36,0.29,0.36,0.44,0.65,2.45"/>
		<path clip-path="url(#SVGID_2_)" fill="none" stroke="#7AAEAB" stroke-width="0.72" stroke-miterlimit="2.6131" d="M184.11,296.47
			c-0.29,0-0.57,0-0.93,0c-2.6,0-3.96,0.36-0.58,1.37c3.31,1,3.1-0.22,4.9,1.58c1.8,1.8,2.01,2.59,3.02,2.81
			c1.01,0.21,2.02,1.01,0,1.01s-1.58-1.59-4.18-1.8c-2.52-0.22-4.32-2.45-5.11-1.8c-0.86,0.57-2.01-0.44-4.46-0.8
			c-2.38-0.43-4.54-0.21-7.2-0.791c-2.59-0.65-1.371-0.65-4.541,0.15c-3.24,0.79-4.03,0-6.26,0.43c-2.16,0.36-8.35,4.82-10.15,5.18
			c-1.8,0.43-2.24,1.59-0.8,1.59c1.37,0-0.64,0.79-3.45,1.44c-2.74,0.57-7.56,4.6-11.16,5.61c-3.6,0.94-4.18,1.59-5.19,3.96
			c-1,2.38-2.23,3.82-3.6,5.62c-1.44,1.8-5.04,9.21-4.03,9.36c1.01,0.21,1.44-1.15,2.81-3.75c1.371-2.59,1.01-3.81,3.17-4.6
			c2.23-0.8,2.66-1.44,3.6-3.24c1.01-1.8,0.86-2.81,3.24-2.959c2.37-0.21,3.38,0,5.18-1.44c1.8-1.36,2.59-2.01,4.61-2.01
			s3.82-0.58,4.39-1.59c0.58-1,4.18-3.16,6.19-3.6c2.02-0.36,2.24-1.58,0.8-2.37c-1.37-0.79-1.16-2.02,1.44-1.59
			c2.59,0.36,9-0.43,10.8-0.79c1.8-0.43,4.17-1.01,6.4,0.58c2.16,1.58,3.39,2.81,6.41,2.81c2.95,0,9.51,2.16,8.07,2.59
			c-1.37,0.36-1.59,0.57-0.36,1.22c1.22,0.58,0.36,0.94-0.58,1.37c-1.01,0.43,0.94,1.37,2.74,1.58c1.8,0.22,1.8,2.45-1.16,3.03
			c-3.02,0.57-5.97,1.58-6.55,3.6c-0.57,2.01-9.57,4.82-12.811,5.76c-3.17,1.01-9.36,5.61-8.36,6.05c1.01,0.36-4.03,6.76-5.25,8.56
			c-1.15,1.8-2.59,6.2-1.95,6.63c0.58,0.36-0.79,3.6-1.44,5.97c-0.28,1.3-1,3.82-1.44,5.69l1.23-0.86
			c0.069-0.07,0.14-0.72,0.21-0.94c1.01-2.37,3.39-9.5,3.39-10.87c0-1.37,1.22-3.02,2.66-4.82c1.37-1.8,2.38-5.55,3.75-6.99
			c1.44-1.37,6.84-5.61,9-5.4c2.23,0.22,10-2.16,9.43-1.37c-0.58,0.8,0.79,1.16-2.59,3.17c-3.39,2.02-4.04,4.61-2.45,5.19
			c1.65,0.64,4.82,1,4.03,2.44c-0.79,1.37-1.22,3.39,0.43,3.75c1.59,0.43-0.43,2.01,1.15,3.02c1.59,1.01,1.23,0.43,2.24,3.03
			c1,2.59,0.209,3.96,1,4.39c0.72,0.36-1.44,2.01-1,3.38c0.28,1.01-1.37,1.51-1.52,3.03"/>
		<path clip-path="url(#SVGID_2_)" fill-rule="evenodd" clip-rule="evenodd" fill="#91BFDC" d="M181.74,359.61
			c0.57,0,1-0.431,1-1.01c0-0.57-0.43-1.08-1-1.08c-0.581,0-1.01,0.51-1.01,1.08C180.73,359.18,181.16,359.61,181.74,359.61
			L181.74,359.61z"/>
		
			<path clip-path="url(#SVGID_2_)" fill-rule="evenodd" clip-rule="evenodd" fill="#FFFFFF" stroke="#D9EBF4" stroke-width="0.72" stroke-miterlimit="2.6131" d="
			M395.07,389.78c-0.14-2.74,2.74-2.16,3.6-1.58c0.79,0.64,2.59,1,3.39-0.22c0.79-1.15,3.74-0.5,3.81,1.01
			c0,3.67,3.39,0.36,3.17,0.43c1.22-0.43,1.8-1.58,2.02-0.22c0.57,4.32,2.95,1.37,2.95,1.37s-0.871,2.59,4.61,0.58
			c1.22-0.43,2.8,1.51,1.8,2.23c-5.19,3.38,1,2.59,2.01,2.59c1.01,0,2.81,0.36,2.02,1.8c-0.79,1.37-1.59,0-3.39-0.65
			c-1.8-0.57,0.36,3.03-0.64,2.45c-1.01-0.65-2.81-2.01-3.17-1.44c-0.43,0.58-1.59-1.01-2.38-2.01c-0.86-0.94-2.45-5.04-2.45-1.8
			c0,0.28-1.15,4.32-2.8,0.43c-0.58-1.37-1.37-2.23-2.16-1.8c-0.8,0.43-2.81,0.21-2.81,0.21s0.79-3.02-0.43-2.8
			c-1.16,0.209-1.8,3.81-2.16,1.36c-0.44-2.3-3.1-2.52-3.24-1.58c-0.51,3.17-1.59,2.45-1.59-0.5
			C397.23,389.42,395.07,393.38,395.07,389.78L395.07,389.78z"/>
		
			<path clip-path="url(#SVGID_2_)" fill-rule="evenodd" clip-rule="evenodd" fill="#FFFFFF" stroke="#D9EBF4" stroke-width="0.72" stroke-miterlimit="2.6131" d="
			M370.09,392.59c1.37-1.59,2.88-1.08,3.67-0.43c0.79,0.5,3.17,4.68,3.959,3.52c0.86-1.22,0.86-2.01,2.021-1
			c1.22,1,2.23,0,3.38-0.44c1.22-0.36,0.36-0.72,1.73-0.5c1.37,0.22,3.6,2.38,3.6,2.38s0-2.6,3.6,0.43c0.5,0.43,3.89-1.8,2.23,1.37
			c-1.58,3.02,0.94,2.66,1.94,2.66c1.01,0,0.44,1.87,2.02,1.8c3.24-0.22,1.439,2.95-2.59,1.58c-1.8-0.64-2.02-1.22-3.03-1.8
			c-1-0.64-1.58-3.38-1.58-1.22c0,0.72-1.58,0.79-2.38-0.22c-0.79-1,0.22-3.74-2.44-1.8c-2.6,2.02-4.18,1.66-4.04,0.15
			c0.36-6.05-1,0-1.8,0.359c-0.86,0.431-2.44-1.8-2.44-1.8s-1.16,3.6-2.81-2.81c-0.29-1.15-2.81,1.8-3.17-0.58
			c-0.43-2.3-1.73-0.07-2.66,0.15c-1.01,0.14-3.6-2.74-1.37-2.74C370.09,391.65,369.3,391.8,370.09,392.59L370.09,392.59z"/>
		
			<path clip-path="url(#SVGID_2_)" fill-rule="evenodd" clip-rule="evenodd" fill="#FFFFFF" stroke="#D9EBF4" stroke-width="0.72" stroke-miterlimit="2.6131" d="
			M401.91,402.38c-0.93,0.79,0.65,3.67,1.66,1.94c1.01-1.65,0.72-1.8,2.23-1.87c1.51-0.07,1.94-0.93,0.359-1.73
			c-1.58-0.79-2.66-1.94-2.02-2.37c0.72-0.51,0.22-1.37,2.24-0.87c2.01,0.51,3.02,0.87,2.88,0.22c-0.08-0.58,0.64-0.58,1.29-0.5
			c0.72,0.14,0.94-0.87-0.86-1.521c-1.8-0.569-4.11-1.58-3.6-0.64c0.5,0.86,0.29,1.29-0.72,0.57c-1.01-0.72-2.38-2.01-2.88-1.01
			c-0.51,1.01,1.51,2.02-0.15,1.8c-1.51-0.21-3.31-1-3.81-0.21c-0.51,0.79-0.65,1.8,0.21,2.01c0.939,0.22,0.44,0.44-0.07,1.01
			c-0.5,0.58-1.01,1.8,0.15,1.8c1.22,0,2.8-0.72,2.23-0.07C400.47,401.52,399.75,402.31,401.91,402.38L401.91,402.38z"/>
		
			<path clip-path="url(#SVGID_2_)" fill-rule="evenodd" clip-rule="evenodd" fill="#FFFFFF" stroke="#D9EBF4" stroke-width="0.72" stroke-miterlimit="2.6131" d="
			M289.16,407.56c-0.939,0.8,0.65,3.68,1.661,1.95c1-1.66,0.72-1.8,2.23-1.87c1.51-0.08,1.94-0.94,0.36-1.73
			c-1.59-0.79-2.67-1.87-2.02-2.38c0.72-0.5,0.22-1.29,2.23-0.86c2.02,0.5,3.03,0.86,2.88,0.21c-0.07-0.57,0.65-0.57,1.3-0.5
			c0.72,0.14,0.94-0.86-0.86-1.51c-1.8-0.58-4.11-1.59-3.6-0.65c0.5,0.86,0.28,1.3-0.72,0.58c-1.01-0.72-2.38-2.02-2.88-1.01
			c-0.51,1.01,1.51,2.01-0.15,1.8c-1.51-0.22-3.31-1.01-3.811-0.22c-0.51,0.87-0.65,1.8,0.21,2.02c0.94,0.21,0.43,0.43-0.07,1.01
			c-0.5,0.57-1.01,1.8,0.14,1.8c1.23,0,2.81-0.72,2.24-0.08C287.72,406.7,287,407.49,289.16,407.56L289.16,407.56z"/>
		
			<path clip-path="url(#SVGID_2_)" fill-rule="evenodd" clip-rule="evenodd" fill="#FFFFFF" stroke="#D9EBF4" stroke-width="0.72" stroke-miterlimit="2.6131" d="
			M226.16,396.04c1.371-1.58,2.661,0.65,3.46,1.3c0.79,0.58,2.23,0.79,3.02-0.43c0.791-1.15,0.791-1.95,2.021-0.94
			c1.15,0.94,2.16,0,3.38-0.36c1.15-0.431,0.29-0.72,1.66-0.5c1.44,0.14,3.6,2.3,3.6,2.3s0-2.52,3.6,0.43
			c0.5,0.36,3.88-1.8,2.23,1.37c-1.51,3.03,1.01,2.59,2.01,2.59c1.01,0,0.36,1.88,2.02,1.8c3.17-0.21,3.96,4.61,0,3.24
			c-1.799-0.64-4.609,0-5.62-0.64c-1-0.58-1.58-6.2-1.58-3.96c0,0.72-1.66,3.6-2.45,2.59c-0.79-1.01,1.23-5.83-1.37-3.82
			c-2.59,2.021-4.24,0.791-4.1-0.72c0.36-5.9-2.02,0-2.81,0.43c-0.79,0.36-2.37-1.8-2.37-1.8s-1.01,8.36-2.67,2.02
			c0.79,2.95-1.51,4.32-2.59-2.02c-0.36-2.44-2.38-0.72-3.38-0.5c-1.01,0.22-4.61-3.31-2.45-3.31
			C224,395.11,225.37,395.25,226.16,396.04L226.16,396.04z"/>
		
			<path clip-path="url(#SVGID_2_)" fill-rule="evenodd" clip-rule="evenodd" fill="#FFFFFF" stroke="#D9EBF4" stroke-width="0.72" stroke-miterlimit="2.6131" d="
			M188.36,362.78c-0.94,0.79,0.65,3.67,1.66,1.94c1-1.65,0.72-1.8,2.23-1.87c1.51-0.07,1.94-0.93,0.36-1.73
			c-1.59-0.79-2.67-1.94-2.02-2.37c0.72-0.51,0.22-1.37,2.23-0.87c2.02,0.51,3.03,0.87,2.88,0.22c-0.07-0.58,0.65-0.58,1.3-0.5
			c0.72,0.14,0.94-0.87-0.86-1.52c-1.8-0.57-4.11-1.58-3.6-0.64c0.5,0.86,0.28,1.29-0.72,0.57c-1.01-0.72-2.38-2.01-2.88-1.01
			c-0.51,1.01,1.51,2.02-0.15,1.8c-1.51-0.21-3.31-1-3.81-0.21c-0.51,0.79-0.65,1.8,0.21,2.01c0.94,0.22,0.43,0.44-0.07,1.01
			c-0.5,0.58-1.01,1.8,0.14,1.8c1.23,0,2.81-0.72,2.24-0.07C186.92,361.92,186.2,362.71,188.36,362.78L188.36,362.78z"/>
		
			<path clip-path="url(#SVGID_2_)" fill-rule="evenodd" clip-rule="evenodd" fill="#FFFFFF" stroke="#D9EBF4" stroke-width="0.72" stroke-miterlimit="2.6131" d="
			M275.98,358.39c-0.93,0.79,0.65,3.67,1.66,1.94c1.01-1.65,0.721-1.8,2.23-1.87c1.44-0.07,1.95-0.94,0.36-1.73
			c-1.58-0.79-2.66-1.94-2.01-2.37c0.72-0.51,0.21-1.37,2.23-0.87c2.01,0.51,3.02,0.87,2.88,0.22c-0.07-0.58,0.65-0.58,1.29-0.51
			c0.72,0.15,0.94-0.86-0.86-1.51c-1.8-0.57-4.1-1.58-3.601-0.65c0.5,0.87,0.291,1.3-0.72,0.58c-1.01-0.72-2.38-2.02-2.88-1.01
			c-0.5,1.01,1.51,2.02-0.14,1.8c-1.52-0.21-3.32-1.01-3.82-0.21c-0.5,0.79-0.65,1.8,0.22,2.01c0.93,0.22,0.43,0.43-0.08,1.01
			c-0.5,0.58-1,1.8,0.149,1.8c1.221,0,2.811-0.72,2.23-0.07C274.54,357.52,273.82,358.32,275.98,358.39L275.98,358.39z"/>
		<path clip-path="url(#SVGID_2_)" fill="none" stroke="#000000" stroke-width="0.36" stroke-miterlimit="2.6131" d="M57.54,375.96
			c-4.32,22.82,6.48,75.09,41.68,103.6c32.33,29.02,60.77,43.92,122.91,51.2c61.92-0.8,152.06-1.23,174.67,0.64
			c32.47,2.6,62.21,2.31,80.709-2.44c4.61-1.37,20.88-2.24,28.66-13.32c7.56-16.78,14.61-12.32,19.94-19.52
			c3.82-5.18-11.16-10.65-7.49-15.48c5.98-6.48,10.8-7.7,16.71-10.87c8.06-5.4-16.71-7.41-11.67-11.3
			c2.81-2.16,17.43-8.14,12.17-11.52c-7.05-4.47-15.62-4.54-11.23-6.771c8.28-4.18,13.82-5.109,17.42-6.7
			c3.89-1.72-4.39-2.44-11.95-5.83c-2.521-1.15,13.54-3.02-1.15-5.25c-2.09-0.36,2.88-2.24,8.14-3.32
			c4.17-0.93,14.18-1.94,2.88-4.39c-11.88-2.59-16.64-4.1-10.88-4.82c3.03-0.43,10.95-1.15,1.95-2.31c-7.13-1-9.15-2.08-5.83-2.95
			c9.07-2.37,34.77-4.25,9.14-4.68c-21.021-0.29-33.55,0.36-63.79-3.67c0,0-13.32-2.3-16.06-2.95c-2.66-0.58-7.41-1.44-9.36-1.87
			c-1.94-0.51-12.09-2.31-13.82-2.88c0,0-8.21-2.02-10.59-2.74"/>
		<path clip-path="url(#SVGID_2_)" fill-rule="evenodd" clip-rule="evenodd" d="M358.106,374.93c3.89-2.37,6.62-6.41,6.41-10.01
			l20.81-23.47c3.24,0.22,5.9-1.51,8.13-0.93c3.67,0.93,2.95-0.51,6.48,0.5c3.53,1.08,2.95,1.66,4.9,1.94
			c2.01,0.29,4.97-1.08,5.4-2.37c1.15-3.53,0.57-2.38-0.51-4.32c2.74,0,5.4-2.81,4.9-5.76c-0.58-3.03-1.66-4.39-4.25-5.69
			c1.15-0.94,3.891-3.89,1.51-7.34c-2.8-3.96-4.96-1.37-9-2.45c-4.17-1.08-4.17,0-5.18-3.39c-0.94-3.38,1.87-2.08,0.939-6.26
			c-2.45-10.94-11.52-8.93-14.12-6.84c-1.08,0.94-0.57,2.16,0.15,3.31c1.29,2.38,2.88,11.23,2.45,15.12
			c-0.51,4.54-2.02,3.75-4.109,8.5c-2.09,4.82-1.15,9.72-1.44,12.81l-17.28,22.47c-0.72-3.31-6.41-3.46-11.23-3.53L358.106,374.93
			L358.106,374.93z"/>
		<path clip-path="url(#SVGID_2_)" fill-rule="evenodd" clip-rule="evenodd" d="M258.56,345.79c-7.34-1.15-9.94,0.57-10.58,2.95
			c-4.83-0.65-20.09,4.03-22.83,6.121c-2.73,2.09-3.89,11.09-4.32,13.46c-0.43,2.379-1.08-1.581-3.67,1.01
			c-2.52,2.59,0.581,2.31-1.01,3.67c-1.51,1.37-1.15-1-3.81,1.08c-2.74,2.02-1.081,1.59-3.32,3.96c-2.3,2.45-13.89-2.73-15.84-2.37
			c-1.87,0.29-3.38,6.41-0.14,7.63c3.31,1.22,11.3,2.81,14.04,3.31c-2.23,1.95-9.58,4.39-11.09,6.27c-1.58,1.94-3.09,4.75-2.23,5.76
			c0.79,1.08,4.18,1.94,8.5,1.94c4.32,0,7.34-6.77,10.44-5.18c3.09,1.51,0.72,11.66,0.64,13.89c0,2.23-0.5,4.39,3.1,4.39
			c3.67,0,3.53-0.64,5.11-4.68c1.51-4.03-0.57-12.6,2.59-14.9c3.1-2.23,2.24-2.74,5.04-1.51c2.74,1.149,0.36,2.3,3.68,3.96
			c8.56,4.32,11.95-2.45,12.09-8.5c0-2.95-2.73-3.17-3.81-3.17c-1.01,0-1.88,1.59-3.6,1.59c-1.8,0-3.53-1.37-6.12-3.82
			c-2.52-2.45-3.82-3.31-3.82-4.61c0-1.22,0.72,0.36,0.86-2.59c0.15-2.95-2.08-2.23-1.87-5.4c0.15-3.17,2.88-11.52,4.11-13.82
			c2.44-1.23,14.32-5.76,17.2-5.62c0.72,1.8,1.23,3.17,6.99,6.34L258.56,345.79L258.56,345.79z"/>
		
			<path clip-path="url(#SVGID_2_)" fill-rule="evenodd" clip-rule="evenodd" fill="#FFFFFF" stroke="#000000" stroke-width="4.1316" stroke-miterlimit="2.6131" d="
			M314.36,262.77c-12.53,11.88-31.75,36.87-39.17,50.98c-7.49,14.11-18.36,37.87-22.82,54c-4.39,16.2,0.148,39.549,2.13,52.25
			c1.61,10.32-1.92,15.79,6.8,18.96c5.25,1.87,23.7-8.96,20.66-6.41c12.851-10.78,30.897,16.821,42.04,22.95
			c10,5.5,10.5,8.5,22.98,4.98c4.62-1.303,9.56-20.609,11.52-34.48c2.167-15.333,1-33,0-42.5c-2.16-20.524-17.5-53.12-21.68-63.56
			C332.72,309.57,316.02,278.4,314.36,262.77L314.36,262.77z"/>
		<path clip-path="url(#SVGID_2_)" fill-rule="evenodd" clip-rule="evenodd" d="M314.36,264.36
			c-24.91,20.59-47.88,60.55-58.61,92.16c21.1-12.46,81.233-7.75,98.583,3.48C351.023,345.45,323.65,277.53,314.36,264.36
			L314.36,264.36z"/>
		<g clip-path="url(#SVGID_2_)">
			<defs>
				<path id="SVGID_3_" d="M304.5,320.37c-17.86-0.36-29.81,11.59-29.74,27.43c0,15.84,12.82,24.92,28.08,24.12
					c15.26-0.79,31.82-10.8,31.03-25.77C333.01,331.17,322.35,320.73,304.5,320.37L304.5,320.37z"/>
			</defs>
			<clipPath id="SVGID_4_">
				<use xlink:href="#SVGID_3_"  overflow="visible"/>
			</clipPath>
			<path clip-path="url(#SVGID_4_)" fill="#F26549" d="M334.598,335.823"/>
			<path clip-path="url(#SVGID_4_)" fill="#F26B4E" d="M333.201,335.823"/>
			<path clip-path="url(#SVGID_4_)" fill="#F8A489" d="M316.434,335.823"/>
			<path clip-path="url(#SVGID_4_)" fill="#F8A489" d="M292.681,359.576"/>
			<path clip-path="url(#SVGID_4_)" fill="#FBBDA6" d="M309.448,335.823"/>
			<path clip-path="url(#SVGID_4_)" fill="#FBC2AD" d="M308.05,335.823"/>
			<path clip-path="url(#SVGID_4_)" fill="#FEEBE2" d="M296.873,335.823"/>
		</g>
		
			<path clip-path="url(#SVGID_2_)" fill="none" stroke="#666666" stroke-width="1.6606" stroke-linecap="round" stroke-linejoin="round" stroke-miterlimit="2.6131" d="
			M408.965,315.585c-3.74,0.29-15.05,0.51-12.17,7.28"/>
		
			<path clip-path="url(#SVGID_2_)" fill="none" stroke="#666666" stroke-width="1.2978" stroke-linecap="round" stroke-linejoin="round" stroke-miterlimit="2.6131" d="
			M410.39,324.633c-11.67-0.94-16.64,2.16-12.6,6.98"/>
		
			<path clip-path="url(#SVGID_2_)" fill="none" stroke="#666666" stroke-width="1.4801" stroke-linecap="round" stroke-linejoin="round" stroke-miterlimit="2.6131" d="
			M409.84,336.855c-3.96-1.73-14.54-4.25-13.24,2.88"/>
		
			<path clip-path="url(#SVGID_2_)" fill="none" stroke="#000000" stroke-width="5.8167" stroke-linejoin="round" stroke-miterlimit="2.6131" d="
			M304.5,320.37c-17.86-0.36-29.81,11.59-29.74,27.43c0,15.84,12.82,24.92,28.08,24.12c15.26-0.79,31.82-10.8,31.03-25.77
			C333.01,331.17,322.35,320.73,304.5,320.37L304.5,320.37z"/>
	</g>
</g>
<g>
	<ellipse fill="#D2007D" cx="304" cy="347.333" rx="30.641" ry="25.927"/>
	
		<ellipse transform="matrix(0.6085 0.7936 -0.7936 0.6085 382.8802 -99.5366)" fill="#F067A6" cx="292.312" cy="338.25" rx="7.778" ry="9.192"/>
	
		<ellipse transform="matrix(0.615 0.7885 -0.7885 0.615 377.6837 -99.8338)" fill="#F9CBDF" cx="291.083" cy="336.875" rx="4.667" ry="5.515"/>
	<path fill="none" stroke="#000000" stroke-width="5.8167" stroke-linejoin="round" stroke-miterlimit="2.6131" d="M304.129,321.588
		c-17.86-0.36-29.81,11.59-29.74,27.43c0,15.84,12.82,24.92,28.08,24.12c15.26-0.79,31.82-10.8,31.03-25.77
		C332.639,332.388,321.979,321.947,304.129,321.588L304.129,321.588z"/>
	
		<ellipse transform="matrix(0.5455 0.8381 -0.8381 0.5455 443.9676 -94.6367)" fill="#C50076" cx="309.235" cy="362" rx="4.667" ry="5.515"/>
</g>
</svg>
