<?xml version="1.0" encoding="utf-8"?>
<!-- Generator: Adobe Illustrator 16.0.4, SVG Export Plug-In . SVG Version: 6.00 Build 0)  -->
<!DOCTYPE svg PUBLIC "-//W3C//DTD SVG 1.1//EN" "http://www.w3.org/Graphics/SVG/1.1/DTD/svg11.dtd">
<svg version="1.1" id="Layer_1" xmlns="http://www.w3.org/2000/svg" xmlns:xlink="http://www.w3.org/1999/xlink" x="0px" y="0px"
	 width="612px" height="792px" viewBox="0 0 612 792" enable-background="new 0 0 612 792" xml:space="preserve">
<path fill-rule="evenodd" clip-rule="evenodd" fill="#FFFFFF" d="M322.992,252.576c-39.24,46.512-75.6,95.832-96.984,153.432
	c-10.656,28.872-23.184,73.728-25.056,104.4c-0.864,13.032-2.304,32.112,16.344,29.016c4.608-0.792,10.152-4.824,13.896-7.56
	c10.656-7.632,20.592-13.464,32.688-18.864c14.112-6.192,31.104-11.088,46.44-10.08c18,1.08,35.568,6.48,49.176,18.864
	c6.624,5.976,15.264,20.088,25.2,20.088c18.216,0,20.16-54.36,20.16-66.6c0-18-5.04-36.936-10.152-54.144
	C377.424,363.096,349.704,306.792,322.992,252.576z"/>
<path fill-rule="evenodd" clip-rule="evenodd" d="M400.32,438.984c5.904-5.904,11.376-10.224,11.376-18.648
	c11.736-13.392,22.32-26.496,34.632-39.384c1.584,2.736,11.736,2.592,17.64-1.224c0.36-0.216,0.792,0,1.224,0
	c5.112,0,11.592,4.968,16.416,3.744c4.392-1.08,6.552-3.312,7.632-7.632c0.432-1.8-1.728-2.304-2.664-3.744
	c1.656-1.656,6.48,1.008,8.856-6.264c2.52-7.488-4.824-11.232-7.488-12.6c1.872-0.072,5.4-5.76,5.04-8.784
	c-0.216-1.512-3.6-5.328-5.04-6.192c-1.152-0.72-2.52-1.152-3.888-1.44c-4.608-0.792-10.296,0.36-15.12-1.224
	c-0.576-0.144-1.224-0.648-1.224-1.224c-0.072-3.96,2.448-10.512,1.224-13.752c-2.736-7.704-4.176-11.664-12.456-13.896
	c-4.536-1.224-7.704,0.288-11.376,2.52c-0.504,0.288-1.008,0.72-1.296,1.224c-0.072,0.216-0.072,2.376,0,2.52
	c0.288,0.504,1.08,0.72,1.296,1.224c2.592,6.624,6.048,23.328,3.744,30.24c-1.584,4.68-7.416,9.648-8.784,16.416
	c-1.224,6.048-2.808,13.392,0,14.976l-29.016,37.656c-4.68-6.984-12.168-6.048-20.232-6.048L400.32,438.984z"/>
<path fill-rule="evenodd" clip-rule="evenodd" d="M229.896,392.256c-14.616-2.448-13.752-0.576-17.64,5.04
	c-13.176-0.288-24.12,1.368-36.576,7.488c-8.28,4.032-7.344,19.296-8.784,26.352c-0.072,0.576-0.648,1.296-1.224,1.296
	c-2.736-2.88-6.84,1.152-6.264,5.112c-5.688,0.432-12.168,7.056-12.6,10.008c-1.296,8.496-20.088-6.048-26.496-5.04
	c-2.16,0.36-3.456,4.464-3.744,6.264c-0.432,2.592-0.072,6.12,2.448,7.632c2.952,1.728,23.472,3.312,24.048,4.968
	c0.504,1.584-8.928,4.464-10.152,5.04c-7.776,3.456-8.424,3.96-11.376,11.376c-3.096,7.632,8.208,8.208,13.896,7.488
	c5.112-0.648,12.24-11.952,17.64-8.784c5.184,3.168,1.728,12.96,1.224,17.64c-0.648,6.048-1.944,12.528,5.112,12.528
	c7.344,0,8.136-7.056,8.784-13.752c0.216-2.52-0.216-5.112,0-7.632c0.36-4.176,3.888-16.632,10.08-15.12
	c6.768,1.656,3.672,10.08,17.64,10.08c2.232,0,4.608-1.008,6.264-2.448c1.8-1.656,2.88-4.104,3.744-6.408
	c0.864-2.376,1.224-4.968,1.224-7.488c0-3.024-2.376-4.968-4.968-4.968c-2.808,0-6.12,2.448-7.488,2.448
	c-1.008,0-1.8-0.792-2.664-1.224c-3.816-1.872-8.28-4.608-11.232-7.632c-0.072-0.072-2.376-3.456-2.52-3.744
	c4.104-1.584,1.44-12.672-2.592-12.528c-0.216-0.792-0.144-1.728,0-2.592c1.08-5.904,3.168-20.16,7.632-23.904
	c6.624-5.544,20.088-8.352,28.944-10.008c0.072,5.976,6.48,8.136,11.304,10.008L229.896,392.256z"/>
<path fill-rule="evenodd" clip-rule="evenodd" d="M322.992,255.096c-46.152,46.152-75.096,93.744-98.208,154.656
	c50.4-19.152,119.52-17.064,168.696,5.04C375.48,364.32,350.856,302.112,322.992,255.096z"/>
<radialGradient id="SVGID_1_" cx="290" cy="373" r="65.5234" gradientUnits="userSpaceOnUse">
	<stop  offset="0" style="stop-color:#FBC8B4"/>
	<stop  offset="1" style="stop-color:#ED1C24"/>
</radialGradient>
<path fill-rule="evenodd" clip-rule="evenodd" fill="url(#SVGID_1_)" stroke="#231F20" stroke-width="9.36" stroke-miterlimit="10" d="
	M306.36,349.272c26.352,0,48.528,18.936,48.528,43.92c0,24.84-24.336,44.352-50.616,43.776c-32.184-0.72-47.16-17.496-47.16-42.336
	C257.112,369.648,280.008,349.272,306.36,349.272z"/>
<polyline fill-rule="evenodd" clip-rule="evenodd" fill="none" stroke="#666666" stroke-width="0.216" stroke-miterlimit="10" points="
	485.352,338.256 479.088,339.48 470.304,340.704 465.192,344.448 465.192,350.712 "/>
<polyline fill-rule="evenodd" clip-rule="evenodd" fill="none" stroke="#666666" stroke-width="0.216" stroke-miterlimit="10" points="
	487.944,353.232 475.344,353.232 466.488,355.752 463.968,359.568 466.488,364.608 "/>
<polyline fill-rule="evenodd" clip-rule="evenodd" fill="none" stroke="#666666" stroke-width="0.216" stroke-miterlimit="10" points="
	486.576,372.096 479.088,369.576 471.6,368.352 465.192,370.872 463.968,377.208 "/>
<path fill-rule="evenodd" clip-rule="evenodd" fill="none" stroke="#231F20" stroke-width="10.8" stroke-miterlimit="10" d="
	M322.992,252.576c-39.24,46.512-75.6,95.832-96.984,153.432c-10.656,28.872-23.184,73.728-25.056,104.4
	c-0.864,13.032-2.304,32.112,16.344,29.016c4.608-0.792,10.152-4.824,13.896-7.56c10.656-7.632,20.592-13.464,32.688-18.864
	c14.112-6.192,31.104-11.088,46.44-10.08c18,1.08,35.568,6.48,49.176,18.864c6.624,5.976,15.264,20.088,25.2,20.088
	c18.216,0,20.16-54.36,20.16-66.6c0-18-5.04-36.936-10.152-54.144C377.424,363.096,349.704,306.792,322.992,252.576z"/>
</svg>
